<?xml version="1.0" encoding="UTF-8" standalone="no"?>
<!-- Created with Inkscape (http://www.inkscape.org/) -->

<svg
   xmlns:dc="http://purl.org/dc/elements/1.1/"
   xmlns:cc="http://creativecommons.org/ns#"
   xmlns:rdf="http://www.w3.org/1999/02/22-rdf-syntax-ns#"
   xmlns:svg="http://www.w3.org/2000/svg"
   xmlns="http://www.w3.org/2000/svg"
   xmlns:sodipodi="http://sodipodi.sourceforge.net/DTD/sodipodi-0.dtd"
   xmlns:inkscape="http://www.inkscape.org/namespaces/inkscape"
   width="100mm"
   height="100mm"
   viewBox="0 0 354.33071 354.3307"
   id="svg2"
   version="1.1"
   inkscape:version="0.91 r13725"
   sodipodi:docname="logo_pcb.svg">
  <defs
     id="defs4" />
  <sodipodi:namedview
     id="base"
     pagecolor="#ffffff"
     bordercolor="#666666"
     borderopacity="1.0"
     inkscape:pageopacity="0.0"
     inkscape:pageshadow="2"
     inkscape:zoom="1.8020175"
     inkscape:cx="265.93577"
     inkscape:cy="174.09202"
     inkscape:document-units="mm"
     inkscape:current-layer="g4355"
     showgrid="false"
     units="mm"
     inkscape:window-width="1858"
     inkscape:window-height="1053"
     inkscape:window-x="62"
     inkscape:window-y="27"
     inkscape:window-maximized="1" />
  <metadata
     id="metadata7">
    <rdf:RDF>
      <cc:Work
         rdf:about="">
        <dc:format>image/svg+xml</dc:format>
        <dc:type
           rdf:resource="http://purl.org/dc/dcmitype/StillImage" />
        <dc:title />
      </cc:Work>
    </rdf:RDF>
  </metadata>
  <g
     inkscape:label="Edge.Cuts"
     inkscape:groupmode="layer"
     id="layer1"
     transform="translate(0,-698.03155)">
    <g
       id="g4257"
       transform="matrix(4.501826,0,0,4.501826,-588.14602,-1595.4523)">
      <g
         id="g4355"
         transform="matrix(0.19364187,0,0,0.19364187,130.40433,511.83476)">
        <path
           style="color:#000000;font-style:normal;font-variant:normal;font-weight:normal;font-stretch:normal;font-size:medium;line-height:normal;font-family:sans-serif;text-indent:0;text-align:start;text-decoration:none;text-decoration-line:none;text-decoration-style:solid;text-decoration-color:#000000;letter-spacing:normal;word-spacing:normal;text-transform:none;direction:ltr;block-progression:tb;writing-mode:lr-tb;baseline-shift:baseline;text-anchor:start;white-space:normal;clip-rule:nonzero;display:inline;overflow:visible;visibility:visible;opacity:1;isolation:auto;mix-blend-mode:normal;color-interpolation:sRGB;color-interpolation-filters:linearRGB;solid-color:#000000;solid-opacity:1;fill-opacity:1;fill-rule:nonzero;stroke:none;stroke-width:1;stroke-linecap:butt;stroke-linejoin:miter;stroke-miterlimit:4;stroke-dasharray:none;stroke-dashoffset:0;stroke-opacity:1;color-rendering:auto;image-rendering:auto;shape-rendering:auto;text-rendering:auto;enable-background:accumulate"
           d="m 25.867005,10.301562 c -4.973755,-0.0838 -10.035989,1.848551 -13.819313,5.952969 -8.6332219,9.365938 -6.0920668,23.310891 5.339076,29.390685 1.939544,1.03157 4.901388,1.466027 7.924596,1.436151 3.023208,-0.02988 6.08455,-0.533293 8.200176,-1.584023 l 2.758037,-1.368937 2.047803,2.464534 c 1.314603,1.580067 10.548879,12.321858 20.576616,23.937343 l 17.890274,20.722247 -6.181499,6.351776 c -3.080805,3.166733 -4.733002,4.905593 -5.657224,6.367463 -0.924223,1.46186 -1.052256,2.66045 -1.050788,4.38463 0.002,2.22728 0.228427,3.8309 1.790148,6.45483 1.561721,2.62393 4.433598,6.34173 9.804363,13.17181 2.307615,2.93465 4.405808,5.66844 5.923842,7.70504 0.759018,1.01829 1.37224,1.86361 1.792388,2.46677 0.210075,0.30158 0.372251,0.54495 0.474984,0.71023 0.02506,0.0403 0.03407,0.0573 0.05153,0.0874 -0.006,0.0177 -0.0084,0.0242 -0.01568,0.0448 -0.0489,0.13871 -0.125821,0.34054 -0.226289,0.58924 -0.200935,0.49742 -0.496451,1.18895 -0.860346,2.01868 -0.72779,1.65946 -1.734028,3.87323 -2.840935,6.23751 -2.229894,4.76293 -5.073355,11.7984 -6.349535,15.71701 -0.629722,1.93362 -1.224266,3.71876 -1.673643,5.03436 -0.224688,0.65781 -0.413579,1.197 -0.551158,1.57731 -0.05617,0.15526 -0.09719,0.26401 -0.13443,0.36072 -0.0061,0.001 -0.0072,0.001 -0.01344,0.002 -0.18753,0.0351 -0.472537,0.0815 -0.8357,0.13667 -0.726329,0.11043 -1.771448,0.25642 -3.053782,0.4257 -2.56467,0.33854 -6.079467,0.77279 -9.920868,1.22106 -8.56031,0.99894 -13.437121,1.64937 -16.57959,2.47573 -3.142469,0.82636 -4.595362,1.90411 -5.988817,3.56014 l -2.267371,2.6953 0,26.14422 0,26.16214 2.513824,2.68858 c 1.420725,1.52089 2.384703,2.43265 4.799119,3.09635 2.414416,0.66371 6.289327,1.15959 13.893248,2.12174 5.500359,0.69598 11.074973,1.07206 29.962009,1.29052 l 0,14.54075 0.280061,0 c 0.01047,0.0296 0.0088,0.0601 0.02016,0.0941 0.06773,0.20254 0.160792,0.44969 0.28006,0.74384 0.238537,0.58832 0.578809,1.36135 0.997016,2.27409 0.836414,1.82551 1.987481,4.20411 3.253184,6.7013 l 4.429439,8.74013 -3.031376,3.97687 c -1.778071,2.33494 -6.634905,8.54297 -10.781214,13.77898 -2.082256,2.62948 -3.974296,5.20916 -5.35476,7.25693 -0.690232,1.02388 -1.251837,1.9141 -1.648997,2.62136 -0.198579,0.35364 -0.356095,0.65919 -0.470501,0.92532 -0.114408,0.26614 -0.201574,0.46592 -0.203884,0.75505 -0.0032,0.38905 0.148499,0.6187 0.345034,0.94996 0.196535,0.33126 0.471207,0.72335 0.83122,1.1897 0.720026,0.93272 1.778141,2.16063 3.168046,3.68785 2.77981,3.05443 6.888195,7.29337 12.239771,12.62064 6.675198,6.64491 10.856598,10.70863 13.554933,13.06876 1.34917,1.18006 2.3234,1.93477 3.08963,2.38612 0.76623,0.45133 1.39715,0.64795 1.97611,0.42792 0.22063,-0.0838 0.40539,-0.20347 0.69903,-0.39209 0.29364,-0.18861 0.66257,-0.43925 1.10232,-0.74832 0.87949,-0.61814 2.03939,-1.46772 3.4033,-2.48917 2.7278,-2.04291 6.26757,-4.77242 9.96567,-7.70279 l 13.14045,-10.41154 7.35103,3.92534 c 8.17873,4.36829 21.10706,9.47774 28.12257,11.09712 1.10981,0.25618 2.12131,0.57704 2.82749,0.87154 0.3531,0.14726 0.63134,0.29127 0.78865,0.39658 0.0515,0.0344 0.0638,0.0484 0.0851,0.0672 0.007,0.10697 0.0117,0.19343 0.0314,0.38984 0.0283,0.2822 0.0701,0.67034 0.12322,1.15161 0.10619,0.96252 0.25896,2.30066 0.4481,3.92085 0.37827,3.24037 0.90065,7.60347 1.47425,12.30698 0.81312,6.66766 1.40944,11.00426 1.94473,13.80139 0.26764,1.39857 0.51991,2.41115 0.78641,3.15685 0.26651,0.74569 0.53968,1.24782 0.96565,1.56609 0.32305,0.24138 0.63262,0.28909 1.10008,0.38088 0.46746,0.0918 1.06278,0.17457 1.7767,0.2487 1.42784,0.14825 3.33088,0.2663 5.5564,0.36072 4.45107,0.18885 10.18604,0.27448 15.89849,0.25989 5.71245,-0.0146 11.39913,-0.12918 15.75061,-0.34055 2.17574,-0.10568 4.01546,-0.2341 5.37045,-0.38984 0.67749,-0.0779 1.23271,-0.16158 1.66244,-0.25765 0.21485,-0.048 0.39826,-0.098 0.56235,-0.16133 0.1641,-0.0633 0.31646,-0.11678 0.48171,-0.3159 0.22223,-0.26779 0.24784,-0.45992 0.34503,-0.78865 0.0972,-0.32874 0.20109,-0.75016 0.31367,-1.26587 0.22516,-1.03144 0.48322,-2.4312 0.76176,-4.10681 0.55711,-3.35125 1.19128,-7.80401 1.76999,-12.56016 0.57728,-4.74447 1.16593,-9.11423 1.64676,-12.32491 0.24041,-1.60535 0.45384,-2.92142 0.62509,-3.84467 0.0856,-0.46164 0.15993,-0.82551 0.21957,-1.06872 0.0212,-0.0864 0.0384,-0.13475 0.0538,-0.18595 0.0358,-0.0209 0.005,-0.002 0.0829,-0.0358 0.15094,-0.0659 0.37003,-0.15351 0.64302,-0.25766 0.54597,-0.20829 1.31157,-0.48211 2.23152,-0.79986 1.83991,-0.63548 4.30599,-1.44752 6.94999,-2.28081 5.34924,-1.68588 14.05793,-5.27049 19.45413,-8.00749 l 9.40556,-4.77224 12.64754,9.97016 c 3.55964,2.80616 7.01315,5.47225 9.71474,7.51011 1.35079,1.01893 2.51256,1.88025 3.40778,2.52503 0.89522,0.64476 1.48463,1.0549 1.84615,1.24571 0.5069,0.26751 1.1504,0.4689 1.8865,0.24869 0.73609,-0.22021 1.54619,-0.75678 2.77596,-1.78343 2.45952,-2.0533 6.59357,-6.1385 14.43544,-13.94478 5.3684,-5.34404 9.48996,-9.59456 12.27786,-12.6565 1.39395,-1.53097 2.45278,-2.76233 3.17476,-3.69679 0.361,-0.46724 0.63868,-0.85804 0.83571,-1.1897 0.19703,-0.33167 0.34823,-0.56246 0.34503,-0.95221 -0.002,-0.28927 -0.0895,-0.48887 -0.20388,-0.75505 -0.11439,-0.26617 -0.27192,-0.57167 -0.4705,-0.92532 -0.39715,-0.70727 -0.95874,-1.59748 -1.649,-2.62136 -1.38051,-2.04777 -3.2725,-4.62745 -5.35476,-7.25693 -4.14637,-5.23609 -9.00551,-11.44422 -10.78346,-13.77898 l -3.02913,-3.97687 4.4272,-8.74013 c 1.26569,-2.49719 2.41677,-4.87579 3.25318,-6.7013 0.41821,-0.91274 0.75849,-1.68577 0.99702,-2.27409 0.11927,-0.29415 0.21233,-0.5413 0.28006,-0.74384 0.0677,-0.20253 0.12322,-0.30742 0.12322,-0.56012 0,-0.13459 -0.087,-0.13159 -0.12994,-0.21732 l 0,-13.69161 c 18.04048,-0.21169 22.6691,-0.63199 29.24953,-1.44511 3.81249,-0.47108 7.58559,-1.04526 10.60198,-1.59299 1.5082,-0.27386 2.82695,-0.54071 3.87156,-0.78641 1.0446,-0.24569 1.79255,-0.45366 2.27184,-0.6811 1.26374,-0.59969 2.30494,-1.13767 3.11205,-2.0971 0.8071,-0.95943 1.32235,-2.28395 1.66243,-4.34206 0.68017,-4.11624 0.70799,-11.30808 0.70799,-25.27939 l 0,-25.44519 -2.26513,-2.6953 c -1.39177,-1.65403 -2.84017,-2.73069 -5.98432,-3.56014 -3.14417,-0.82944 -8.03011,-1.48744 -16.61321,-2.50262 -3.84882,-0.45522 -7.36749,-0.89416 -9.93207,-1.23227 -1.28228,-0.16905 -2.32651,-0.31263 -3.05154,-0.42121 -0.36251,-0.0543 -0.64623,-0.10046 -0.83346,-0.13442 -0.001,-2e-4 -0.001,1.8e-4 -0.002,0 -0.0356,-0.0947 -0.0725,-0.19464 -0.12547,-0.3428 -0.1351,-0.37808 -0.32158,-0.91697 -0.54444,-1.57282 -0.44572,-1.31171 -1.03936,-3.09382 -1.66915,-5.02765 -1.27612,-3.91841 -4.11734,-10.95394 -6.3473,-15.71701 -1.10686,-2.36417 -2.11493,-4.58198 -2.84317,-6.24646 -0.36414,-0.83225 -0.65709,-1.52486 -0.85811,-2.02541 -0.10051,-0.25027 -0.17965,-0.45354 -0.22853,-0.59372 -0.008,-0.023 -0.009,-0.0321 -0.0157,-0.0515 0.0225,-0.0388 0.0383,-0.0688 0.0739,-0.12546 0.1184,-0.18824 0.30311,-0.46029 0.5422,-0.8021 0.47817,-0.6836 1.17476,-1.64322 2.0366,-2.80061 1.72367,-2.31476 4.10553,-5.42742 6.7237,-8.77598 2.62582,-3.35833 5.06754,-6.63902 6.89396,-9.22632 0.91322,-1.29363 1.67383,-2.41389 2.22705,-3.28902 0.27661,-0.43757 0.49993,-0.81248 0.6699,-1.12472 0.16998,-0.31226 0.28596,-0.53989 0.34952,-0.79314 0.59372,-2.36559 0.52221,-4.50137 -0.42794,-6.71025 -0.95013,-2.20889 -2.7353,-4.48353 -5.52055,-7.317425 l -4.9694,-5.054535 18.30477,-21.132256 C 360.61645,59.93055 370.03836,49.006 371.35653,47.42192 l 2.05453,-2.473495 2.39732,1.138166 c 8.98344,4.262912 18.74183,1.591868 24.05385,-6.600469 1.84412,-2.84408 2.236,-4.53201 2.236,-9.714744 -10e-6,-3.443916 -0.13827,-5.61435 -0.86034,-7.52579 -0.72207,-1.911438 -2.00316,-3.479503 -4.15611,-5.73116 -8.54527,-8.9370776 -23.76801,-6.366219 -29.41532,4.938029 -2.20257,4.408867 -2.58165,9.156623 -1.0239,13.348811 0.36973,0.99502 0.72273,2.066798 0.99029,2.979845 0.25883,0.883211 0.42395,1.614567 0.4593,1.924576 -0.036,0.06766 -0.1118,0.185798 -0.22404,0.333833 -0.2245,0.296069 -0.59036,0.71492 -1.08441,1.236748 -0.98808,1.043656 -2.49372,2.505575 -4.4944,4.362225 -4.00138,3.713298 -9.98761,9.012025 -17.85443,15.79766 l -23.60128,20.354807 -6.78195,-6.750581 c -3.22323,-3.208305 -5.11277,-5.015368 -6.67664,-6.100841 -1.56387,-1.085473 -2.8285,-1.414612 -4.53026,-1.606428 -2.21787,-0.249982 -4.58379,-0.06561 -5.90367,0.640779 -0.34217,0.183122 -0.89046,0.566703 -1.71846,1.162811 -0.828,0.596109 -1.89962,1.389552 -3.14116,2.325624 -2.48308,1.872143 -5.64705,4.314563 -8.8992,6.87829 l -11.53402,9.091888 -7.85962,-3.811064 c -4.53592,-2.200154 -11.84509,-5.180188 -16.32866,-6.654242 -2.20562,-0.725143 -4.21311,-1.48584 -5.65499,-2.119499 -0.72094,-0.316829 -1.30294,-0.604537 -1.68036,-0.826739 -0.18102,-0.106575 -0.30897,-0.196735 -0.3764,-0.253174 -0.008,-0.103515 -0.0123,-0.188521 -0.0314,-0.371921 -0.0282,-0.271809 -0.069,-0.638205 -0.12099,-1.091117 -0.10393,-0.905822 -0.25362,-2.153934 -0.43689,-3.656471 -0.36653,-3.005074 -0.86878,-7.0268 -1.42047,-11.336855 -0.97528,-7.619613 -1.49033,-11.548662 -2.09261,-13.958223 -0.60229,-2.40956 -1.37568,-3.342815 -2.62585,-4.592994 l -2.71771,-2.717709 -26.70658,0 -26.70882,0 -2.78493,2.784924 c -1.28719,1.287202 -2.0748,2.210861 -2.67514,4.559387 -0.60034,2.348526 -1.09462,6.156379 -2.04107,13.579581 -0.53273,4.178142 -1.01897,8.123608 -1.37343,11.117287 -0.17723,1.496838 -0.32047,2.756034 -0.42121,3.687839 -0.10073,0.931803 -0.16,1.478431 -0.16356,1.763261 2e-4,-0.01509 -0.0157,0.101708 -0.26885,0.318149 -0.25318,0.21644 -0.6993,0.494511 -1.33085,0.804333 -1.26309,0.619647 -3.26939,1.379784 -6.0986,2.309941 -4.48374,1.474113 -11.81721,4.464567 -16.38242,6.678886 l -7.9134,3.837951 -10.94029,-8.628108 -0.002,0 c -7.63785,-6.021941 -11.39202,-9.003561 -13.89997,-10.463065 -2.50794,-1.459505 -3.87376,-1.328513 -6.13893,-1.073193 -1.73782,0.19588 -3.00224,0.507694 -4.480969,1.489922 -1.478733,0.982229 -3.177713,2.591779 -6.033627,5.430936 L 87.944127,80.197978 64.533298,60.053776 C 56.299293,52.970208 50.380775,47.751473 46.564606,44.202343 c -1.908084,-1.774565 -3.293462,-3.133572 -4.167302,-4.086645 -0.43692,-0.476537 -0.74652,-0.854099 -0.92084,-1.109039 -0.07466,-0.109194 -0.109361,-0.180235 -0.132188,-0.22853 0.236607,-0.724913 0.984709,-2.84019 1.705009,-4.805841 1.586364,-4.329108 1.131584,-9.028174 -1.281557,-13.76554 -3.23819,-6.357072 -9.506104,-9.797428 -15.900723,-9.905186 z m -0.01792,1.147129 c 5.997401,0.101063 11.854157,3.304301 14.896987,9.277849 2.301719,4.518628 2.698583,8.837691 1.227785,12.851423 -0.740959,2.022026 -1.52806,4.231024 -1.765501,4.969396 -0.08806,0.273831 -0.01453,0.463044 0.05153,0.625095 0.06606,0.162052 0.156003,0.313379 0.271099,0.481705 0.23019,0.33665 0.564736,0.738393 1.021662,1.236748 0.913848,0.996709 2.310684,2.366576 4.230036,4.151618 3.8387,3.570085 9.763203,8.792613 18.002297,15.880559 l 24.217404,20.834272 6.74162,-6.701291 c 2.847537,-2.830832 4.530379,-4.408107 5.861111,-5.292026 1.33073,-0.88392 2.30342,-1.117581 3.97686,-1.306203 2.2765,-0.256598 3.08339,-0.438601 5.43094,0.92756 2.34755,1.366162 6.12943,4.348872 13.76778,10.371206 l 11.50488,9.071724 8.56315,-4.151618 c 4.49542,-2.180467 11.84082,-5.174641 16.23903,-6.620634 2.85161,-0.937524 4.88641,-1.700976 6.24647,-2.368193 0.68003,-0.333608 1.19068,-0.64054 1.56834,-0.963409 0.37766,-0.322867 0.66606,-0.698589 0.67214,-1.176254 9.7e-4,-0.07678 0.0568,-0.72829 0.15684,-1.653479 0.10002,-0.925187 0.24203,-2.182184 0.41897,-3.676636 0.35389,-2.9889 0.84109,-6.933189 1.37342,-11.108324 0.9463,-7.42194 1.45102,-11.237552 2.01419,-13.440671 0.56317,-2.20312 1.10357,-2.759286 2.37491,-4.030633 l 2.44886,-2.44885 26.23384,0 26.2316,0 2.38164,2.381635 c 1.2296,1.229607 1.75799,1.78889 2.32561,4.05976 0.56763,2.270869 1.09064,6.210143 2.06574,13.828274 0.55143,4.30812 1.05433,8.326068 1.42047,11.327893 0.18307,1.500912 0.33127,2.746477 0.43465,3.647509 0.0517,0.450518 0.0936,0.815417 0.12098,1.079915 0.0274,0.264497 0.0406,0.464511 0.0403,0.450337 0.007,0.410571 0.21369,0.528342 0.36743,0.660943 0.15374,0.132601 0.3347,0.251724 0.55789,0.383123 0.44637,0.262799 1.05581,0.559592 1.80134,0.887233 1.49107,0.655278 3.52268,1.424906 5.75805,2.159827 4.3984,1.446052 11.71944,4.42983 16.18527,6.595988 l 8.50936,4.124733 12.09413,-9.535505 c 3.24616,-2.558985 6.40699,-4.997084 8.88129,-6.862606 1.23715,-0.932761 2.30412,-1.724074 3.121,-2.312181 0.81688,-0.588105 1.42089,-0.98901 1.59074,-1.079913 0.81816,-0.437867 3.1946,-0.744899 5.23153,-0.515312 1.63024,0.183755 2.57955,0.421425 4.00599,1.411506 1.42643,0.990081 3.30357,2.767319 6.51981,5.968652 l 7.53924,7.503386 24.40336,-21.049359 c 7.87249,-6.790528 13.86508,-12.093303 17.88579,-15.824547 2.01035,-1.865621 3.52808,-3.338516 4.54819,-4.415996 0.51005,-0.538739 0.89536,-0.975163 1.16505,-1.330848 0.13484,-0.177842 0.24017,-0.333481 0.32263,-0.488425 0.0824,-0.154945 0.17152,-0.296919 0.14563,-0.578046 -0.0468,-0.507938 -0.24149,-1.267067 -0.51755,-2.209118 -0.27607,-0.942052 -0.63477,-2.032891 -1.01494,-3.056021 -1.43832,-3.870794 -1.10477,-8.276897 0.97461,-12.439174 5.3107,-10.630478 19.56093,-13.0217863 27.56021,-4.655728 2.12565,2.223129 3.27492,3.657388 3.91188,5.343557 0.63698,1.686168 0.78642,3.708627 0.78642,7.120261 0,5.133525 -0.27194,6.346155 -2.05229,9.09189 -5.02811,7.754489 -14.06723,10.23611 -22.59753,6.188219 l -3.2039,-1.519049 -2.6236,3.154603 c -1.25617,1.509554 -10.72762,12.491833 -20.98439,24.33391 l -18.99483,21.934349 5.70875,5.807337 c 2.74092,2.788793 4.4295,4.978343 5.28531,6.967903 0.8558,1.98958 0.92241,3.78652 0.37192,5.97986 -0.007,0.026 -0.0931,0.24439 -0.24421,0.52203 -0.15114,0.27765 -0.36598,0.63568 -0.63406,1.05975 -0.53615,0.84813 -1.28749,1.9564 -2.19343,3.23975 -1.8119,2.5667 -4.24739,5.83674 -6.86262,9.18151 -2.62284,3.35452 -5.00779,6.47298 -6.73938,8.79838 -0.86578,1.1627 -1.56677,2.12699 -2.05675,2.82749 -0.24501,0.35025 -0.43689,0.63409 -0.57357,0.85139 -0.0683,0.10864 -0.12328,0.19928 -0.16804,0.28454 -0.0224,0.0426 -0.0426,0.0834 -0.0627,0.13442 -0.0202,0.0511 -0.0515,0.0946 -0.0515,0.25766 0,0.15014 0.0233,0.19043 0.0426,0.25989 0.0192,0.0695 0.0421,0.14157 0.0717,0.2263 0.0591,0.16945 0.14211,0.3832 0.24646,0.64302 0.20869,0.51964 0.50461,1.22258 0.87154,2.06124 0.73388,1.67734 1.74398,3.90161 2.85438,6.27336 2.20455,4.70878 5.05237,11.75773 6.29801,15.58258 0.63109,1.93779 1.22341,3.72494 1.6714,5.04333 0.22399,0.65919 0.41243,1.20027 0.55116,1.58851 0.0694,0.19411 0.12533,0.34964 0.17027,0.46602 0.0225,0.0582 0.0416,0.10654 0.0605,0.15011 0.0189,0.0436 -0.0137,0.0335 0.10754,0.18595 3.7e-4,4.6e-4 0.0521,0.0595 0.0739,0.0784 0.0219,0.0189 0.042,0.0339 0.0582,0.0448 0.0326,0.0219 0.0544,0.0331 0.0739,0.0426 0.0391,0.019 0.0632,0.0262 0.0851,0.0336 0.0438,0.0147 0.0779,0.0249 0.11426,0.0336 0.0728,0.0174 0.15521,0.0325 0.25991,0.0515 0.2094,0.038 0.50061,0.0837 0.86931,0.13892 0.73738,0.11044 1.78562,0.25613 3.0717,0.42569 2.57217,0.3391 6.0925,0.77655 9.94552,1.23227 8.57559,1.01429 13.4526,1.68108 16.45636,2.47349 3.00375,0.79241 4.08821,1.63467 5.39733,3.19045 l 1.99627,2.37268 0,25.02846 c 0,13.96932 -0.0471,21.18856 -0.69231,25.09343 -0.32263,1.95243 -0.78014,3.04079 -1.40927,3.78866 -0.62913,0.74787 -1.48585,1.21255 -2.72666,1.80135 -0.2752,0.13059 -1.02573,0.36164 -2.04109,0.60045 -1.01536,0.23882 -2.3185,0.50153 -3.81331,0.77297 -2.98961,0.54285 -6.74575,1.11557 -10.537,1.58402 -6.66485,0.82356 -10.98473,1.2436 -29.69091,1.45183 l -0.56684,0.007 0,15.17258 0.0695,0.047 c -0.003,0.009 -0.001,0.002 -0.004,0.0112 -0.0551,0.16474 -0.14159,0.39366 -0.25541,0.67438 -0.22764,0.56144 -0.56304,1.32612 -0.97686,2.22929 -0.82761,1.80631 -1.97113,4.17348 -3.23077,6.65871 l -4.75431,9.38092 3.46379,4.55043 c 1.79438,2.35634 6.64735,8.55681 10.7969,13.7969 2.06572,2.60862 3.94727,5.17057 5.30547,7.18523 0.6791,1.00734 1.22777,1.87835 1.5997,2.54071 0.18597,0.33119 0.32765,0.61048 0.41673,0.81779 0.0891,0.2073 0.11022,0.3692 0.10978,0.31142 -9.5e-4,-0.11569 -0.0264,0.0914 -0.18371,0.35624 -0.15735,0.26486 -0.41331,0.63022 -0.75729,1.07543 -0.68795,0.89043 -1.73193,2.10689 -3.11427,3.6251 -2.76468,3.03645 -6.88109,7.28182 -12.24201,12.61841 -7.84067,7.80508 -11.99236,11.89748 -14.36151,13.87534 -1.18458,0.98892 -1.92603,1.43158 -2.36819,1.56385 -0.44217,0.13228 -0.60369,0.0605 -1.02391,-0.16132 -0.17424,-0.092 -0.82323,-0.52609 -1.70724,-1.16281 -0.88403,-0.6367 -2.04344,-1.49371 -3.38986,-2.50934 -2.69284,-2.03127 -6.14309,-4.69516 -9.69683,-7.49667 l -13.2211,-10.42273 -10.05977,5.10383 c -5.31169,2.69412 -14.03533,6.28308 -19.27938,7.93579 -2.65265,0.83601 -5.12742,1.64944 -6.98135,2.28978 -0.92696,0.32017 -1.69706,0.59743 -2.26289,0.81329 -0.28291,0.10794 -0.51517,0.19951 -0.69455,0.27783 -0.17937,0.0783 -0.25588,0.0804 -0.45482,0.25317 -0.25184,0.2187 -0.19738,0.28159 -0.23301,0.38536 -0.0356,0.10377 -0.0685,0.21972 -0.10306,0.36072 -0.0692,0.28201 -0.14742,0.6602 -0.23525,1.13368 -0.17566,0.94697 -0.39025,2.27199 -0.63181,3.885 -0.48314,3.22605 -1.07066,7.60075 -1.649,12.35405 -0.57694,4.74159 -1.21003,9.18287 -1.76326,12.51086 -0.27662,1.664 -0.53473,3.05173 -0.75281,4.05081 -0.10904,0.49952 -0.20739,0.90151 -0.29126,1.18521 -0.0839,0.28368 -0.21782,0.49169 -0.12771,0.38312 0.0822,-0.0991 0.0689,-0.0555 -0.0112,-0.0246 -0.0801,0.0309 -0.22078,0.0717 -0.40105,0.11201 -0.36055,0.0806 -0.88682,0.16225 -1.54145,0.23751 -1.30928,0.15048 -3.13498,0.28035 -5.29651,0.38535 -4.32308,0.20999 -9.99776,0.32377 -15.69684,0.33831 -5.69907,0.0146 -11.42528,-0.07 -15.84919,-0.25764 -2.21195,-0.0939 -4.09798,-0.21452 -5.48471,-0.35848 -0.69336,-0.072 -1.26315,-0.15016 -1.67364,-0.23078 -0.4105,-0.0806 -0.69311,-0.21721 -0.6363,-0.17475 -0.11392,-0.0851 -0.33983,-0.38514 -0.57132,-1.03287 -0.2315,-0.64772 -0.47752,-1.6183 -0.73936,-2.98657 -0.5237,-2.73654 -1.12137,-7.06535 -1.93355,-13.72521 -0.57339,-4.70186 -1.09406,-9.06274 -1.47199,-12.30026 -0.18897,-1.61876 -0.3424,-2.95591 -0.4481,-3.91413 -0.0529,-0.4791 -0.0934,-0.86509 -0.12098,-1.14041 -0.0276,-0.27531 -0.0403,-0.49898 -0.0403,-0.44585 0,-0.26273 -0.12244,-0.43295 -0.22853,-0.5534 -0.1061,-0.12045 -0.22071,-0.21027 -0.35176,-0.29799 -0.26209,-0.17542 -0.59023,-0.33689 -0.98581,-0.50187 -0.79117,-0.32995 -1.84532,-0.65894 -3.00897,-0.92756 -6.79795,-1.56915 -19.7782,-6.68805 -27.84027,-10.99405 l -8.01422,-4.27933 -13.73193,10.87755 c -3.69078,2.92457 -7.2248,5.65287 -9.94103,7.68711 -1.35812,1.01712 -2.5129,1.85986 -3.37641,2.46677 -0.43176,0.30346 -0.79049,0.54928 -1.06199,0.72368 -0.27151,0.1744 -0.48909,0.28564 -0.48619,0.28454 -0.0642,0.0244 -0.33968,0.0356 -0.98581,-0.34503 -0.64613,-0.38061 -1.5903,-1.10434 -2.91487,-2.2629 -2.64915,-2.31709 -6.830123,-6.3742 -13.501168,-13.01497 -5.344045,-5.31978 -9.447395,-9.55147 -12.203923,-12.58033 -1.378263,-1.51442 -2.421597,-2.7298 -3.107552,-3.61838 -0.342978,-0.4443 -0.59594,-0.8088 -0.752803,-1.07319 -0.156863,-0.26439 -0.182786,-0.47127 -0.18372,-0.35624 -4.61e-4,0.0576 0.02066,-0.1041 0.109784,-0.31142 0.08912,-0.20733 0.230749,-0.48659 0.41673,-0.81779 0.37196,-0.66239 0.92063,-1.53337 1.599706,-2.54071 1.358151,-2.01466 3.239753,-4.57663 5.305469,-7.18523 4.149611,-5.24017 9.000429,-11.44075 10.794657,-13.7969 l 3.466031,-4.55043 -4.756551,-9.38092 c -1.259646,-2.48523 -2.403153,-4.8524 -3.230779,-6.65871 -0.413813,-0.90317 -0.749208,-1.66785 -0.976851,-2.22929 -0.113821,-0.28072 -0.200325,-0.50964 -0.255416,-0.67438 -0.01993,-0.0596 -0.01279,-0.0277 -0.0224,-0.0717 l 0.721436,-0.80658 -0.941003,0 0,-14.52058 -0.566843,-0.007 C 64.641707,241.202 59.307103,240.82444 53.770006,240.1238 c -7.602757,-0.962 -11.485469,-1.47222 -13.734173,-2.09036 -2.248705,-0.61815 -2.853348,-1.264 -4.263644,-2.77372 l -2.204637,-2.357 0,-25.70956 0,-25.72749 1.998513,-2.37268 c 1.310346,-1.55726 2.400232,-2.3989 5.40181,-3.18821 3.001577,-0.7893 7.870076,-1.4508 16.422755,-2.44884 3.846169,-0.44883 7.363357,-0.88364 9.936553,-1.22331 1.286597,-0.16985 2.336114,-0.31542 3.076185,-0.42794 0.370036,-0.0563 0.661892,-0.10373 0.87379,-0.14339 0.105949,-0.0198 0.191605,-0.0373 0.266618,-0.056 0.03751,-0.009 0.07115,-0.0175 0.116504,-0.0336 0.02268,-0.008 0.04839,-0.0183 0.08738,-0.0381 0.01949,-0.01 0.04087,-0.0211 0.0717,-0.0426 0.01541,-0.0107 0.03379,-0.025 0.05377,-0.0426 0.01998,-0.0175 0.06679,-0.0689 0.06721,-0.0695 0.114133,-0.13964 0.0916,-0.14484 0.112024,-0.19044 0.02043,-0.0456 0.04145,-0.095 0.06498,-0.15459 0.04704,-0.11911 0.10386,-0.27452 0.174758,-0.47051 0.141795,-0.39196 0.331889,-0.93808 0.557881,-1.5997 0.45198,-1.32324 1.046976,-3.11206 1.678122,-5.05005 1.245581,-3.82465 4.095638,-10.87366 6.300245,-15.58258 1.110344,-2.37163 2.118924,-4.59258 2.852138,-6.2644 0.366606,-0.83591 0.663184,-1.53424 0.871549,-2.05004 0.104181,-0.2579 0.187524,-0.46916 0.246452,-0.63629 0.02946,-0.0836 0.05246,-0.15586 0.0717,-0.22406 0.01923,-0.0682 0.04257,-0.10442 0.04257,-0.25989 0,-0.30233 -0.06639,-0.29618 -0.107544,-0.3764 -0.04115,-0.0802 -0.08912,-0.16401 -0.150113,-0.26214 -0.121989,-0.19626 -0.292173,-0.44884 -0.50859,-0.75953 -0.432831,-0.62136 -1.051468,-1.47182 -1.814792,-2.4959 -1.52665,-2.04815 -3.628962,-4.78618 -5.941767,-7.72743 -5.368256,-6.8269 -8.23106,-10.55049 -9.719225,-13.05082 -1.488165,-2.50034 -1.626862,-3.70386 -1.628833,-5.86783 -0.0014,-1.68028 0.06432,-2.49263 0.87379,-3.77299 0.809469,-1.28035 2.430868,-3.01496 5.507112,-6.177009 L 78.339167,91.297341 59.763305,69.781962 C 49.736581,58.167653 40.459408,47.37163 39.200131,45.858062 l -2.630328,-3.159084 -3.569093,1.772223 c -1.842356,0.91501 -4.803933,1.43439 -7.702788,1.463037 -2.898856,0.02865 -5.75822,-0.442649 -7.373438,-1.301722 C 7.0670077,38.857834 4.7130759,25.905257 12.890115,17.034221 c 3.559795,-3.86192 8.294499,-5.664125 12.958965,-5.58553 z m 110.26996,97.808379 -0.0829,0.49291 -0.53548,3.13667 c -0.90212,5.29082 -1.44205,8.03907 -2.29873,9.61841 -0.85669,1.57934 -2.02481,2.15979 -4.58179,3.25991 l -4.48546,1.92906 -6.14789,-4.06201 -6.79315,-4.48544 -5.0971,5.04556 c -1.32457,1.31076 -2.52826,2.63141 -3.41002,3.71697 -0.44088,0.54278 -0.80121,1.02527 -1.06199,1.43166 -0.26078,0.40641 -0.46602,0.64718 -0.46602,1.12921 0,0.41482 0.1487,0.67952 0.35175,1.11577 0.20306,0.43624 0.48562,0.96694 0.83346,1.57058 0.69569,1.20727 1.64757,2.69985 2.69531,4.19866 l 3.60046,5.15312 -1.72294,4.35998 c -0.50112,1.26905 -1.03035,2.50742 -1.47423,3.47051 -0.22195,0.48156 -0.42181,0.89335 -0.58477,1.20315 -0.16296,0.30979 -0.31953,0.54152 -0.31815,0.53995 0.0694,-0.0789 0.0135,-0.0134 -0.0919,0.0381 -0.10535,0.0514 -0.26698,0.11712 -0.46826,0.19043 -0.40255,0.14663 -0.96721,0.32138 -1.64004,0.50635 -1.34564,0.36995 -3.128543,0.78583 -5.009721,1.15161 l -7.353272,1.42943 0,7.92236 0,7.92908 7.449613,1.33084 6.6632,1.1897 2.11278,5.1576 2.11502,5.16208 -1.68933,2.47349 28.85521,0 0.14563,-0.35847 c 0.69056,-1.70122 1.73537,-4.28412 2.02316,-4.98733 l 1.38686,-3.38761 -4.02167,-3.86932 c -3.72402,-3.58069 -5.35186,-7.85903 -5.03661,-11.93954 0.31524,-4.08052 2.57333,-7.98981 6.78867,-10.83051 3.67665,-2.47774 10.29873,-2.4616 14.71326,0.12546 6.67505,3.91186 8.80597,12.45761 4.79241,19.30627 -0.56959,0.9719 -1.15357,1.85856 -1.62436,2.49142 -0.23539,0.31642 -0.44371,0.57081 -0.59373,0.72815 -0.075,0.0787 -0.13752,0.13277 -0.16355,0.15236 -0.026,0.0196 -0.0353,-0.0268 0.15683,-0.0358 -0.27841,0.0131 -0.41267,0.0995 -0.60717,0.19715 -0.19449,0.0977 -0.411,0.22538 -0.64749,0.37865 -0.47301,0.30653 -1.02446,0.71264 -1.56162,1.16057 l -2.21584,1.8484 3.77297,9.02019 28.87313,0 -1.56834,-2.35699 1.73413,-4.39808 c 0.50139,-1.27246 1.06145,-2.5436 1.55267,-3.5534 0.49121,-1.00982 0.98308,-1.81554 1.08662,-1.92682 -0.0265,0.0285 0.24481,-0.16398 0.64079,-0.32487 0.39597,-0.16088 0.93567,-0.34252 1.56833,-0.52652 1.26477,-0.36781 2.90528,-0.74827 4.593,-1.04631 l 6.67217,-1.17625 0.25093,-8.01197 0.25318,-8.03662 -7.65798,-1.40478 c -1.96681,-0.36115 -3.77306,-0.71735 -5.09262,-0.99926 -0.65979,-0.14096 -1.19796,-0.26295 -1.56834,-0.35624 -0.15709,-0.0396 -0.26428,-0.0701 -0.35176,-0.0963 -0.0347,-0.0733 -0.0728,-0.15695 -0.12547,-0.27109 -0.12715,-0.27576 -0.30099,-0.66076 -0.51083,-1.12697 -0.41968,-0.93243 -0.97926,-2.18579 -1.57506,-3.53549 l -2.04108,-4.61764 4.062,-5.81406 4.51905,-6.47052 -5.60793,-5.66171 -5.61017,-5.65946 -6.49293,4.48993 -5.84766,4.04184 -4.86857,-1.90665 -4.84842,-1.90217 -1.19194,-6.68785 -1.32413,-7.46306 -8.08143,-0.25317 -8.11279,-0.25318 z m 120.08104,0.82898 -0.0829,0.49291 -0.53325,3.13668 c -0.90212,5.2908 -1.44205,8.03906 -2.29873,9.6184 -0.85668,1.57933 -2.02479,2.15979 -4.58179,3.2599 l -4.48545,1.92682 -6.14789,-4.05976 -6.79316,-4.48545 -5.09934,5.04557 c -1.32458,1.31075 -2.52827,2.6314 -3.41002,3.71696 -0.44088,0.54279 -0.8012,1.02528 -1.06199,1.43168 -0.26078,0.40639 -0.46602,0.64717 -0.46602,1.12921 0,0.41481 0.1487,0.6795 0.35176,1.11575 0.20306,0.43626 0.48562,0.96694 0.83345,1.57058 0.69569,1.20729 1.64757,2.69986 2.69531,4.19868 l 3.60047,5.15087 -1.7207,4.36223 c -0.50115,1.26915 -1.02866,2.50572 -1.472,3.46827 -0.22166,0.48127 -0.42427,0.89582 -0.58701,1.20538 -0.16274,0.30955 -0.31732,0.53932 -0.31591,0.53772 0.0695,-0.079 0.0136,-0.0134 -0.0919,0.0381 -0.10549,0.0515 -0.26675,0.11702 -0.46826,0.19044 -0.403,0.14685 -0.96889,0.32334 -1.64227,0.50859 -1.34677,0.37051 -3.13086,0.78585 -5.01197,1.15161 l -7.35103,1.42943 0,7.92011 0,7.92908 7.44737,1.33085 6.66544,1.19194 2.11279,5.15759 2.11501,5.15984 -1.12472,1.64676 28.62443,0 0.14564,-0.35847 c 0.5355,-1.31843 1.4495,-3.57462 1.68932,-4.16059 l 1.38687,-3.38761 -4.02168,-3.86932 c -3.72402,-3.58069 -5.35184,-7.85904 -5.03661,-11.93954 0.31524,-4.08051 2.57333,-7.98979 6.78867,-10.83051 3.67673,-2.47769 10.29643,-2.46166 14.71103,0.12547 6.67498,3.91178 8.80593,12.4599 4.7924,19.3085 -0.56962,0.97196 -1.15413,1.85914 -1.62436,2.49141 -0.23511,0.31615 -0.44395,0.56882 -0.59373,0.72593 -0.0749,0.0785 -0.13538,0.13285 -0.16131,0.15235 -0.0259,0.0195 -0.035,-0.0269 0.15684,-0.0359 -0.27904,0.0132 -0.41251,0.0993 -0.60718,0.19716 -0.19466,0.0979 -0.41075,0.22511 -0.64749,0.37864 -0.4735,0.30708 -1.02673,0.71492 -1.56387,1.16281 l -2.21359,1.84617 3.4257,8.19345 28.67149,0 -1.01943,-1.53025 1.73414,-4.39807 c 0.50136,-1.27241 1.06146,-2.54195 1.55266,-3.55118 0.49119,-1.00922 0.9828,-1.81521 1.08663,-1.92681 -0.0264,0.0284 0.24478,-0.16377 0.64078,-0.32488 0.39599,-0.16109 0.93568,-0.34224 1.56833,-0.5265 1.26474,-0.36837 2.9054,-0.75056 4.593,-1.04855 l 6.66992,-1.17625 0.25094,-8.00973 0.25318,-8.03663 -7.6535,-1.40703 c -1.96701,-0.36117 -3.77294,-0.71619 -5.09262,-0.99701 -0.65984,-0.14041 -1.19794,-0.26335 -1.56834,-0.35623 -0.15628,-0.0392 -0.26433,-0.068 -0.35176,-0.0941 -0.0348,-0.0734 -0.0727,-0.15687 -0.12546,-0.27109 -0.12756,-0.27598 -0.30269,-0.66277 -0.51308,-1.12921 -0.42076,-0.93289 -0.98158,-2.18598 -1.5773,-3.53549 l -2.0366,-4.61987 4.05976,-5.81406 4.51906,-6.46829 -5.61018,-5.6617 -5.60793,-5.66171 -6.49517,4.48993 -5.84542,4.04407 -4.86857,-1.90664 -4.85066,-1.90218 -1.18746,-6.68785 -1.3286,-7.46306 -8.07919,-0.2554 -8.11504,-0.25094 z m -119.11987,0.34952 7.11578,0.22181 7.14938,0.2218 1.16282,6.54894 1.30396,7.31967 5.44886,2.13518 5.43317,2.1307 6.35402,-4.38687 5.69979,-3.94325 4.93356,4.97388 4.93578,4.98059 -3.97238,5.68636 -4.42944,6.34729 2.30098,5.20688 c 0.59637,1.35098 1.15616,2.60654 1.5773,3.54221 0.21068,0.46808 0.38556,0.85675 0.51532,1.13817 0.0649,0.14071 0.11794,0.25461 0.15907,0.34055 0.0411,0.0859 0.041,0.10004 0.10978,0.20836 0.0991,0.1561 0.16211,0.17303 0.20613,0.19941 0.044,0.0264 0.0754,0.041 0.1053,0.0538 0.0598,0.0256 0.11387,0.0427 0.177,0.0627 0.12626,0.04 0.28427,0.0825 0.48171,0.13219 0.39485,0.0995 0.94096,0.22479 1.60866,0.36744 1.3354,0.2853 3.15022,0.64314 5.12623,1.00597 l 6.68561,1.22555 -0.2218,7.05081 -0.21958,7.07993 -5.75356,1.01495 -0.002,0 c -1.7276,0.30497 -3.39731,0.69251 -4.71398,1.07543 -0.65834,0.19145 -1.2277,0.38067 -1.68037,0.5646 -0.45266,0.18392 -0.76941,0.30957 -1.04631,0.60717 -0.39719,0.4269 -0.77463,1.16252 -1.28155,2.20464 -0.50692,1.04211 -1.0738,2.33349 -1.58627,3.63407 l -1.9537,4.95819 0.71247,1.07096 -25.96946,0 -3.15012,-7.53252 1.5661,-1.3062 c 0.50276,-0.41923 1.02756,-0.8072 1.45184,-1.08216 0.21214,-0.13748 0.40027,-0.24687 0.53772,-0.3159 0.13743,-0.069 0.26283,-0.0795 0.14562,-0.0739 0.27271,-0.0128 0.37295,-0.11478 0.47947,-0.19493 0.10652,-0.0802 0.20034,-0.1707 0.30246,-0.27781 0.20424,-0.21421 0.43276,-0.4936 0.68559,-0.83347 0.50566,-0.67972 1.10546,-1.59505 1.69381,-2.59896 4.31502,-7.36308 2.00893,-16.64713 -5.20465,-20.8746 -4.831,-2.83114 -11.74448,-2.90723 -15.93209,-0.0851 -4.46415,3.00839 -6.94929,7.24691 -7.29277,11.69309 -0.34343,4.44529 1.45384,9.07157 5.38612,12.85367 l 3.4593,3.32937 -1.09111,2.66616 c -0.27141,0.66318 -1.19558,2.95197 -1.87753,4.63334 l -25.91345,0 0.8133,-1.19195 -2.34803,-5.73116 -2.35027,-5.74013 -7.286056,-1.30171 -6.504129,-1.16057 0,-6.97015 0,-6.97687 6.425712,-1.2502 c 1.907212,-0.37084 3.710933,-0.78905 5.094863,-1.16953 0.69196,-0.19024 1.27904,-0.37134 1.72966,-0.53547 0.2253,-0.0821 0.41558,-0.15816 0.57804,-0.2375 0.16246,-0.0793 0.2902,-0.132 0.4481,-0.31142 0.1783,-0.20262 0.29527,-0.42439 0.47274,-0.76176 0.17747,-0.33739 0.384,-0.76523 0.61165,-1.25916 0.4553,-0.98786 0.99016,-2.24047 1.49889,-3.52876 l 1.95146,-4.93355 -3.95446,-5.65947 c -1.02981,-1.47317 -1.96787,-2.94223 -2.64153,-4.11129 -0.33683,-0.58453 -0.60805,-1.0952 -0.78865,-1.4832 -0.1806,-0.38799 -0.24421,-0.72963 -0.24421,-0.63182 0,0.16503 0.0611,-0.16256 0.28454,-0.51082 0.22348,-0.34827 0.56474,-0.80522 0.98805,-1.32637 0.84662,-1.04232 2.02745,-2.34121 3.32488,-3.62511 l 4.43392,-4.39134 6.01794,3.97461 6.66321,4.40255 5.05454,-2.1755 c 2.57955,-1.10984 4.12017,-1.89089 5.13742,-3.76627 1.01726,-1.87536 1.51648,-4.67501 2.41973,-9.9724 l 0.45034,-2.64376 z m 120.08328,0.82897 7.11578,0.21957 7.14715,0.22405 1.16729,6.54894 1.29948,7.31966 5.4511,2.13518 5.43318,2.1307 6.35177,-4.38911 5.70205,-3.94325 4.93129,4.97612 4.93804,4.9806 -3.97238,5.68411 -4.42721,6.34729 2.29651,5.20689 c 0.59681,1.35199 1.157,2.60988 1.57954,3.54669 0.21126,0.46841 0.38737,0.85655 0.51755,1.13817 0.0651,0.14081 0.11785,0.25459 0.15908,0.34055 0.0412,0.086 0.0417,0.10099 0.10978,0.20836 0.0992,0.15625 0.16202,0.17303 0.20613,0.19941 0.0441,0.0264 0.0754,0.041 0.10529,0.0538 0.0598,0.0255 0.11387,0.0428 0.177,0.0627 0.12628,0.0399 0.2843,0.0827 0.48171,0.13219 0.39483,0.099 0.94326,0.22313 1.61091,0.3652 1.33529,0.28415 3.14818,0.64094 5.12399,1.00374 l 6.68112,1.22778 -0.22181,7.05081 -0.21956,7.0777 -5.75132,1.01493 -0.002,0 c -1.72772,0.305 -3.39727,0.69194 -4.71398,1.07543 -0.65836,0.19176 -1.22772,0.38271 -1.68037,0.56685 -0.45264,0.18414 -0.76955,0.30972 -1.04629,0.60717 -0.39693,0.42661 -0.77463,1.16306 -1.28156,2.20463 -0.50694,1.04158 -1.0738,2.33122 -1.58627,3.63183 l -1.9537,4.9582 0.16355,0.24422 -25.76782,0 -2.80284,-6.70578 1.56385,-1.30396 c 0.50279,-0.41926 1.02694,-0.8066 1.45183,-1.08215 0.21246,-0.13778 0.40227,-0.24892 0.53997,-0.31816 0.13769,-0.0692 0.26345,-0.0795 0.14563,-0.0739 0.2724,-0.0128 0.37295,-0.11482 0.47946,-0.19492 0.10651,-0.0801 0.20044,-0.17081 0.30246,-0.27782 0.20407,-0.21405 0.4308,-0.49388 0.68335,-0.83346 0.50511,-0.67918 1.1055,-1.59286 1.69381,-2.59672 4.31505,-7.36312 2.00903,-16.64937 -5.20464,-20.87684 -4.83095,-2.83113 -11.74234,-2.90703 -15.92986,-0.0851 -4.46416,3.00839 -6.94929,7.24691 -7.29277,11.69309 -0.34343,4.44527 1.45385,9.07157 5.38612,12.85366 l 3.4593,3.32936 -1.09111,2.66618 c -0.22315,0.54522 -1.00276,2.47363 -1.54369,3.80659 l -25.68044,0 0.24645,-0.36073 -2.34803,-5.73339 -2.35027,-5.74013 -7.28829,-1.30397 -6.50189,-1.16057 0,-6.97015 0,-6.97463 6.42347,-1.25018 c 1.90728,-0.37086 3.71205,-0.79074 5.09711,-1.17177 0.69252,-0.19053 1.27864,-0.36891 1.72965,-0.53325 0.2255,-0.0822 0.41773,-0.16034 0.58029,-0.23972 0.16254,-0.0794 0.29008,-0.13188 0.44809,-0.31144 0.17834,-0.20264 0.29547,-0.42457 0.47274,-0.76176 0.17727,-0.33719 0.38429,-0.76551 0.61166,-1.25916 0.45472,-0.98728 0.98794,-2.23827 1.49664,-3.52652 l 1.94922,-4.93578 -3.95445,-5.65723 c -1.02981,-1.47316 -1.96788,-2.94222 -2.64154,-4.11128 -0.33683,-0.58453 -0.60805,-1.09521 -0.78865,-1.48321 -0.18059,-0.388 -0.24421,-0.72965 -0.24421,-0.63181 0,0.16501 0.0611,-0.16257 0.28454,-0.51084 0.22349,-0.34827 0.56475,-0.80522 0.98806,-1.32637 0.84661,-1.0423 2.02743,-2.34121 3.32487,-3.6251 l 4.43616,-4.39135 6.01794,3.97463 6.66321,4.4003 5.05454,-2.17327 c 2.57957,-1.10982 4.12017,-1.89089 5.13742,-3.76625 1.01727,-1.87537 1.51648,-4.67502 2.41973,-9.9724 l 0.45034,-2.64378 z m -131.95561,130.37384 0,0.5758 0,13.81035 3.37416,4.73414 -0.002,0 c 13.63735,19.14466 35.42724,32.88688 59.05919,37.2548 13.52631,2.50007 30.80706,1.31251 44.28991,-3.03587 17.63458,-5.68733 35.64869,-18.80892 46.4094,-33.80444 l 3.33608,-4.649 0,-14.76255 -0.57356,0 c -19.44655,0.0178 -44.85342,0.003 -78.92333,-0.0224 -32.51475,-0.024 -57.20747,-0.0509 -76.39382,-0.0986 l -0.5758,-0.002 z m 1.14713,1.14937 c 19.12562,0.0471 43.5526,0.0748 75.82249,0.0986 33.82239,0.025 58.95694,0.0396 78.34976,0.0224 l 0,13.248 -3.12099,4.34877 c -10.59124,14.75933 -28.47119,27.77991 -45.83136,33.37875 -13.26732,4.27886 -30.43579,5.45632 -43.72531,3.00001 -23.33269,-4.31261 -44.88063,-17.90789 -58.33327,-36.79325 l -0.002,0 -3.15907,-4.43392 0,-12.86934 z"
           id="path3415"
           inkscape:connector-curvature="0" />
      </g>
    </g>
  </g>
</svg>
