<?xml version="1.0" encoding="UTF-8" standalone="no"?>
<!-- Created with Inkscape (http://www.inkscape.org/) -->

<svg
   xmlns:dc="http://purl.org/dc/elements/1.1/"
   xmlns:cc="http://creativecommons.org/ns#"
   xmlns:rdf="http://www.w3.org/1999/02/22-rdf-syntax-ns#"
   xmlns:svg="http://www.w3.org/2000/svg"
   xmlns="http://www.w3.org/2000/svg"
   xmlns:sodipodi="http://sodipodi.sourceforge.net/DTD/sodipodi-0.dtd"
   xmlns:inkscape="http://www.inkscape.org/namespaces/inkscape"
   width="1550"
   height="500"
   viewBox="0 0 1549.9999 500"
   id="svg3438"
   version="1.1"
   inkscape:version="0.92.4 (5da689c313, 2019-01-14)"
   sodipodi:docname="ripolab_1500x500.svg"
   inkscape:export-filename="/home/akirasan/Documentos/Github_ripolab/Logos/ripolab_1500x500.png"
   inkscape:export-xdpi="100"
   inkscape:export-ydpi="100">
  <defs
     id="defs3440" />
  <sodipodi:namedview
     id="base"
     pagecolor="#ffffff"
     bordercolor="#666666"
     borderopacity="1.0"
     inkscape:pageopacity="0.0"
     inkscape:pageshadow="2"
     inkscape:zoom="0.7"
     inkscape:cx="871.11226"
     inkscape:cy="171.68449"
     inkscape:document-units="px"
     inkscape:current-layer="layer1"
     showgrid="false"
     units="px"
     inkscape:window-width="1860"
     inkscape:window-height="1016"
     inkscape:window-x="60"
     inkscape:window-y="27"
     inkscape:window-maximized="1" />
  <metadata
     id="metadata3443">
    <rdf:RDF>
      <cc:Work
         rdf:about="">
        <dc:format>image/svg+xml</dc:format>
        <dc:type
           rdf:resource="http://purl.org/dc/dcmitype/StillImage" />
        <dc:title></dc:title>
      </cc:Work>
    </rdf:RDF>
  </metadata>
  <g
     inkscape:label="Capa 1"
     inkscape:groupmode="layer"
     id="layer1"
     transform="translate(0,-552.36216)">
    <text
       xml:space="preserve"
       style="font-style:normal;font-weight:normal;line-height:0%;font-family:sans-serif;letter-spacing:0px;word-spacing:0px;fill:#000000;fill-opacity:1;stroke:none;stroke-width:1px;stroke-linecap:butt;stroke-linejoin:miter;stroke-opacity:1"
       x="501.15295"
       y="800.77338"
       id="text3471"><tspan
         sodipodi:role="line"
         id="tspan3473"
         x="501.15295"
         y="800.77338"
         style="font-style:normal;font-variant:normal;font-weight:normal;font-stretch:normal;font-size:267.5697937px;line-height:1.25;font-family:'Share Tech Mono';-inkscape-font-specification:'Share Tech Mono'">RipoLab</tspan></text>
    <text
       xml:space="preserve"
       style="font-style:normal;font-weight:normal;font-size:29.2743454px;line-height:0%;font-family:sans-serif;letter-spacing:0px;word-spacing:0px;fill:#000000;fill-opacity:1;stroke:none;stroke-width:2.4395287px;stroke-linecap:butt;stroke-linejoin:miter;stroke-opacity:1"
       x="483.41431"
       y="1022.117"
       id="text3475"><tspan
         sodipodi:role="line"
         x="483.41431"
         y="1022.117"
         style="font-style:normal;font-variant:normal;font-weight:normal;font-stretch:normal;font-size:273.19580078px;line-height:1.25;font-family:'Share Tech Mono';-inkscape-font-specification:'Share Tech Mono';stroke-width:2.4395287px"
         id="tspan3546">Hacklab </tspan></text>
    <g
       id="g3552"
       transform="matrix(1.0666134,0,0,1.0666134,30.428367,-40.304191)">
      <path
         style="fill:#000000;stroke-width:0.94907176"
         d="m 26.034502,584.01169 c -5.522765,-0.0941 -11.138266,2.04808 -15.345912,6.61284 -9.6323142,10.44991 -6.8278942,25.86043 5.943556,32.65312 4.073761,2.16532 13.341181,2.07376 17.877031,-0.17732 l 3.624445,-1.7955 2.68353,3.22011 c 1.47487,1.77271 12.08418,14.11438 23.575439,27.42508 l 20.891887,24.19846 -7.507272,7.71901 c -7.056046,7.25295 -7.504016,7.95928 -7.500686,11.86076 0.004,5.03264 0.83906,6.43373 13.146058,22.08452 5.29504,6.73369 9.627635,12.54756 9.627635,12.91412 0,0.36656 -2.07739,5.10789 -4.618345,10.5353 -2.541,5.42741 -5.803924,13.49344 -7.248868,17.9301 -1.44499,4.43702 -2.725944,8.19305 -2.849224,8.34213 -0.12339,0.15197 -7.430426,1.11848 -16.240425,2.14686 -19.611569,2.28871 -22.345399,3.00337 -25.443959,6.68553 l -2.438385,2.9024 v 29.7243 29.7243 l 2.703435,2.8891 c 3.24436,3.473 3.59746,3.5729 21.024374,5.778 6.429305,0.8138 12.668544,1.2498 35.581847,1.4973 v 9.9259 c -0.28695,-0.054 -0.47045,-0.061 -0.47045,0.054 0,0.1593 0.17948,0.654 0.47045,1.365 v 0.1447 h 0.0662 c 0.84445,2.0398 2.62848,5.8371 4.724365,9.9719 l 5.267682,10.383 -3.723842,4.8835 c -2.046925,2.6879 -7.610565,9.8001 -12.36414,15.8032 -4.753614,6.0028 -8.651782,11.78 -8.660252,12.841 -0.0109,1.2563 6.554052,8.4716 18.811307,20.6733 15.294827,15.2252 19.172497,18.6162 20.646687,18.056 0.99809,-0.3792 8.74012,-6.1844 17.2078,-12.8942 l 15.39888,-12.1987 8.80601,4.7048 c 9.30599,4.9704 24.14816,10.8284 32.06333,12.6554 2.60541,0.6013 4.73762,1.4897 4.73762,1.9745 0,0.4853 1.07755,9.7024 2.39202,20.4812 1.86259,15.2734 2.73816,19.861 3.97558,20.7858 2.4408,1.8252 52.77162,1.6949 54.29368,-0.1374 0.60566,-0.7299 2.18084,-10.2325 3.50518,-21.1173 1.32438,-10.8845 2.69565,-20.043 3.04798,-20.3484 0.35244,-0.3076 5.6117,-2.1223 11.68168,-4.0353 6.06998,-1.9131 16.05491,-6.0252 22.19058,-9.1372 l 11.15161,-5.6586 14.82241,11.6881 c 8.15197,6.4261 15.82741,12.2133 17.05543,12.8614 2.12493,1.1213 3.14489,0.2714 21.11715,-17.6186 12.29588,-12.2403 18.88111,-19.4766 18.87094,-20.733 -0.008,-1.0613 -3.90665,-6.8386 -8.66023,-12.8414 -4.75364,-6.0027 -10.31721,-13.115 -12.36417,-15.8028 l -3.72381,-4.8835 5.26769,-10.383 c 2.09584,-4.1352 3.87988,-7.9321 4.72437,-9.9722 h 0.66258 v -11.3039 c 21.16289,-0.2388 26.21372,-0.7303 33.81925,-1.67 8.71389,-1.0764 17.26086,-2.6248 18.99022,-3.4455 5.74052,-2.7236 5.90375,-3.7405 5.90375,-35.7607 v -28.9224 l -2.43837,-2.9021 c -3.09525,-3.67854 -5.80649,-4.3932 -25.47043,-6.71881 -8.82636,-1.04394 -16.13355,-2.00466 -16.2404,-2.14035 -0.10675,-0.13389 -1.37772,-3.87217 -2.8227,-8.30883 -1.44494,-4.43739 -4.70787,-12.50957 -7.24886,-17.93698 -2.541,-5.42704 -4.61835,-10.18322 -4.61835,-10.56823 0,-0.38501 4.91344,-6.98844 10.91966,-14.67018 6.00628,-7.68211 11.18155,-15.01322 11.50283,-16.29345 1.31128,-5.22477 -0.31952,-9.0148 -6.65253,-15.45829 l -6.11587,-6.22203 21.37561,-24.67538 c 11.75482,-13.5716 22.57736,-26.12965 24.05248,-27.902 l 2.68353,-3.22048 3.20702,1.52412 c 10.03537,4.76197 20.80446,1.8089 26.72935,-7.32857 2.07688,-3.20276 2.45827,-4.86907 2.45827,-10.78029 0,-7.85651 -0.66255,-9.60823 -5.56585,-14.73639 -9.48007,-9.91473 -26.36746,-7.06913 -32.64646,5.49978 -2.45353,4.91104 -2.86303,10.15572 -1.1463,14.77584 0.85943,2.31259 1.63202,4.95193 1.71615,5.86416 0.10023,1.08736 -9.31492,9.82572 -27.35224,25.38425 l -27.51127,23.72768 -8.203,-8.16989 c -7.37967,-7.34558 -8.63186,-8.21655 -12.45036,-8.6468 -2.43801,-0.27501 -5.15577,0 -6.38085,0.66255 -1.17353,0.62782 -8.2301,5.94341 -15.67718,11.81409 l -13.53697,10.67462 -9.38249,-4.54558 c -5.15804,-2.50148 -13.53635,-5.92025 -18.62575,-7.59345 -5.0894,-1.6732 -9.26694,-3.50707 -9.27646,-4.07482 -0.0109,-0.56774 -1.04829,-9.11394 -2.31248,-18.99032 -2.23516,-17.46259 -2.37946,-18.03684 -5.2213,-20.87846 l -2.92209,-2.92231 H 229.7186 199.38464 l -3.0016,3.00155 c -2.93208,2.93209 -3.04556,3.38911 -5.21468,20.40154 -1.22056,9.57315 -2.22907,18.0886 -2.2396,18.9176 -0.0145,1.05986 -2.76618,2.40487 -9.27643,4.54522 -5.0894,1.6732 -13.50024,5.10174 -18.69205,7.61987 l -9.43546,4.57886 -12.86772,-10.13799 c -17.50659,-13.80247 -17.27735,-13.67292 -22.48212,-13.08636 -3.90933,0.44073 -5.12562,1.24803 -11.6618,7.74579 l -7.295247,7.25549 -27.292647,-23.48271 c -18.878275,-16.2403 -27.148074,-23.93363 -26.822194,-24.94681 0.25909,-0.80621 1.166795,-3.35292 2.014325,-5.66551 1.751764,-4.78042 1.263774,-9.94947 -1.437855,-15.25313 -3.59905,-7.06551 -10.544465,-10.87291 -17.64512,-10.99232 z m 126.908368,113.42451 8.72648,0.27139 8.72648,0.27138 1.42457,8.02406 1.43124,8.03093 5.89716,2.31223 5.90379,2.3126 6.99046,-4.83036 6.99047,-4.83036 6.04295,6.09576 6.0363,6.09611 -4.8635,6.96382 -4.86351,6.97071 2.48477,5.62534 c 1.36664,3.096 2.56559,5.75453 2.66366,5.91048 0.0981,0.1556 3.87669,0.95927 8.39517,1.789 l 8.21627,1.51073 -0.27175,8.64716 -0.27175,8.64029 -7.11636,1.25887 c -3.9149,0.69115 -7.58943,1.76186 -8.16325,2.37882 -0.57387,0.61659 -1.99214,3.53135 -3.15401,6.48005 l -2.11368,5.3604 4.5057,6.7851 4.51232,6.7786 -5.59899,5.6521 c -3.07679,3.1091 -5.94331,5.6517 -6.37427,5.6517 -0.43094,0 -3.61204,-1.8703 -7.06996,-4.1609 l -6.28812,-4.1677 -3.18711,1.7889 -3.18712,1.789 -0.81499,-2.1269 c -0.44823,-1.1732 -3.01083,-7.3948 -5.6984,-13.822 l -4.88999,-11.6882 2.16669,-1.80239 c 1.19177,-0.99364 2.47307,-1.84182 2.8426,-1.84182 0.36949,-0.0362 1.75411,-1.8838 3.08109,-4.1479 4.77232,-8.14347 2.23335,-18.36179 -5.72489,-23.02569 -5.29772,-3.10505 -13.05273,-3.15607 -17.55897,-0.11941 -9.94676,6.70293 -10.8765,18.6755 -2.10045,27.11388 l 4.28704,4.12113 -1.41799,3.4723 c -0.78117,1.9088 -3.23636,7.9564 -5.45321,13.4374 -2.21685,5.4809 -4.13871,10.0909 -4.27379,10.2505 -0.13497,0.1592 -1.65623,-0.5692 -3.37926,-1.6167 l -3.13411,-1.9085 -5.91706,4.2276 h -0.008 c -3.25775,2.3249 -6.48654,4.1855 -7.17598,4.1348 -1.47209,-0.1049 -10.62736,-9.6701 -10.99258,-11.483 -0.1375,-0.6827 1.62262,-3.9832 3.90937,-7.3351 l 4.15449,-6.0961 -2.55763,-6.2415 -2.55103,-6.24161 -7.99759,-1.43149 -7.991,-1.4246 v -8.54079 -8.53462 l 7.89179,-1.53715 c 4.34147,-0.84383 8.22157,-1.91129 8.62706,-2.37193 0.4055,-0.461 1.68526,-3.23206 2.84257,-6.16233 l 2.10709,-5.33405 -4.32681,-6.18875 c -2.3809,-3.40574 -4.33341,-6.78761 -4.33341,-7.51384 0,-0.7266 2.46163,-3.75168 5.46645,-6.72538 l 5.45986,-5.40678 7.34164,4.84375 7.34165,4.85025 5.46645,-2.3524 c 5.88652,-2.53259 6.20694,-3.11915 8.2759,-15.25311 z m 137.61597,0.94733 8.72647,0.27138 8.72648,0.27139 1.42461,8.03093 1.42458,8.02406 5.90382,2.31259 5.90379,2.31223 6.99046,-4.83036 6.99046,-4.83035 6.0363,6.09611 6.04296,6.09575 -4.8635,6.9642 -4.86351,6.97034 2.48477,5.6257 c 1.36663,3.09601 2.56559,5.75416 2.66362,5.91048 0.0981,0.1556 3.87674,0.95927 8.39521,1.789 l 8.20969,1.51073 -0.26488,8.6468 -0.27175,8.64716 -7.12301,1.25237 c -3.91491,0.69077 -7.58278,1.76186 -8.15661,2.37845 -0.57386,0.61695 -1.99879,3.53202 -3.16066,6.48042 l -2.10706,5.3669 4.5057,6.7786 4.51233,6.7786 -5.59901,5.6517 c -3.07678,3.1094 -5.94326,5.6587 -6.37422,5.6587 -0.43093,0 -3.61208,-1.8769 -7.07,-4.1679 l -6.28807,-4.1609 -3.18715,1.789 -3.18712,1.7891 -0.81496,-2.1335 c -0.44823,-1.1732 -3.01086,-7.3945 -5.6984,-13.8221 l -4.89002,-11.6816 2.16673,-1.8089 c 1.19172,-0.99364 2.47307,-1.84219 2.84256,-1.84219 0.36948,-0.0361 1.75411,-1.8838 3.08109,-4.1479 4.77231,-8.14347 2.23338,-18.36142 -5.72489,-23.02533 -5.29769,-3.10541 -13.05274,-3.15607 -17.55899,-0.11941 -9.94675,6.7033 -10.87649,18.67552 -2.10043,27.11353 l 4.28703,4.1215 -1.41799,3.4719 c -0.78112,1.9088 -3.23636,7.9568 -5.45321,13.4378 -2.21684,5.4806 -4.13871,10.0909 -4.27379,10.2505 -0.13497,0.1592 -1.65623,-0.5688 -3.37925,-1.6167 l -3.13415,-1.9019 -5.92365,4.2274 c -3.25774,2.3246 -6.48655,4.1856 -7.17598,4.1346 -1.47208,-0.105 -10.62735,-9.6636 -10.99258,-11.4762 -0.13749,-0.6827 1.62262,-3.9894 3.90934,-7.3416 l 4.15449,-6.0892 -2.55764,-6.2484 -2.55764,-6.24161 -7.99098,-1.43148 -7.99764,-1.42461 v -8.53427 -8.54078 l 7.89824,-1.53063 c 4.34149,-0.8442 8.22159,-1.91817 8.62708,-2.37881 0.40549,-0.461 1.68525,-3.23133 2.84256,-6.16233 l 2.1071,-5.32718 -4.33342,-6.19526 c -2.38092,-3.4061 -4.32681,-6.78724 -4.32681,-7.5142 0,-0.72624 2.46164,-3.75168 5.46645,-6.72537 l 5.45987,-5.40678 7.34164,4.85025 7.34164,4.84374 5.46645,-2.35239 c 5.88653,-2.5326 6.20032,-3.11229 8.26928,-15.24625 z M 142.2617,860.37031 h 174.96026 l -2.37874,3.3127 c -12.23473,17.0501 -32.80374,32.0373 -52.85581,38.5039 -15.32791,4.9436 -35.06517,6.2923 -50.43069,3.4525 -26.91086,-4.9745 -51.74483,-20.6353 -67.26746,-42.4268 z"
         id="path1382"
         inkscape:connector-curvature="0" />
    </g>
  </g>
</svg>
