<?xml version="1.0" encoding="UTF-8" standalone="no"?>
<svg
   xmlns:dc="http://purl.org/dc/elements/1.1/"
   xmlns:cc="http://creativecommons.org/ns#"
   xmlns:rdf="http://www.w3.org/1999/02/22-rdf-syntax-ns#"
   xmlns:svg="http://www.w3.org/2000/svg"
   xmlns="http://www.w3.org/2000/svg"
   xmlns:sodipodi="http://sodipodi.sourceforge.net/DTD/sodipodi-0.dtd"
   xmlns:inkscape="http://www.inkscape.org/namespaces/inkscape"
   version="1.1"
   id="svg3438"
   viewBox="0 0 655.51112 655.51114"
   height="185mm"
   width="185mm"
   inkscape:version="0.91 r13725"
   sodipodi:docname="ripolab_camiseta.svg">
  <sodipodi:namedview
     pagecolor="#ffffff"
     bordercolor="#666666"
     borderopacity="1"
     objecttolerance="10"
     gridtolerance="10"
     guidetolerance="10"
     inkscape:pageopacity="0"
     inkscape:pageshadow="2"
     inkscape:window-width="1858"
     inkscape:window-height="1053"
     id="namedview69386"
     showgrid="false"
     inkscape:zoom="0.78223688"
     inkscape:cx="286.98868"
     inkscape:cy="287.10273"
     inkscape:window-x="62"
     inkscape:window-y="27"
     inkscape:window-maximized="1"
     inkscape:current-layer="layer4"
     units="mm"
     fit-margin-top="0"
     fit-margin-left="0"
     fit-margin-right="0"
     fit-margin-bottom="0"
     inkscape:document-units="mm"
     borderlayer="false" />
  <defs
     id="defs3440" />
  <metadata
     id="metadata3443">
    <rdf:RDF>
      <cc:Work
         rdf:about="">
        <dc:format>image/svg+xml</dc:format>
        <dc:type
           rdf:resource="http://purl.org/dc/dcmitype/StillImage" />
        <dc:title />
      </cc:Work>
    </rdf:RDF>
  </metadata>
  <g
     inkscape:groupmode="layer"
     id="layer4"
     inkscape:label="camiseta"
     style="display:inline"
     transform="translate(-4.2263186,487.95683)">
    <rect
       style="opacity:1;fill:#000000;fill-opacity:1;stroke:#000000;stroke-width:0.1;stroke-linecap:round;stroke-linejoin:bevel;stroke-miterlimit:4;stroke-dasharray:none;stroke-dashoffset:0;stroke-opacity:1"
       id="rect4159"
       width="893.10638"
       height="755.70544"
       x="-104.21223"
       y="-530.59235" />
  </g>
  <g
     inkscape:groupmode="layer"
     id="layer2"
     inkscape:label="Layer 1"
     style="display:inline"
     transform="translate(-4.2263186,487.95683)">
    <path
       style="fill:#ffffff;fill-opacity:1;stroke:#000000;stroke-width:1.77165353;stroke-miterlimit:4;stroke-dasharray:none;stroke-opacity:1"
       d="m 109.31625,-422.57786 c -25.409036,-0.92954 -43.306961,32.20817 -28.626914,52.91792 7.362928,11.15344 21.591144,16.86014 34.667924,14.72459 7.75554,9.70875 16.83827,18.31859 24.05857,28.4609 -8.94611,10.21533 -9.12534,26.71503 0.0371,36.8652 3.32734,4.59885 7.52756,8.51837 10.56054,13.33592 -2.52397,5.04579 -4.40597,10.69886 -6.63085,15.66991 -14.04701,0.68118 -31.13568,2.76559 -39.29488,15.82615 -6.556746,12.91941 -1.67286,27.94461 -2.79687,41.70894 -0.91884,11.78207 -1.985098,26.77227 8.57616,34.80856 12.33486,9.04018 29.0366,7.36684 42.83589,8.93358 -0.3421,6.00228 3.73178,11.31484 6.10937,16.35546 -7.45544,9.23584 -17.14582,18.37522 -18.91209,30.67183 0.51642,9.20816 8.35895,15.73637 13.86327,22.353503 8.28547,8.107011 16.54168,16.359792 25.2988,23.886694 9.41124,5.806174 21.93862,2.649397 29.10544,-5.257804 4.1318,-3.354707 7.84766,-7.118723 12.37889,-9.96679 7.54513,3.928816 15.45511,7.135673 23.54099,9.76757 1.20721,12.750996 0.83852,28.37303 11.72069,37.3066 14.04528,7.074803 30.12909,2.325308 45.08394,3.765616 9.34995,0.0993 21.80865,-1.288879 25.31637,-11.628887 3.98577,-9.34691 3.53614,-19.765519 5.00782,-29.568329 8.10362,-2.754837 16.07275,-5.931063 23.76169,-9.697259 9.74924,7.887871 20.08819,19.394669 33.81441,18.21678 15.36964,-4.564975 22.93937,-20.185988 35.08591,-29.400358 7.21636,-6.720093 14.28553,-17.558766 9.20897,-27.474586 -3.70403,-8.93516 -11.38858,-15.28941 -16.63084,-23.21286 3.06629,-5.03634 5.66933,-10.63563 5.86132,-16.62499 15.71753,-0.4527 34.70133,0.19347 46.25776,-12.49608 9.2878,-12.73928 3.94219,-29.32207 5.53905,-43.78511 0.70618,-12.36035 1.43019,-28.10143 -9.79491,-36.28121 -9.42945,-6.75748 -21.54246,-7.01828 -32.61715,-8.16405 -1.54179,-5.57023 -4.74018,-10.48635 -6.57225,-15.94725 8.7819,-10.4118 20.18124,-23.02403 16.78904,-37.82613 -1.00391,-3.70173 -2.84073,-7.13683 -5.10742,-10.21484 8.55859,-9.75652 16.57133,-20.00251 25.63475,-29.30856 20.92404,3.98378 42.94829,-15.96138 39.32416,-37.38863 -1.26628,-23.46217 -31.94967,-39.10583 -51.30072,-25.19138 -11.39412,7.0476 -18.21532,21.19913 -15.82029,34.4941 -9.71887,8.34293 -18.63042,17.61697 -29.00974,25.18161 -10.20593,-10.15264 -28.10146,-11.48724 -38.9648,-1.64452 -4.75583,3.06149 -8.10581,8.96708 -13.61718,10.31444 -4.94056,-2.3958 -10.1169,-4.2493 -15.23826,-6.21093 -0.93751,-13.73482 -2.05755,-30.52146 -14.67771,-38.94918 -14.41522,-7.30496 -30.81154,-1.09517 -45.98434,-3.26757 -11.40034,-0.81582 -25.99941,-0.65518 -32.61324,10.47265 -6.08811,9.42554 -6.18309,21.06815 -7.26561,31.84175 -5.35234,2.06097 -10.93433,3.69919 -15.99999,6.49413 -10.24785,-8.87019 -22.71877,-20.26789 -37.48824,-16.98826 -4.62204,1.11339 -8.77858,3.65548 -12.39061,6.6875 -9.45026,-8.21563 -19.55808,-15.72228 -28.24411,-24.78318 3.24211,-19.64329 -13.62658,-40.3539 -33.83981,-39.78316 z m 0.53515,16.30272 c 6.19602,0.10442 12.25792,3.42451 15.39843,9.58983 2.35742,4.628 2.78249,9.13716 1.25391,13.30858 -0.73954,2.01816 -1.52975,4.24416 -1.75586,4.94727 -0.28435,0.88425 6.93115,7.59603 23.40426,21.76754 l 23.81444,20.48826 6.36717,-6.33006 c 5.70346,-5.67 6.76451,-6.3733 10.17578,-6.75781 4.54167,-0.51191 4.34292,-0.62828 19.61912,11.416 l 11.2246,8.8496 8.23631,-3.99413 c 4.53032,-2.19739 11.8715,-5.19034 16.31248,-6.65038 5.68085,-1.86769 8.07999,-3.0436 8.09179,-3.96875 0.009,-0.72323 0.88807,-8.1506 1.95313,-16.50389 1.89276,-14.84516 1.99419,-15.24612 4.55272,-17.80467 l 2.61719,-2.61718 26.47067,0 26.46872,0 2.55078,2.54882 c 2.47978,2.47979 2.6043,2.98292 4.55469,18.22069 1.10311,8.61818 2.01348,16.07481 2.02148,16.57029 0.008,0.49549 3.64884,2.09462 8.08984,3.55469 4.44098,1.46004 11.75692,4.44183 16.25779,6.62499 l 8.18358,3.96874 11.81445,-9.31445 c 6.4983,-5.1227 12.65173,-9.76247 13.67576,-10.31052 1.06902,-0.57213 3.44096,-0.81791 5.56836,-0.57813 3.332,0.37557 4.42573,1.13527 10.86522,7.54491 l 7.16015,7.12695 24.00387,-20.70311 c 15.73933,-13.57616 23.95653,-21.20134 23.86913,-22.15036 -0.0733,-0.79599 -0.74813,-3.09903 -1.49805,-5.11719 -1.49804,-4.03149 -1.14293,-8.60893 0.99805,-12.89451 5.479,-10.96737 20.21598,-13.44844 28.48825,-4.79687 4.27859,4.4748 4.8574,6.0038 4.85741,12.85936 0,5.15814 -0.33229,6.60938 -2.14453,9.40429 -5.17006,7.97342 -14.56929,10.54993 -23.32614,6.39452 l -2.79883,-1.32812 -2.33985,2.8125 c -1.28716,1.54682 -10.73295,12.50107 -20.9902,24.34372 l -18.65037,21.53318 5.33788,5.42968 c 5.52616,5.6227 6.94889,8.92935 5.80468,13.48827 -0.2804,1.11719 -4.79802,7.51563 -10.03905,14.21873 -5.24102,6.70312 -9.52928,12.46282 -9.52928,12.79882 0,0.33601 1.81397,4.48478 4.03124,9.22069 2.21725,4.73593 5.06334,11.77875 6.32421,15.65037 1.26089,3.87163 2.36959,7.13657 2.46289,7.25391 0.0933,0.11734 6.47001,0.95819 14.17186,1.86913 17.15869,2.02947 19.52371,2.65345 22.22458,5.86328 l 2.13086,2.53319 0,25.23631 c 0,27.94064 -0.14522,28.82419 -5.15429,31.20113 -1.50899,0.71607 -8.96461,2.07022 -16.56835,3.00977 -13.4894,1.66682 -17.13692,1.70572 -150.29476,1.60742 -127.10037,-0.0938 -137.29451,-0.20402 -148.47835,-1.61914 -15.20669,-1.92416 -15.51465,-2.01039 -18.34569,-5.04101 l -2.35936,-2.52344 0,-25.93551 0,-25.93553 2.1328,-2.53319 c 2.70379,-3.21329 5.08426,-3.8409 22.19725,-5.83789 7.68757,-0.89709 14.06622,-1.73752 14.1738,-1.86913 0.10758,-0.13162 1.22545,-3.40767 2.48633,-7.2793 1.26087,-3.87162 4.10696,-10.91444 6.32422,-15.65037 2.21723,-4.73591 4.03124,-8.87151 4.03124,-9.1914 0,-0.31988 -3.77995,-5.38973 -8.40038,-11.26561 -10.73904,-13.65698 -11.46669,-14.88216 -11.47069,-19.27342 -0.003,-3.40443 0.38785,-4.02277 6.54492,-10.35155 l 6.54882,-6.73046 -18.2324,-21.11912 c -10.02725,-11.6149 -19.28336,-22.38284 -20.5703,-23.92966 l -2.33984,-2.8125 -3.1621,1.57031 c -3.95798,1.96575 -12.04678,2.0469 -15.60155,0.15625 -11.14431,-5.92723 -13.592623,-19.37757 -5.187486,-28.49606 3.671546,-3.98318 8.571486,-5.84877 13.390596,-5.76757 z m 110.74207,98.9706 -0.53515,3.13671 c -1.80537,10.5882 -2.0822,11.09864 -7.21875,13.30858 l -4.76952,2.05078 -6.40624,-4.23046 -6.40625,-4.23047 -4.76561,4.71875 c -2.62201,2.59464 -4.76758,5.23513 -4.76758,5.86913 0,0.63399 1.69979,3.58466 3.77734,6.55663 l 3.77734,5.4043 -1.83593,4.64843 c -1.00985,2.55735 -2.12663,4.97877 -2.48047,5.38086 -0.35384,0.40209 -3.74286,1.33367 -7.53124,2.0703 l -6.88867,1.33984 0,7.44921 0,7.44922 6.97656,1.24608 6.9746,1.2461 2.23242,5.44922 2.23046,5.44725 -1.24999,1.83203 27.38278,0 c 0.69024,-1.70039 1.73333,-4.28137 2.02343,-4.99022 l 1.24024,-3.02734 -3.74023,-3.59766 c -7.65797,-7.36322 -6.85137,-17.81103 1.82813,-23.66013 3.93212,-2.64987 10.69949,-2.60365 15.32224,0.10547 6.94433,4.06964 9.16234,12.98591 4.99804,20.09178 -1.15792,1.97582 -2.36899,3.60393 -2.6914,3.61913 -0.32242,0.0152 -1.43663,0.73831 -2.47656,1.60547 l -1.89063,1.57617 3.46094,8.27733 27.42185,0 -1.14063,-1.71484 1.84375,-4.67772 c 1.01383,-2.57305 2.25317,-5.12002 2.7539,-5.65821 0.50073,-0.53818 3.70494,-1.47115 7.12109,-2.07422 l 6.21288,-1.09569 0.23633,-7.54492 0.23633,-7.54296 -7.16991,-1.31641 c -3.94282,-0.72398 -7.23862,-1.42761 -7.32422,-1.56249 -0.0856,-0.13487 -1.12972,-2.45475 -2.32226,-5.15625 l -2.16992,-4.9121 4.2461,-6.08007 4.24413,-6.07812 -5.27148,-5.32031 -5.27148,-5.31835 -6.09765,4.2168 -6.09961,4.21483 -5.15038,-2.01758 -5.15038,-2.01952 -1.24609,-7.00391 -1.24414,-7.00585 -7.61523,-0.23828 -7.61328,-0.23632 z m 120.08191,0.82812 -0.53516,3.13672 c -1.80537,10.5882 -2.08219,11.09863 -7.21874,13.30857 l -4.76953,2.05078 -6.40428,-4.23046 -6.40625,-4.23046 -4.76757,4.71874 c -2.62201,2.59465 -4.76758,5.23514 -4.76758,5.86914 0,0.63399 1.69978,3.58465 3.77734,6.55663 l 3.77735,5.40429 -1.83594,4.64843 c -1.00985,2.55737 -2.12467,4.97876 -2.47851,5.38085 -0.35384,0.40208 -3.74481,1.33369 -7.5332,2.07031 l -6.88671,1.33985 0,7.44921 0,7.44922 6.9746,1.24608 6.97655,1.24609 2.23047,5.44922 2.23243,5.44726 -0.68555,1.0039 27.15231,0 c 0.53519,-1.31766 1.44747,-3.57084 1.68946,-4.16211 l 1.23827,-3.02733 -3.74023,-3.59766 c -7.65796,-7.3632 -6.84941,-17.81102 1.83008,-23.66012 3.93212,-2.64986 10.69754,-2.60365 15.32029,0.10547 6.94433,4.06964 9.16235,12.98591 4.99804,20.09177 -1.15791,1.97583 -2.36899,3.60393 -2.6914,3.61913 -0.32241,0.0152 -1.43664,0.73831 -2.47656,1.60547 l -1.89062,1.57617 3.11523,7.44921 27.21872,0 -0.58984,-0.88672 1.84375,-4.67772 c 1.01383,-2.57304 2.25315,-5.12002 2.7539,-5.6582 0.50072,-0.53818 3.70493,-1.47116 7.12109,-2.07422 l 6.21092,-1.09569 0.23633,-7.54493 0.23633,-7.54296 -7.16796,-1.3164 c -3.94281,-0.72398 -7.23861,-1.42567 -7.32421,-1.56055 -0.0855,-0.13487 -1.13167,-2.4567 -2.32422,-5.15819 l -2.16796,-4.9121 4.24414,-6.08008 4.24608,-6.07811 -5.27343,-5.32032 -5.27148,-5.31835 -6.09765,4.2168 -6.09764,4.21483 -5.15235,-2.01757 -5.15038,-2.01953 -1.24414,-7.0039 -1.24609,-7.00585 -7.61327,-0.23828 -7.61523,-0.23633 z m -151.68539,144.98813 20.65819,0 3.39257,4.76171 c 13.54498,19.015 35.21294,32.68314 58.69525,37.0234 13.40791,2.4782 30.63267,1.29603 44.00776,-3.01758 17.49737,-5.64309 35.44507,-18.71434 46.12104,-33.59176 l 3.71485,-5.17577 20.63084,0 c 15.11748,0 20.63084,0.25788 20.63084,0.96288 0,0.52918 -2.06646,5.03712 -4.5918,10.01952 l -4.59179,9.06054 3.24804,4.26367 c 1.78615,2.34555 6.64109,8.55096 10.78905,13.78904 4.14798,5.2381 7.54768,10.28106 7.55468,11.20703 0.009,1.09623 -5.73548,7.40529 -16.46482,18.085917 -15.68254,15.611324 -16.57157,16.355553 -18.42576,15.376944 -1.07156,-0.56554 -7.76747,-5.616954 -14.88084,-11.224598 l -12.93359,-10.195313 -9.73436,4.937498 c -5.35394,2.715567 -14.06858,6.301394 -19.36522,7.970702 -5.29665,1.669308 -9.88199,3.254486 -10.18944,3.521476 -0.30745,0.26699 -1.50453,8.256141 -2.66016,17.753891 -1.15563,9.49774 -2.53399,17.788931 -3.06249,18.42576 -1.32814,1.600299 -45.24513,1.714399 -47.37495,0.12305 -1.07979,-0.806789 -1.8454,-4.807225 -3.4707,-18.13475 -1.14699,-9.40535 -2.08594,-17.447842 -2.08594,-17.871071 0,-0.42323 -1.85934,-1.197869 -4.1328,-1.722658 -6.90674,-1.594269 -19.86004,-6.707763 -27.98044,-11.044909 l -7.68358,-4.103519 -13.43554,10.644522 c -7.38888,5.854954 -14.14664,10.917089 -15.01756,11.248038 -1.28636,0.48884 -4.66545,-2.468237 -18.0117,-15.753893 -10.69564,-10.647057 -16.425,-16.941027 -16.416,-18.037087 0.007,-0.92597 3.40671,-5.96893 7.55469,-11.20703 4.14795,-5.23808 9.0029,-11.44349 10.78904,-13.78904 l 3.24804,-4.26367 -4.59178,-9.06054 c -2.52535,-4.9824 -4.5918,-9.49034 -4.5918,-10.01952 0,-0.70503 5.52008,-0.96288 20.65818,-0.96288 z"
       id="path4147"
       inkscape:connector-curvature="0" />
  </g>
  <g
     inkscape:groupmode="layer"
     id="layer1"
     inkscape:label="Layer 5"
     style="display:inline"
     transform="translate(-81.112394,-32.318944)">
    <path
       style="font-style:normal;font-variant:normal;font-weight:normal;font-stretch:normal;font-size:139.14868164px;line-height:125%;font-family:'Share Tech Mono';-inkscape-font-specification:'Share Tech Mono, Normal';text-align:start;letter-spacing:0px;word-spacing:0px;writing-mode:lr-tb;text-anchor:start;display:inline;fill:#ffffff;fill-opacity:1;stroke:#000000;stroke-width:1px;stroke-linecap:butt;stroke-linejoin:miter;stroke-opacity:1"
       d="m 170.50195,502.5918 a 7.7241659,7.7241659 0 0 0 -7.72265,7.72265 l 0,97.4043 a 7.7241659,7.7241659 0 0 0 7.72265,7.72266 l 12.10743,0 a 7.7241659,7.7241659 0 0 0 7.72265,-7.72266 l 0,-32.63086 0.89453,0 15.91211,35.76953 a 7.7241659,7.7241659 0 0 0 7.05664,4.58399 l 13.21875,0 a 7.7241659,7.7241659 0 0 0 7.03516,-10.90821 l -16.32227,-36.04882 c 2.30676,-1.69157 4.30628,-3.76697 5.84766,-6.18165 3.09425,-4.84731 4.34375,-10.65535 4.34375,-16.92187 l 0,-13.35938 c 0,-8.87937 -2.65776,-17.04386 -8.81445,-22.26562 -5.87398,-5.14684 -13.84577,-7.16406 -22.8418,-7.16406 l -26.16016,0 z m 96.16016,0 a 7.7241659,7.7241659 0 0 0 -7.72266,7.72265 l 0,12.52344 a 7.7241659,7.7241659 0 0 0 6.29102,7.58399 l -18.32617,0 a 7.7241659,7.7241659 0 0 0 -7.72266,7.72265 l 0,10.43555 a 7.7241659,7.7241659 0 0 0 7.72266,7.72265 l 12.73242,0 0,51.41602 a 7.7241659,7.7241659 0 0 0 7.72266,7.72266 l 32.42187,0 a 7.7241659,7.7241659 0 0 0 7.72266,-7.72266 l 0,-10.43555 a 7.7241659,7.7241659 0 0 0 -7.72266,-7.72265 l -12.87305,0 0,-51.41602 a 7.7241659,7.7241659 0 0 0 -6.42578,-7.61328 7.7241659,7.7241659 0 0 0 7.12305,-7.69336 l 0,-12.52344 a 7.7241659,7.7241659 0 0 0 -7.72266,-7.72265 l -13.2207,0 z m 203.87891,0 a 7.7241659,7.7241659 0 0 0 -7.72266,7.72265 l 0,10.43555 a 7.7241659,7.7241659 0 0 0 7.72266,7.72266 l 12.73242,0 0,65.33203 c -10e-6,6.06135 1.52289,11.99095 5.85156,16.14648 a 7.7241659,7.7241659 0 0 0 0.11133,0.10352 c 3.64517,3.36476 8.61613,5.38672 13.58789,5.38672 l 23.37695,0 a 7.7241659,7.7241659 0 0 0 7.72266,-7.72266 l 0,-10.43555 a 7.7241659,7.7241659 0 0 0 -7.72266,-7.72265 l -15.65429,0 0,-79.2461 a 7.7241659,7.7241659 0 0 0 -7.72266,-7.72265 l -32.2832,0 z m 152.38671,0 a 7.7241659,7.7241659 0 0 0 -7.72265,7.72265 l 0,97.4043 a 7.7241659,7.7241659 0 0 0 7.72265,7.72266 l 27.27344,0 c 9.17562,0 17.22315,-1.96524 23.02149,-7.31641 5.97162,-5.42527 8.35546,-13.60753 8.35546,-22.66992 l 0,-25.04688 c 0,-9.10718 -2.26215,-17.26822 -8.2207,-22.67187 -5.82083,-5.36987 -13.90244,-7.31446 -23.15625,-7.31445 l -5.00976,0 c -0.91547,0 -1.81372,0.087 -2.71485,0.1621 l 0,-20.26953 a 7.7241659,7.7241659 0 0 0 -7.72265,-7.72265 l -11.82618,0 z m -452.42578,7.72265 26.16016,0 c 7.8851,0 13.82161,1.76201 17.81055,5.28711 4.0817,3.43234 6.12304,8.90589 6.12304,16.41992 l 0,13.35743 c 0,10.48254 -4.1745,17.02365 -12.52343,19.62109 l 19.34179,42.71875 -13.21875,0 -17.95117,-40.35352 -13.63672,0 0,40.35352 -12.10547,0 0,-97.4043 z m 96.16016,0 13.21875,0 0,12.52344 -13.21875,0 0,-12.52344 z m 203.87891,0 32.2832,0 0,82.79297 c 0,1.48426 0.37115,2.55181 1.11328,3.20117 0.74213,0.64936 1.99526,0.97266 3.75781,0.97266 l 18.50586,0 0,10.4375 -23.37695,0 c -3.15404,0 -5.9377,-1.11346 -8.34961,-3.33984 -2.31915,-2.22639 -3.47852,-5.75235 -3.47852,-10.57618 l 0,-73.05273 -20.45507,0 0,-10.43555 z m 152.38671,0 11.82618,0 0,30.61133 c 2.78297,-1.85532 6.26303,-2.7832 10.4375,-2.7832 l 5.00976,0 c 8.1634,0 14.14582,1.76396 17.94922,5.28906 3.8034,3.43234 5.70508,9.09146 5.70508,16.97656 l 0,25.04492 c 0,7.79234 -1.94758,13.45146 -5.84375,16.97657 -3.8034,3.5251 -9.73992,5.28906 -17.81055,5.28906 l -27.27344,0 0,-97.4043 z M 182.60742,520.75 l 0,36.17773 15.72461,0 c 3.5251,0 6.07532,-0.78821 7.65235,-2.36523 1.66978,-1.66979 2.50585,-4.26591 2.50585,-7.79102 l 0,-16.00195 c 0,-3.5251 -0.83607,-6.07728 -2.50585,-7.6543 -1.57703,-1.57702 -4.12725,-2.36523 -7.65235,-2.36523 l -15.72461,0 z m 7.72461,7.72266 8,0 c 1.38512,0 2.00282,0.17562 2.23047,0.24414 0.0707,0.24654 0.20508,0.83558 0.20508,2.05273 l 0,16.00195 c 0,1.3185 -0.15274,1.93045 -0.24414,2.20313 -0.2762,0.0791 -0.91568,0.23242 -2.19141,0.23242 l -8,0 0,-20.73437 z m 132.55664,1.94922 a 7.7241659,7.7241659 0 0 0 -7.72265,7.72265 l 0,93.23047 a 7.7241659,7.7241659 0 0 0 7.72265,7.72266 l 11.82617,0 a 7.7241659,7.7241659 0 0 0 7.72266,-7.72266 l 0,-15.93359 7.72266,0 c 9.17561,0 17.22413,-1.96435 23.02343,-7.31641 5.97162,-5.42527 8.35547,-13.60753 8.35547,-22.66992 l 0,-25.04688 c 0,-9.10718 -2.26215,-17.26822 -8.2207,-22.67187 -5.8218,-5.37075 -13.90439,-7.31446 -23.1582,-7.31445 l -5.00782,0 c -2.54112,0 -5.02621,0.34898 -7.41211,0.96484 a 7.7241659,7.7241659 0 0 0 -3.7207,-0.96484 l -11.13086,0 z m 98.10742,0 c -9.19479,0 -17.26749,1.97824 -23.13086,7.2832 a 7.7241659,7.7241659 0 0 0 -0.0684,0.0625 c -5.88459,5.454 -8.17774,13.59171 -8.17774,22.64062 l 0,25.04688 c 0,9.04891 2.29315,17.18663 8.17774,22.64062 a 7.7241659,7.7241659 0 0 0 0.0684,0.0625 c 5.86337,5.30496 13.93607,7.28321 23.13086,7.28321 l 4.5918,0 c 9.17562,0 17.22315,-1.96524 23.02149,-7.31641 5.97068,-5.42441 8.35742,-13.60624 8.35742,-22.66992 l 0,-25.04688 c 0,-9.06367 -2.38674,-17.2455 -8.35742,-22.66992 -5.79834,-5.35117 -13.84587,-7.31641 -23.02149,-7.3164 l -4.5918,0 z m 129.70313,0 a 7.7241659,7.7241659 0 0 0 -7.72266,7.72265 l 0,10.43555 a 7.7241659,7.7241659 0 0 0 7.72266,7.72265 l 21.56836,0 c 2.24991,0 2.73769,0.48354 2.64258,0.39844 0.004,0.004 0.007,0.16832 0.0117,0.15821 l -9.47266,0 c -8.13856,0 -15.71174,2.35472 -20.85938,7.82031 -5.14763,5.46558 -7.17773,13.06907 -7.17773,21.4707 l 0,2.7832 c 0,8.04711 1.83416,15.38039 7.25,20.31836 a 7.7241659,7.7241659 0 0 0 0.17773,0.15625 c 5.3444,4.58091 12.40472,6.03321 20.47071,6.03321 l 12.38476,0 c 2.87133,0 5.75869,-0.76811 8.36133,-2.09571 0.0388,0.0211 0.0704,0.0534 0.10938,0.0742 a 7.7241659,7.7241659 0 0 0 0.18164,0.0937 c 2.23218,1.11609 4.69764,1.92774 7.48828,1.92774 l 7.65429,0 a 7.7241659,7.7241659 0 0 0 7.72266,-7.72266 l 0,-9.74023 a 7.7241659,7.7241659 0 0 0 -6.95898,-7.67774 l 0,-29.89258 c 0,-9.06239 -2.38385,-17.24465 -8.35547,-22.66992 -5.79834,-5.35117 -13.84586,-7.31641 -23.02149,-7.3164 l -20.17773,0 z m -303.79492,7.7207 32.28125,0 0,59.13867 20.59375,0 0,10.4375 -32.42188,0 0,-59.13867 -20.45312,0 0,-10.4375 z m 75.98242,0 11.13281,0 0,3.33984 c 2.87574,-2.22638 6.58533,-3.33984 11.13086,-3.33984 l 5.00977,0 c 8.16339,0 14.14777,1.76396 17.95117,5.28906 3.8034,3.43234 5.70508,9.09146 5.70508,16.97656 l 0,25.04492 c 0,7.79234 -1.94954,13.45146 -5.84571,16.97657 -3.8034,3.5251 -9.73991,5.28906 -17.81054,5.28906 l -15.44532,0 0,23.6543 -11.82812,0 0,-93.23047 z m 98.10937,0 4.5918,0 c 8.07063,0 14.00715,1.76396 17.81055,5.28906 3.89616,3.5251 5.8457,9.18423 5.8457,16.97656 l 0,25.04492 c 0,7.79234 -1.94954,13.45146 -5.8457,16.97657 -3.8034,3.5251 -9.73992,5.28906 -17.81055,5.28906 l -4.5918,0 c -8.07063,0 -14.055,-1.76396 -17.95117,-5.28906 -3.8034,-3.52511 -5.70508,-9.18423 -5.70508,-16.97657 l 0,-25.04492 c 0,-7.79233 1.90168,-13.45146 5.70508,-16.97656 3.89617,-3.5251 9.88054,-5.28906 17.95117,-5.28906 z m 129.70313,0 20.17773,0 c 8.07064,0 14.00715,1.76396 17.81055,5.28906 3.89617,3.5251 5.84375,9.18423 5.84375,16.97656 l 0,33.39453 c 0,1.39149 0.51083,2.45905 1.53125,3.20118 1.11319,0.64936 2.92306,0.97265 5.42773,0.97265 l 0,9.74219 -7.65429,0 c -1.20596,0 -2.5509,-0.37115 -4.03516,-1.11328 -1.39149,-0.74213 -2.59676,-1.76378 -3.61719,-3.0625 -2.13361,2.78298 -4.96317,4.17578 -8.48828,4.17578 l -12.38476,0 c -7.05021,0 -12.19851,-1.3928 -15.44532,-4.17578 -3.15404,-2.87574 -4.73046,-7.7447 -4.73046,-14.60938 l 0,-2.7832 c 0,-14.37871 6.77063,-21.56836 20.31445,-21.56836 l 17.25586,0 0,-6.95703 c 0,-2.87574 -0.88198,-5.10267 -2.64453,-6.67969 -1.76255,-1.57702 -4.36063,-2.36523 -7.79297,-2.36523 l -21.56836,0 0,-10.4375 z m -206.93945,10.4375 c -3.06128,0 -5.33411,0.83412 -6.81836,2.5039 -1.48426,1.57702 -2.22657,3.29312 -2.22657,5.14844 l 0,41.04883 16.83789,0 c 3.43234,0 6.02847,-0.78821 7.79102,-2.36523 1.76255,-1.57702 2.64453,-3.80395 2.64453,-6.67969 l 0,-30.61133 c 0,-2.87574 -0.88198,-5.10267 -2.64453,-6.67969 -1.76255,-1.57702 -4.35868,-2.36523 -7.79102,-2.36523 l -7.79296,0 z m 75.8457,0 c -3.43234,0 -6.03042,0.78821 -7.79297,2.36523 -1.76255,1.57702 -2.64453,3.80395 -2.64453,6.67969 l 0,30.61133 c 0,2.87574 0.88198,5.10267 2.64453,6.67969 1.76255,1.57702 4.36063,2.36523 7.79297,2.36523 l 7.37305,0 c 3.43233,0 6.03041,-0.78821 7.79296,-2.36523 1.76256,-1.57702 2.64454,-3.80395 2.64454,-6.67969 l 0,-30.61133 c 0,-2.87574 -0.88198,-5.10267 -2.64454,-6.67969 -1.76255,-1.57702 -4.36063,-2.36523 -7.79296,-2.36523 l -7.37305,0 z m 224.19336,0 c -3.06128,0 -5.33411,0.83412 -6.81836,2.5039 -1.48426,1.57702 -2.22656,3.29312 -2.22656,5.14844 l 0,41.04883 16.83789,0 c 3.43233,0 6.03041,-0.78821 7.79297,-2.36523 1.76255,-1.57702 2.64257,-3.80395 2.64257,-6.67969 l 0,-30.61133 c 0,-2.87574 -0.88002,-5.10267 -2.64257,-6.67969 -1.76256,-1.57702 -4.36064,-2.36523 -7.79297,-2.36523 l -7.79297,0 z m -300.03906,7.72265 7.79296,0 c 2.24991,0 2.73362,0.48165 2.64063,0.39844 0.0241,0.0216 0.0723,-0.37275 0.0723,0.92383 l 0,30.61328 c 0,1.29659 -0.0482,0.90226 -0.0723,0.92383 0.093,-0.0832 -0.39072,0.39844 -2.64063,0.39844 l -9.11523,0 0,-33.08008 c 0.0293,-0.0184 0.005,0.0305 0.12891,-0.10156 a 7.7241659,7.7241659 0 0 0 0.0137,-0.0156 c 0.12136,-0.02 0.42749,-0.0606 1.17969,-0.0606 z m 75.8457,0 7.375,0 c 2.24991,0 2.73362,0.48166 2.64062,0.39844 0.0241,0.0216 0.0723,-0.37275 0.0723,0.92383 l 0,30.61328 c 0,1.29659 -0.0482,0.90226 -0.0723,0.92383 0.093,-0.0832 -0.39071,0.39844 -2.64062,0.39844 l -7.375,0 c -2.24992,0 -2.73769,-0.48354 -2.64258,-0.39844 -0.0241,-0.0216 -0.0723,0.37276 -0.0723,-0.92383 l 0,-30.61328 c 0,-1.29658 0.0482,-0.90226 0.0723,-0.92383 -0.0951,0.0851 0.39266,-0.39844 2.64258,-0.39844 z m 224.19336,0 7.79297,0 c 2.24991,0 2.73769,0.48354 2.64258,0.39844 0.022,0.0197 0.0703,-0.37626 0.0703,0.92383 l 0,30.61328 c 0,1.3001 -0.0483,0.90416 -0.0703,0.92383 0.0951,-0.0851 -0.39267,0.39844 -2.64258,0.39844 l -9.11524,0 0,-33.08008 c 0.0293,-0.0184 0.005,0.0305 0.12891,-0.10156 a 7.7241659,7.7241659 0 0 0 0.0137,-0.0156 c 0.12136,-0.02 0.4275,-0.0606 1.17969,-0.0606 z m -78.48828,18.71485 c -2.41192,0 -4.4054,0.78821 -5.98243,2.36523 -1.57702,1.57702 -2.36718,3.57246 -2.36718,5.98438 l 0,6.95703 c 0,2.41191 0.55673,4.17392 1.66992,5.28711 1.11319,1.11319 2.87715,1.66992 5.28906,1.66992 l 12.38281,0 c 2.78298,0 4.54694,-0.64854 5.28907,-1.94727 0.74212,-1.29872 1.11328,-2.96891 1.11328,-5.00976 l 0,-15.30664 -17.39453,0 z m -0.46485,7.70703 c 0.016,-0.003 0.10023,0.0176 0.46485,0.0176 l 9.67187,0 0,6.81836 -10.29883,0 0,-6.19336 c 0,-0.72507 -0.0825,-0.33351 0.10547,-0.52149 0.0928,-0.0928 0.0406,-0.11842 0.0566,-0.12109 z"
       transform="scale(0.99999893,0.99999893)"
       id="path4184"
       inkscape:connector-curvature="0" />
    <path
       style="font-style:normal;font-variant:normal;font-weight:normal;font-stretch:normal;font-size:109.11119843px;line-height:125%;font-family:'Share Tech Mono';-inkscape-font-specification:'Share Tech Mono, Normal';text-align:start;letter-spacing:0px;word-spacing:0px;writing-mode:lr-tb;text-anchor:start;display:inline;fill:#ffffff;fill-opacity:1;stroke:#000000;stroke-width:1px;stroke-linecap:butt;stroke-linejoin:miter;stroke-opacity:1"
       d="m 637.94922,86.232422 c -7.06668,-1e-5 -13.31448,1.749949 -17.4336,6.292969 -4.10119,4.444269 -5.61328,10.655959 -5.61328,17.845699 l 0,3.92774 c 0,0.89247 0.23147,1.72284 0.32422,2.59375 l -16.55664,0 a 5.5912136,5.5912136 0 0 0 -5.58984,5.58984 l 0,9.27539 a 5.5912136,5.5912136 0 0 0 5.58984,5.58985 l 76.37696,0 a 5.5912136,5.5912136 0 0 0 5.58984,-5.58985 l 0,-21.38672 c 0,-7.1281 -1.52954,-13.311648 -5.61524,-17.738278 -4.13918,-4.556359 -10.40286,-6.40039 -17.43164,-6.40039 l -19.64062,0 z m 0,5.589844 19.64062,0 c 6.11024,0 10.5464,1.528867 13.31055,4.583984 2.76415,2.982376 4.14648,7.63639 4.14649,13.96484 l 0,21.38672 -76.37696,0 0,-9.27539 24.00391,0 c -1.45482,-2.18222 -2.18164,-4.91025 -2.18164,-8.18359 l 0,-3.92774 c 0,-6.40119 1.38038,-11.091839 4.14453,-14.074215 2.69141,-2.982376 7.12952,-4.474609 13.3125,-4.474609 z m -2.18164,9.275394 c -2.25497,0 -4.00169,0.69019 -5.23828,2.07226 -1.2366,1.38208 -1.85547,3.41992 -1.85547,6.11133 l 0,6.10937 c 0,2.40045 0.65551,4.18185 1.96484,5.34571 1.2366,1.16385 2.58229,1.74609 4.03711,1.74609 l 32.1875,0 0,-13.20117 c 0,-2.69141 -0.61887,-4.72925 -1.85547,-6.11133 -1.23659,-1.38207 -2.98136,-2.07226 -5.23633,-2.07226 l -24.0039,0 z m 0,5.58984 24.0039,0 c 1.11419,0 0.95947,0.0871 1.07032,0.21094 0.0355,0.0397 0.43164,0.54645 0.43164,2.38086 l 0,7.61328 -26.56641,0 c -0.0189,-0.0201 -0.0514,-0.0525 -0.23633,-0.22656 a 5.5912136,5.5912136 0 0 0 -0.0976,-0.0898 c -0.0309,-0.058 -0.10938,-0.30825 -0.10938,-1.18555 l 0,-6.11132 c 0,-1.83441 0.39617,-2.34121 0.43164,-2.38086 0.1089,-0.12171 -0.0419,-0.21094 1.07227,-0.21094 z m 31.64062,36.28906 a 5.5912136,5.5912136 0 0 0 -5.58593,5.45703 l -23.87305,0 c -7.0282,0 -13.29157,1.84389 -17.43164,6.40039 -4.08718,4.42765 -5.61524,10.61087 -5.61524,17.73829 l 0,15.82031 a 5.5912136,5.5912136 0 0 0 5.58985,5.58984 l 8.18164,0 a 5.5912136,5.5912136 0 0 0 5.58984,-5.58984 l 0,-16.91211 c 0,-1.8344 0.39791,-2.34511 0.43164,-2.38281 0.0952,-0.1064 0.22077,-0.16505 0.9375,-0.1836 l 0,7.91211 c 0,6.29929 1.81176,12.08667 5.98438,16.01758 4.17262,3.9309 10.00224,5.50391 16.51758,5.50391 l 2.18164,0 c 6.23985,0 11.84109,-1.42382 15.58789,-5.53321 a 5.5912136,5.5912136 0 0 0 0.11328,-0.1289 c 3.48341,-4.06398 4.61914,-9.48601 4.61914,-15.75 l 0,-9.71094 c 0,-2.27639 -0.64337,-4.54143 -1.72656,-6.57227 0.0576,-0.10173 0.14223,-0.18588 0.19726,-0.28906 a 5.5912136,5.5912136 0 0 0 0.0664,-0.13086 c 0.85252,-1.70503 1.46289,-3.57101 1.46289,-5.66406 l 0,-6.00195 a 5.5912136,5.5912136 0 0 0 -5.58984,-5.58985 l -7.63868,0 z m 0,5.5918 7.63868,0 0,6 c 0,0.94563 -0.29112,2.00021 -0.87305,3.16406 -0.58193,1.09112 -1.38202,2.03774 -2.40039,2.83789 2.18222,1.67304 3.27343,3.89015 3.27344,6.6543 l 0,9.71094 c 0,5.5283 -1.09122,9.56539 -3.27344,12.11133 -2.25497,2.47318 -6.07421,3.71093 -11.45703,3.71093 l -2.18164,0 c -11.27484,0 -16.91211,-5.30952 -16.91211,-15.92969 l 0,-13.53124 -5.45508,0 c -2.25497,0 -4.00169,0.69214 -5.23828,2.07421 -1.2366,1.38208 -1.85547,3.41797 -1.85547,6.10938 l 0,16.91211 -8.18164,0 0,-15.82031 c 0,-6.32846 1.38038,-10.98443 4.14453,-13.9668 2.76415,-3.05512 7.20227,-4.58203 13.3125,-4.58203 l 26.1875,0 c 1.09111,0 1.92588,-0.40102 2.50781,-1.20117 0.50919,-0.87289 0.76367,-2.28991 0.76367,-4.25391 z m -18.00195,14.72852 0,13.63867 c 0,1.89126 0.61692,3.45676 1.85352,4.69336 1.23659,1.23659 2.80209,1.85351 4.69335,1.85351 l 5.45508,0 c 1.89127,0 3.2736,-0.4357 4.14649,-1.30859 0.87289,-0.87289 1.30859,-2.25522 1.30859,-4.14649 l 0,-9.71093 c 0,-2.18223 -0.50897,-3.56456 -1.52734,-4.14649 -1.01837,-0.58193 -2.32744,-0.87304 -3.92774,-0.87304 l -12.00195,0 z m 5.58984,5.58984 6.27735,0 0,9.00586 -5.32032,0 c -0.67166,0 -0.51239,0.009 -0.74023,-0.21875 -0.22785,-0.22785 -0.2168,-0.0628 -0.2168,-0.73828 l 0,-8.04883 z m 11.86719,33.12695 a 5.5912136,5.5912136 0 0 0 -5.58984,5.58985 l 0,12.74023 -62.60352,0 a 5.5912136,5.5912136 0 0 0 -5.58984,5.58984 l 0,25.31446 a 5.5912136,5.5912136 0 0 0 5.58984,5.58984 l 8.18164,0 a 5.5912136,5.5912136 0 0 0 5.58985,-5.58984 l 0,-10.44922 51.69531,0 c 4.67919,0 9.18305,-1.17522 12.32422,-4.44727 a 5.5912136,5.5912136 0 0 0 0.0742,-0.0781 c 2.56938,-2.78352 4.10156,-6.55048 4.10156,-10.33985 l 0,-18.33007 a 5.5912136,5.5912136 0 0 0 -5.58984,-5.58985 l -8.1836,0 z m 0,5.58985 8.1836,0 0,18.33007 c 0,2.47319 -0.87336,4.65562 -2.61915,6.54688 -1.74578,1.81852 -4.50849,2.72851 -8.29101,2.72851 l -57.28516,0 0,16.03907 -8.18164,0 0,-25.31446 64.91992,0 c 1.16386,0 2.00058,-0.29112 2.50977,-0.87304 0.50919,-0.58193 0.76367,-1.56324 0.76367,-2.94532 l 0,-14.51171 z m 8.01758,54.43164 a 5.5912136,5.5912136 0 0 0 -2.78125,0.83593 l -29.52734,18.32227 -18.37891,-16.23438 a 5.5912136,5.5912136 0 0 0 -9.29102,4.18946 l 0,11.67773 a 5.5912136,5.5912136 0 0 0 1.89258,4.19336 l 8.32813,7.3457 -26.45313,0 a 5.5912136,5.5912136 0 0 0 -5.58984,5.58985 l 0,9.27539 a 5.5912136,5.5912136 0 0 0 5.58984,5.58984 l 76.37696,0 a 5.5912136,5.5912136 0 0 0 5.58984,-5.58984 l 0,-9.27539 a 5.5912136,5.5912136 0 0 0 -5.58984,-5.58985 l -11.21876,0 14.10352,-8.49609 a 5.5912136,5.5912136 0 0 0 2.70508,-4.79102 l 0,-11.45703 a 5.5912136,5.5912136 0 0 0 -5.75586,-5.58593 z m 0.16602,5.58593 0,11.45703 -26.62305,16.03907 3.27344,2.83789 23.34961,0 0,9.27344 -76.37696,0 0,-9.27344 41.24414,0 -19.42187,-17.13086 0,-11.67578 21.49414,18.98633 33.06055,-20.51368 z m -54.55469,57.59375 a 5.5912136,5.5912136 0 0 0 -5.58985,5.58985 l 0,14.07617 c 0,7.14142 1.53496,13.34467 5.58789,17.82422 a 5.5912136,5.5912136 0 0 0 0.0469,0.0508 c 4.16023,4.48867 10.39164,6.26367 17.41211,6.26367 l 19.64062,0 c 7.08251,0 13.34345,-1.75789 17.51954,-6.26367 a 5.5912136,5.5912136 0 0 0 0.0508,-0.0547 c 4.02378,-4.45879 5.47656,-10.63558 5.47656,-17.82031 l 0,-14.07617 a 5.5912136,5.5912136 0 0 0 -5.58984,-5.58985 l -8.1836,0 a 5.5912136,5.5912136 0 0 0 -5.58984,5.58985 l 0,15.16601 c 0,1.8344 -0.39791,2.34512 -0.43164,2.38282 -0.11085,0.12389 0.0439,0.21093 -1.07032,0.21093 l -24.0039,0 c -1.1142,0 -0.96337,-0.0892 -1.07227,-0.21093 -0.0337,-0.0377 -0.43164,-0.54842 -0.43164,-2.38282 l 0,-15.16601 a 5.5912136,5.5912136 0 0 0 -5.58984,-5.58985 l -8.18164,0 z m 0,5.58985 8.18164,0 0,15.16601 c 0,2.69142 0.61887,4.7273 1.85547,6.10938 1.23659,1.38207 2.98331,2.07422 5.23828,2.07422 l 24.0039,0 c 2.25497,0 3.99974,-0.69215 5.23633,-2.07422 1.2366,-1.38208 1.85547,-3.41796 1.85547,-6.10938 l 0,-15.16601 8.1836,0 0,14.07422 c 0,6.40119 -1.3457,11.09379 -4.03711,14.07617 -2.76416,2.98237 -7.23695,4.47265 -13.41993,4.47265 l -19.64062,0 c -6.11023,0 -10.54835,-1.49028 -13.3125,-4.47265 -2.76415,-3.05512 -4.14453,-7.74772 -4.14453,-14.07617 l 0,-14.07422 z M 667.4082,378.25 a 5.5912136,5.5912136 0 0 0 -5.58593,5.45508 l -23.87305,0 c -7.02997,0 -13.29434,1.8459 -17.4336,6.40234 -4.08575,4.4267 -5.61328,10.60936 -5.61328,17.73633 l 0,15.82227 a 5.5912136,5.5912136 0 0 0 5.58985,5.58984 l 8.18164,0 a 5.5912136,5.5912136 0 0 0 5.58984,-5.58984 l 0,-16.91211 c 0,-1.8344 0.39791,-2.34512 0.43164,-2.38282 0.0952,-0.1064 0.22077,-0.16504 0.9375,-0.18359 l 0,7.91211 c 0,6.29927 1.81153,12.08718 5.98438,16.01758 4.17285,3.93039 10.00256,5.50195 16.51758,5.50195 l 2.18164,0 c 6.2385,0 11.8401,-1.42078 15.58789,-5.53125 a 5.5912136,5.5912136 0 0 0 0.11328,-0.12891 c 3.4834,-4.06397 4.61914,-9.486 4.61914,-15.75 l 0,-9.71093 c 0,-2.27638 -0.64337,-4.54143 -1.72656,-6.57227 0.0576,-0.10173 0.14223,-0.18589 0.19726,-0.28906 a 5.5912136,5.5912136 0 0 0 0.0664,-0.13086 c 0.85251,-1.70503 1.46289,-3.57101 1.46289,-5.66406 l 0,-6.00196 A 5.5912136,5.5912136 0 0 0 675.04688,378.25 l -7.63868,0 z m 0,5.58789 7.63868,0 0,6.00195 c 0,0.94564 -0.29112,2.00021 -0.87305,3.16407 -0.58193,1.09111 -1.38202,2.03774 -2.40039,2.83789 2.18222,1.67304 3.27343,3.89014 3.27344,6.65429 l 0,9.71094 c 0,5.52831 -1.09122,9.5654 -3.27344,12.11133 -2.25497,2.47319 -6.07421,3.71094 -11.45703,3.71094 l -2.18164,0 c -11.27484,0 -16.91211,-5.31148 -16.91211,-15.93164 l 0,-13.5293 -5.45508,0 c -2.25497,0 -4.00169,0.69214 -5.23828,2.07422 -1.2366,1.38207 -1.85547,3.41796 -1.85547,6.10937 l 0,16.91211 -8.18164,0 0,-15.82031 c 0,-6.32846 1.38038,-10.98442 4.14453,-13.9668 2.76415,-3.05511 7.20227,-4.58203 13.3125,-4.58203 l 26.1875,0 c 1.09111,0 1.92588,-0.40102 2.50781,-1.20117 0.50919,-0.87289 0.76367,-2.29186 0.76367,-4.25586 z m -18.00195,14.73047 0,13.63867 c 0,1.89126 0.61692,3.45677 1.85352,4.69336 1.23659,1.2366 2.80209,1.85352 4.69335,1.85352 l 5.45508,0 c 1.89127,0 3.2736,-0.43571 4.14649,-1.3086 0.87289,-0.87289 1.30859,-2.25522 1.30859,-4.14648 l 0,-9.71094 c 0,-2.18223 -0.50897,-3.56456 -1.52734,-4.14648 -1.01837,-0.58193 -2.32744,-0.87305 -3.92774,-0.87305 l -12.00195,0 z m 5.58984,5.5918 6.27735,0 0,9.00586 -5.32032,0 c -0.67164,0 -0.51238,0.009 -0.74023,-0.21875 -0.22786,-0.22786 -0.2168,-0.0628 -0.2168,-0.73829 l 0,-8.04882 z m -17.04687,34.98046 c -6.98671,0 -13.16108,1.70281 -17.3418,6.0879 -4.09263,4.22184 -5.70508,10.21252 -5.70508,16.96093 l 0,5.01758 c 0,0.89248 0.23147,1.72284 0.32422,2.59375 l -16.55664,0 a 5.5912136,5.5912136 0 0 0 -5.58984,5.58984 l 0,9.2754 a 5.5912136,5.5912136 0 0 0 5.58984,5.58984 l 76.37696,0 a 5.5912136,5.5912136 0 0 0 5.58984,-5.58984 l 0,-9.2754 a 5.5912136,5.5912136 0 0 0 -5.58984,-5.58984 l -40.34961,0 c -0.021,-0.0234 -0.0502,-0.0522 -0.21485,-0.2168 a 5.5912136,5.5912136 0 0 0 -0.0996,-0.0957 c -0.029,-0.0494 -0.11914,-0.29909 -0.11914,-1.18945 l 0,-7.20117 c 0,-1.06266 0.0969,-0.95492 0.21289,-1.06446 a 5.5912136,5.5912136 0 0 0 0.22656,-0.22656 c 0.10765,-0.11397 -0.002,-0.21094 1.06446,-0.21094 l 39.2793,0 a 5.5912136,5.5912136 0 0 0 5.58984,-5.58984 l 0,-9.27539 a 5.5912136,5.5912136 0 0 0 -5.58984,-5.58985 l -37.09766,0 z m 0,5.58985 37.09766,0 0,9.27344 -39.2793,0 c -2.18223,0 -3.89231,0.6555 -5.12891,1.96484 -1.30933,1.23659 -1.96484,2.94473 -1.96484,5.12695 l 0,7.20118 c 0,2.3277 0.61887,4.07442 1.85547,5.23828 1.16385,1.16385 2.43628,1.78272 3.81836,1.85546 l 40.69922,0 0,9.27344 -76.37696,0 0,-9.27344 24.00391,0 c -1.45482,-2.18222 -2.18164,-4.91025 -2.18164,-8.18359 l 0,-5.01953 c 0,-5.89201 1.38038,-10.25686 4.14453,-13.09375 2.76415,-2.90964 7.20227,-4.36328 13.3125,-4.36328 z"
       transform="scale(0.99999893,0.99999893)"
       id="path4182"
       inkscape:connector-curvature="0" />
  </g>
  <g
     inkscape:groupmode="layer"
     id="layer3"
     inkscape:label="Layer 2"
     style="display:inline"
     transform="translate(-4.2263186,487.95683)" />
  <g
     inkscape:groupmode="layer"
     id="layer6"
     inkscape:label="Layer 4"
     style="display:inline"
     transform="translate(-4.2263186,-1.0193947)">
    <path
       style="color:#000000;font-style:normal;font-variant:normal;font-weight:normal;font-stretch:normal;font-size:medium;line-height:normal;font-family:sans-serif;text-indent:0;text-align:start;text-decoration:none;text-decoration-line:none;text-decoration-style:solid;text-decoration-color:#000000;letter-spacing:normal;word-spacing:normal;text-transform:none;direction:ltr;block-progression:tb;writing-mode:lr-tb;baseline-shift:baseline;text-anchor:start;white-space:normal;clip-rule:nonzero;display:inline;overflow:visible;visibility:visible;opacity:1;isolation:auto;mix-blend-mode:normal;color-interpolation:sRGB;color-interpolation-filters:linearRGB;solid-color:#000000;solid-opacity:1;fill:#ffffff;fill-opacity:1;fill-rule:nonzero;stroke:#000000;stroke-width:1.76687467;stroke-linecap:round;stroke-linejoin:bevel;stroke-miterlimit:4;stroke-dasharray:none;stroke-dashoffset:0;stroke-opacity:1;color-rendering:auto;image-rendering:auto;shape-rendering:auto;text-rendering:auto;enable-background:accumulate"
       d="m 14.332202,6.6245468 -8.8296441,8.8296442 0,636.084959 8.8296441,8.82963 636.084948,0 8.82964,-8.82963 0,-636.084959 -8.82964,-8.8296442 -636.084948,0 z m 8.829643,17.6592872 618.425665,0 0,618.425666 -618.425665,0 0,-618.425666 z"
       id="path4150"
       inkscape:connector-curvature="0" />
  </g>
</svg>
