<?xml version="1.0" encoding="UTF-8" standalone="no"?>
<!-- Created with Inkscape (http://www.inkscape.org/) -->

<svg
   xmlns:dc="http://purl.org/dc/elements/1.1/"
   xmlns:cc="http://creativecommons.org/ns#"
   xmlns:rdf="http://www.w3.org/1999/02/22-rdf-syntax-ns#"
   xmlns:svg="http://www.w3.org/2000/svg"
   xmlns="http://www.w3.org/2000/svg"
   xmlns:sodipodi="http://sodipodi.sourceforge.net/DTD/sodipodi-0.dtd"
   xmlns:inkscape="http://www.inkscape.org/namespaces/inkscape"
   width="180"
   height="180"
   viewBox="0 0 179.99999 180"
   id="svg3438"
   version="1.1"
   inkscape:version="0.91 r13725"
   sodipodi:docname="ripolab_180x180.svg"
   inkscape:export-filename="/home/akirasan/ripolab/ripolab_180x180.png"
   inkscape:export-xdpi="90"
   inkscape:export-ydpi="90">
  <defs
     id="defs3440" />
  <sodipodi:namedview
     id="base"
     pagecolor="#ffffff"
     bordercolor="#666666"
     borderopacity="1.0"
     inkscape:pageopacity="0.0"
     inkscape:pageshadow="2"
     inkscape:zoom="2.5484375"
     inkscape:cx="181.44847"
     inkscape:cy="2.9194737"
     inkscape:document-units="px"
     inkscape:current-layer="layer1"
     showgrid="false"
     units="px"
     inkscape:window-width="1858"
     inkscape:window-height="1053"
     inkscape:window-x="62"
     inkscape:window-y="27"
     inkscape:window-maximized="1" />
  <metadata
     id="metadata3443">
    <rdf:RDF>
      <cc:Work
         rdf:about="">
        <dc:format>image/svg+xml</dc:format>
        <dc:type
           rdf:resource="http://purl.org/dc/dcmitype/StillImage" />
        <dc:title />
      </cc:Work>
    </rdf:RDF>
  </metadata>
  <g
     inkscape:label="Capa 1"
     inkscape:groupmode="layer"
     id="layer1"
     transform="translate(0,-872.36216)">
    <text
       xml:space="preserve"
       style="font-style:normal;font-weight:normal;font-size:38.02955627px;line-height:125%;font-family:sans-serif;letter-spacing:0px;word-spacing:0px;fill:#000000;fill-opacity:1;stroke:none;stroke-width:1px;stroke-linecap:butt;stroke-linejoin:miter;stroke-opacity:1"
       x="0.88669294"
       y="1040.6379"
       id="text3471"
       sodipodi:linespacing="125%"><tspan
         sodipodi:role="line"
         id="tspan3473"
         x="0.88669294"
         y="1040.6379"
         style="font-style:normal;font-variant:normal;font-weight:normal;font-stretch:normal;font-size:47.53694534px;font-family:'Share Tech Mono';-inkscape-font-specification:'Share Tech Mono'">RipoLab</tspan></text>
    <text
       xml:space="preserve"
       style="font-style:normal;font-weight:normal;font-size:31.83673477px;line-height:125%;font-family:sans-serif;letter-spacing:0px;word-spacing:0px;fill:#000000;fill-opacity:1;stroke:none;stroke-width:1px;stroke-linecap:butt;stroke-linejoin:miter;stroke-opacity:1"
       x="-995.17719"
       y="175.91605"
       id="text3475"
       sodipodi:linespacing="125%"
       transform="matrix(0,-1,1,0,0,0)"><tspan
         sodipodi:role="line"
         id="tspan3477"
         x="-995.17719"
         y="175.91605"
         style="font-style:normal;font-variant:normal;font-weight:normal;font-stretch:normal;font-family:'Share Tech Mono';-inkscape-font-specification:'Share Tech Mono'">hacklab</tspan></text>
    <path
       style="fill:#000000"
       d="M 20.984375 6.5410156 C 19.356465 6.5135814 17.701202 7.1427544 16.460938 8.4882812 C 13.621668 11.568531 14.448311 16.113004 18.212891 18.115234 C 19.413701 18.753884 22.145402 18.72654 23.482422 18.0625 L 24.550781 17.533203 L 25.341797 18.482422 C 25.776527 19.004942 28.903786 22.642866 32.291016 26.566406 L 38.449219 33.699219 L 36.236328 35.972656 C 34.156458 38.110536 34.024411 38.320673 34.025391 39.470703 C 34.026661 40.954073 34.274674 41.367109 37.902344 45.980469 C 39.463134 47.965399 40.738281 49.679109 40.738281 49.787109 C 40.738281 49.895209 40.125943 51.290825 39.376953 52.890625 C 38.627953 54.490425 37.666164 56.869834 37.240234 58.177734 C 36.814314 59.485534 36.436691 60.592719 36.400391 60.636719 C 36.364051 60.681219 34.210161 60.966531 31.613281 61.269531 C 25.832471 61.944131 25.028584 62.154734 24.115234 63.240234 L 23.394531 64.095703 L 23.394531 72.857422 L 23.394531 81.619141 L 24.191406 82.470703 C 25.147736 83.494503 25.251812 83.523928 30.388672 84.173828 C 34.166602 84.652128 37.610082 84.688703 80.544922 84.720703 C 125.526 84.753903 126.75769 84.740834 131.31445 84.177734 C 133.88301 83.860334 136.40236 83.402056 136.91211 83.160156 C 138.60422 82.357156 138.65234 82.059494 138.65234 72.621094 L 138.65234 64.095703 L 137.93359 63.240234 C 137.02122 62.155934 136.22204 61.945366 130.42578 61.259766 C 127.82408 60.952066 125.67017 60.668906 125.63867 60.628906 C 125.60715 60.589206 125.23257 59.485534 124.80664 58.177734 C 124.38072 56.869834 123.41892 54.490525 122.66992 52.890625 C 121.92093 51.290825 121.30859 49.890844 121.30859 49.777344 C 121.30859 49.663844 122.75691 47.717405 124.52734 45.453125 C 126.29778 43.188795 127.82327 41.027771 127.91797 40.650391 C 128.30449 39.110371 127.82379 37.99311 125.95703 36.09375 L 124.1543 34.259766 L 130.45508 26.986328 C 133.92 22.985848 137.11011 19.284229 137.54492 18.761719 L 138.33594 17.8125 L 139.28125 18.261719 C 142.23934 19.665429 145.4137 18.795003 147.16016 16.101562 C 147.77235 15.157433 147.88477 14.666258 147.88477 12.923828 C 147.88477 10.608008 147.68946 10.091668 146.24414 8.5800781 C 143.44974 5.6575581 138.47192 6.4963619 136.62109 10.201172 C 135.89787 11.648842 135.77716 13.194791 136.2832 14.556641 C 136.53653 15.238371 136.76426 16.016276 136.78906 16.285156 C 136.81858 16.605746 134.04334 19.181508 128.72656 23.767578 L 120.61914 30.761719 L 118.19922 28.353516 C 116.02395 26.188316 115.65486 25.931558 114.5293 25.804688 C 113.81066 25.723687 113.00956 25.80674 112.64844 26 C 112.30252 26.18514 110.22249 27.751962 108.02734 29.482422 L 104.03711 32.628906 L 101.27344 31.289062 C 99.753027 30.551582 97.28143 29.543991 95.78125 29.050781 C 94.28108 28.557571 93.051828 28.016989 93.048828 27.849609 C 93.046028 27.682239 92.737864 25.163193 92.365234 22.251953 C 91.706384 17.104603 91.663852 16.935336 90.826172 16.097656 L 89.964844 15.236328 L 81.023438 15.236328 L 72.082031 15.236328 L 71.197266 16.121094 C 70.332986 16.985384 70.299536 17.120036 69.660156 22.134766 C 69.300376 24.956526 69.003 27.464674 69 27.708984 C 68.99602 28.021504 68.186588 28.419881 66.267578 29.050781 C 64.767408 29.543991 62.286219 30.554595 60.755859 31.296875 L 57.974609 32.646484 L 54.181641 29.65625 C 49.021301 25.58766 49.088887 25.627851 47.554688 25.800781 C 46.402358 25.930671 46.043827 26.168644 44.117188 28.083984 L 41.966797 30.220703 L 33.921875 23.300781 C 28.357215 18.513601 25.919525 16.245966 26.015625 15.947266 C 26.092005 15.709756 26.359555 14.957131 26.609375 14.275391 C 27.125735 12.866271 26.981897 11.3446 26.185547 9.78125 C 25.124678 7.6985881 23.077402 6.5762882 20.984375 6.5410156 z M 58.392578 39.974609 L 60.964844 40.054688 L 63.537109 40.134766 L 63.957031 42.5 L 64.378906 44.867188 L 66.119141 45.548828 L 67.857422 46.230469 L 69.917969 44.806641 L 71.978516 43.382812 L 73.759766 45.179688 L 75.539062 46.976562 L 74.105469 49.029297 L 72.671875 51.083984 L 73.404297 52.742188 C 73.807137 53.654787 74.160553 54.438375 74.189453 54.484375 C 74.218353 54.529975 75.332172 54.767119 76.664062 55.011719 L 79.085938 55.457031 L 79.005859 58.005859 L 78.925781 60.552734 L 76.828125 60.923828 C 75.674145 61.127528 74.591025 61.4432 74.421875 61.625 C 74.252725 61.8068 73.834658 62.666056 73.492188 63.535156 L 72.869141 65.115234 L 73.267578 65.714844 L 63.998047 65.714844 L 62.820312 62.898438 L 63.460938 62.367188 C 63.812228 62.074287 64.187955 61.824219 64.296875 61.824219 C 64.405785 61.819119 64.813928 61.268963 65.205078 60.601562 C 66.611788 58.201163 65.863398 55.189253 63.517578 53.814453 C 61.955998 52.899153 59.670087 52.884197 58.341797 53.779297 C 55.409847 55.755197 55.137729 59.284084 57.724609 61.771484 L 58.988281 62.986328 L 58.568359 64.009766 C 58.469191 64.252067 58.114004 65.130841 57.876953 65.714844 L 48.621094 65.714844 L 49.056641 65.076172 L 48.304688 63.236328 L 47.550781 61.396484 L 45.193359 60.974609 L 42.837891 60.552734 L 42.837891 58.037109 L 42.837891 55.521484 L 45.164062 55.068359 C 46.443783 54.819559 47.589454 54.505041 47.708984 54.369141 C 47.828504 54.233341 48.203792 53.414681 48.544922 52.550781 L 49.166016 50.980469 L 47.890625 49.15625 C 47.188815 48.15225 46.613281 47.155606 46.613281 46.941406 C 46.613281 46.727256 47.338879 45.833501 48.224609 44.957031 L 49.833984 43.363281 L 51.998047 44.792969 L 54.162109 46.222656 L 55.773438 45.529297 C 57.508578 44.782767 57.603031 44.609923 58.212891 41.033203 L 58.392578 39.974609 z M 98.957031 40.253906 L 101.5293 40.333984 L 104.10156 40.414062 L 104.52148 42.78125 L 104.94336 45.146484 L 106.68359 45.828125 L 108.42188 46.509766 L 110.48242 45.085938 L 112.54297 43.662109 L 114.32422 45.458984 L 116.10352 47.255859 L 114.66992 49.308594 L 113.23633 51.363281 L 113.96875 53.021484 C 114.37159 53.934084 114.72501 54.717672 114.75391 54.763672 C 114.78282 54.809272 115.89663 55.046516 117.22852 55.291016 L 119.65039 55.736328 L 119.57031 58.285156 L 119.49023 60.832031 L 117.39258 61.203125 C 116.2386 61.406825 115.15548 61.722497 114.98633 61.904297 C 114.81718 62.086097 114.39911 62.945253 114.05664 63.814453 L 113.43359 65.394531 L 113.64648 65.714844 L 104.44531 65.714844 L 103.38477 63.179688 L 104.02344 62.646484 C 104.37473 62.353584 104.75241 62.103516 104.86133 62.103516 C 104.97024 62.098416 105.37838 61.548359 105.76953 60.880859 C 107.17624 58.480559 106.42785 55.46845 104.08203 54.09375 C 102.52045 53.17845 100.23454 53.163394 98.90625 54.058594 C 95.9743 56.034394 95.702192 59.563481 98.289062 62.050781 L 99.552734 63.265625 L 99.132812 64.289062 C 99.049924 64.491623 98.739056 65.2609 98.554688 65.714844 L 89.376953 65.714844 L 89.621094 65.355469 L 88.867188 63.515625 L 88.115234 61.675781 L 85.757812 61.253906 L 83.402344 60.833984 L 83.402344 58.316406 L 83.402344 55.800781 L 85.728516 55.347656 C 87.008246 55.098756 88.153918 54.784238 88.273438 54.648438 C 88.392967 54.512638 88.768245 53.693978 89.109375 52.830078 L 89.730469 51.259766 L 88.455078 49.435547 C 87.753268 48.431647 87.177734 47.434803 87.177734 47.220703 C 87.177734 47.006503 87.903342 46.112808 88.789062 45.236328 L 90.398438 43.644531 L 92.5625 45.072266 L 94.726562 46.501953 L 96.337891 45.808594 C 98.073031 45.062064 98.167484 44.88922 98.777344 41.3125 L 98.957031 40.253906 z M 47.716797 89.230469 C 42.603107 89.230469 40.738281 89.318541 40.738281 89.556641 C 40.738281 89.735441 41.437946 91.258306 42.291016 92.941406 L 43.841797 96.001953 L 42.744141 97.441406 C 42.140771 98.233806 40.500799 100.33021 39.099609 102.09961 C 37.698419 103.86901 36.548875 105.57197 36.546875 105.88477 C 36.543925 106.25497 38.478787 108.38192 42.091797 111.97852 C 46.600197 116.46652 47.743194 117.46588 48.177734 117.30078 C 48.471924 117.18898 50.75401 115.4778 53.25 113.5 L 57.789062 109.9043 L 60.384766 111.29102 C 63.127856 112.75612 67.502818 114.48298 69.835938 115.02148 C 70.603918 115.19878 71.232422 115.46052 71.232422 115.60352 C 71.232422 115.74642 71.55004 118.46353 71.9375 121.64062 C 72.48653 126.14272 72.744625 127.49503 73.109375 127.76758 C 73.828835 128.30548 88.664631 128.26706 89.113281 127.72656 C 89.291811 127.51131 89.756104 124.71035 90.146484 121.50195 C 90.536864 118.29365 90.943025 115.59391 91.046875 115.50391 C 91.150735 115.41371 92.699054 114.87835 94.488281 114.31445 C 96.277501 113.75055 99.220717 112.53839 101.0293 111.62109 L 104.31836 109.95312 L 108.6875 113.39844 C 111.09042 115.29274 113.35092 116.99835 113.71289 117.18945 C 114.33925 117.52005 114.6399 117.26969 119.9375 111.99609 C 123.5619 108.38819 125.503 106.25507 125.5 105.88477 C 125.49751 105.57197 124.34846 103.86901 122.94727 102.09961 C 121.54607 100.33021 119.9061 98.233806 119.30273 97.441406 L 118.20703 96.001953 L 119.75781 92.941406 C 120.61088 91.258306 121.30859 89.735441 121.30859 89.556641 C 121.30859 89.318641 119.44657 89.230469 114.33984 89.230469 L 107.36914 89.230469 L 106.11523 90.978516 C 102.50885 96.004116 96.445813 100.41987 90.535156 102.32617 C 86.017016 103.78327 80.199142 104.1829 75.669922 103.3457 C 67.737522 101.8796 60.417327 97.263144 55.841797 90.839844 L 54.695312 89.230469 L 47.716797 89.230469 z "
       transform="translate(-7.6293945e-6,872.36216)"
       id="path4142" />
  </g>
</svg>
