  0
SECTION
  2
HEADER
  9
$ACADVER
  1
AC1014
  9
$HANDSEED
  5
FFFF
  9
$MEASUREMENT
 70
     1
  0
ENDSEC
  0
SECTION
  2
TABLES
  0
TABLE
  2
VPORT
  5
8
330
0
100
AcDbSymbolTable
 70
     4
  0
VPORT
  5
2E
330
8
100
AcDbSymbolTableRecord
100
AcDbViewportTableRecord
  2
*ACTIVE
 70
     0
 10
0.0
 20
0.0
 11
1.0
 21
1.0
 12
210.0
 22
148.5
 13
0.0
 23
0.0
 14
10.0
 24
10.0
 15
10.0
 25
10.0
 16
0.0
 26
0.0
 36
1.0
 17
0.0
 27
0.0
 37
0.0
 40
341.0
 41
1.24
 42
50.0
 43
0.0
 44
0.0
 50
0.0
 51
0.0
 71
     0
 72
   100
 73
     1
 74
     3
 75
     0
 76
     0
 77
     0
 78
     0
  0
ENDTAB
  0
TABLE
  2
LTYPE
  5
5
330
0
100
AcDbSymbolTable
 70
     1
  0
LTYPE
  5
14
330
5
100
AcDbSymbolTableRecord
100
AcDbLinetypeTableRecord
  2
BYBLOCK
 70
     0
  3

 72
    65
 73
     0
 40
0.0
  0
LTYPE
  5
15
330
5
100
AcDbSymbolTableRecord
100
AcDbLinetypeTableRecord
  2
BYLAYER
 70
     0
  3

 72
    65
 73
     0
 40
0.0
  0
LTYPE
  5
16
330
5
100
AcDbSymbolTableRecord
100
AcDbLinetypeTableRecord
  2
CONTINUOUS
 70
     0
  3
Solid line
 72
    65
 73
     0
 40
0.0
  0
ENDTAB
  0
TABLE
  2
LAYER
  5
2
100
AcDbSymbolTable
 70
2
  0
LAYER
  5
50
100
AcDbSymbolTableRecord
100
AcDbLayerTableRecord
  2
0
 70
0
  6
CONTINUOUS
  0
LAYER
  5
51
100
AcDbSymbolTableRecord
100
AcDbLayerTableRecord
  2
Layer_1
 70
0
  6
CONTINUOUS
  0
ENDTAB
  0
TABLE
  2
STYLE
  5
3
330
0
100
AcDbSymbolTable
 70
     1
  0
STYLE
  5
11
330
3
100
AcDbSymbolTableRecord
100
AcDbTextStyleTableRecord
  2
STANDARD
 70
     0
 40
0.0
 41
1.0
 50
0.0
 71
     0
 42
2.5
  3
txt
  4

  0
ENDTAB
  0
TABLE
  2
VIEW
  5
6
330
0
100
AcDbSymbolTable
 70
     0
  0
ENDTAB
  0
TABLE
  2
UCS
  5
7
330
0
100
AcDbSymbolTable
 70
     0
  0
ENDTAB
  0
TABLE
  2
APPID
  5
9
330
0
100
AcDbSymbolTable
 70
     2
  0
APPID
  5
12
330
9
100
AcDbSymbolTableRecord
100
AcDbRegAppTableRecord
  2
ACAD
 70
     0
  0
ENDTAB
  0
TABLE
  2
DIMSTYLE
  5
A
330
0
100
AcDbSymbolTable
 70
     1
  0
DIMSTYLE
105
27
330
A
100
AcDbSymbolTableRecord
100
AcDbDimStyleTableRecord
  2
ISO-25
 70
     0
  3

  4

  5

  6

  7

 40
1.0
 41
2.5
 42
0.625
 43
3.75
 44
1.25
 45
0.0
 46
0.0
 47
0.0
 48
0.0
140
2.5
141
2.5
142
0.0
143
0.03937007874016
144
1.0
145
0.0
146
1.0
147
0.625
 71
     0
 72
     0
 73
     0
 74
     0
 75
     0
 76
     0
 77
     1
 78
     8
170
     0
171
     3
172
     1
173
     0
174
     0
175
     0
176
     0
177
     0
178
     0
270
     2
271
     2
272
     2
273
     2
274
     3
340
11
275
     0
280
     0
281
     0
282
     0
283
     0
284
     8
285
     0
286
     0
287
     3
288
     0
  0
ENDTAB
  0
TABLE
  2
BLOCK_RECORD
  5
1
330
0
100
AcDbSymbolTable
 70
     1
  0
BLOCK_RECORD
  5
1F
330
1
100
AcDbSymbolTableRecord
100
AcDbBlockTableRecord
  2
*MODEL_SPACE
  0
BLOCK_RECORD
  5
1B
330
1
100
AcDbSymbolTableRecord
100
AcDbBlockTableRecord
  2
*PAPER_SPACE
  0
ENDTAB
  0
ENDSEC
  0
SECTION
  2
BLOCKS
  0
BLOCK
  5
20
330
1F
100
AcDbEntity
  8
0
100
AcDbBlockBegin
  2
*MODEL_SPACE
 70
     0
 10
0.0
 20
0.0
 30
0.0
  3
*MODEL_SPACE
  1

  0
ENDBLK
  5
21
330
1F
100
AcDbEntity
  8
0
100
AcDbBlockEnd
  0
BLOCK
  5
1C
330
1B
100
AcDbEntity
 67
     1
  8
0
100
AcDbBlockBegin
  2
*PAPER_SPACE
  1

  0
ENDBLK
  5
1D
330
1B
100
AcDbEntity
 67
     1
  8
0
100
AcDbBlockEnd
  0
ENDSEC
  0
SECTION
  2
ENTITIES
  0
LWPOLYLINE
  5
100
100
AcDbEntity
  8
0
 62
7
100
AcDbPolyline
 90
352
 70
0
 10
9.651224
 20
112.282751
 30
0.0
 10
9.140799
 20
112.265663
 30
0.0
 10
8.632578
 20
112.196210
 30
0.0
 10
8.130972
 20
112.074392
 30
0.0
 10
7.640391
 20
111.899105
 30
0.0
 10
7.164692
 20
111.670351
 30
0.0
 10
6.708286
 20
111.387026
 30
0.0
 10
6.276133
 20
111.048580
 30
0.0
 10
5.872092
 20
110.655012
 30
0.0
 10
5.463090
 20
110.158919
 30
0.0
 10
5.124644
 20
109.639123
 30
0.0
 10
4.856753
 20
109.100585
 30
0.0
 10
4.657765
 20
108.548268
 30
0.0
 10
4.527127
 20
107.986579
 30
0.0
 10
4.463737
 20
107.420481
 30
0.0
 10
4.466493
 20
106.855485
 30
0.0
 10
4.534844
 20
106.296553
 30
0.0
 10
4.668238
 20
105.747543
 30
0.0
 10
4.865022
 20
105.213966
 30
0.0
 10
5.125195
 20
104.701336
 30
0.0
 10
5.447105
 20
104.213511
 30
0.0
 10
5.829648
 20
103.756002
 30
0.0
 10
6.272825
 20
103.333220
 30
0.0
 10
6.775534
 20
102.950676
 30
0.0
 10
7.336120
 20
102.612782
 30
0.0
 10
7.767722
 20
102.439149
 30
0.0
 10
8.290273
 20
102.316779
 30
0.0
 10
8.875664
 20
102.246223
 30
0.0
 10
9.495230
 20
102.226931
 30
0.0
 10
10.119757
 20
102.258350
 30
0.0
 10
10.721133
 20
102.341032
 30
0.0
 10
11.270695
 20
102.473875
 30
0.0
 10
11.739227
 20
102.656879
 30
0.0
 10
12.631645
 20
103.100056
 30
0.0
 10
13.292001
 20
102.306306
 30
0.0
 10
19.097400
 20
95.552816
 30
0.0
 10
24.242995
 20
89.592525
 30
0.0
 10
22.394770
 20
87.693037
 30
0.0
 10
21.372817
 20
86.618168
 30
0.0
 10
20.819397
 20
85.923086
 30
0.0
 10
20.673325
 20
85.647476
 30
0.0
 10
20.591745
 20
85.382343
 30
0.0
 10
20.547648
 20
84.771597
 30
0.0
 10
20.562530
 20
84.340545
 30
0.0
 10
20.627574
 20
83.940915
 30
0.0
 10
20.773095
 20
83.522543
 30
0.0
 10
21.029961
 20
83.032513
 30
0.0
 10
21.429041
 20
82.420663
 30
0.0
 10
22.000651
 20
81.634079
 30
0.0
 10
23.784935
 20
79.332204
 30
0.0
 10
25.459527
 20
77.154905
 30
0.0
 10
26.155712
 20
76.152796
 30
0.0
 10
25.821675
 20
75.323215
 30
0.0
 10
25.018003
 20
73.558775
 30
0.0
 10
24.024162
 20
71.259105
 30
0.0
 10
23.233169
 20
69.141888
 30
0.0
 10
22.531472
 20
67.087507
 30
0.0
 10
21.333681
 20
66.905056
 30
0.0
 10
18.531302
 20
66.559994
 30
0.0
 10
15.621988
 20
66.192335
 30
0.0
 10
14.628147
 20
66.030277
 30
0.0
 10
13.874084
 20
65.864912
 30
0.0
 10
13.310742
 20
65.683562
 30
0.0
 10
12.888511
 20
65.473549
 30
0.0
 10
12.556680
 20
65.220542
 30
0.0
 10
12.266741
 20
64.912412
 30
0.0
 10
11.664813
 20
64.197487
 30
0.0
 10
11.664813
 20
56.877898
 30
0.0
 10
11.664813
 20
49.558310
 30
0.0
 10
12.330681
 20
48.846142
 30
0.0
 10
12.606289
 20
48.561712
 30
0.0
 10
12.873077
 20
48.339573
 30
0.0
 10
13.188373
 20
48.163737
 30
0.0
 10
13.609501
 20
48.017664
 30
0.0
 10
15.000768
 20
47.754735
 30
0.0
 10
17.508246
 20
47.423454
 30
0.0
 10
18.743520
 20
47.290612
 30
0.0
 10
20.343147
 20
47.187533
 30
0.0
 10
22.695734
 20
47.110365
 30
0.0
 10
26.192092
 20
47.055241
 30
0.0
 10
27.333659
 20
47.049179
 30
0.0
 10
27.524931
 20
46.576237
 30
0.0
 10
28.439947
 20
44.691080
 30
0.0
 10
29.735855
 20
42.133991
 30
0.0
 10
28.819183
 20
40.930689
 30
0.0
 10
25.774271
 20
37.039110
 30
0.0
 10
24.947448
 20
35.958176
 30
0.0
 10
24.270004
 20
35.001268
 30
0.0
 10
23.811393
 20
34.273112
 30
0.0
 10
23.642170
 20
33.876237
 30
0.0
 10
23.716584
 20
33.692129
 30
0.0
 10
23.940378
 20
33.372978
 30
0.0
 10
24.825629
 20
32.341653
 30
0.0
 10
26.277530
 20
30.805416
 30
0.0
 10
28.275135
 20
28.785764
 30
0.0
 10
30.607326
 20
26.489951
 30
0.0
 10
32.093404
 20
25.104748
 30
0.0
 10
32.583985
 20
24.697399
 30
0.0
 10
32.940621
 20
24.448801
 30
0.0
 10
33.190322
 20
24.337456
 30
0.0
 10
33.358442
 20
24.339660
 30
0.0
 10
33.831385
 20
24.642829
 30
0.0
 10
34.787743
 20
25.342322
 30
0.0
 10
37.596737
 20
27.514110
 30
0.0
 10
41.388545
 20
30.518233
 30
0.0
 10
43.557028
 20
29.360128
 30
0.0
 10
45.483525
 20
28.419755
 30
0.0
 10
47.633815
 20
27.511352
 30
0.0
 10
49.719615
 20
26.747922
 30
0.0
 10
51.453738
 20
26.243006
 30
0.0
 10
52.277804
 20
25.988896
 30
0.0
 10
52.528056
 20
25.862116
 30
0.0
 10
52.620109
 20
25.756836
 30
0.0
 10
53.208808
 20
20.713215
 30
0.0
 10
53.512527
 20
18.358423
 30
0.0
 10
53.756163
 20
16.828801
 30
0.0
 10
53.971138
 20
15.961741
 30
0.0
 10
54.077521
 20
15.726370
 30
0.0
 10
54.188316
 20
15.595182
 30
0.0
 10
54.433607
 20
15.516358
 30
0.0
 10
54.920330
 20
15.449110
 30
0.0
 10
56.478614
 20
15.347685
 30
0.0
 10
58.584257
 20
15.289809
 30
0.0
 10
60.958342
 20
15.274925
 30
0.0
 10
63.321953
 20
15.301934
 30
0.0
 10
65.396176
 20
15.370838
 30
0.0
 10
66.900994
 20
15.480530
 30
0.0
 10
67.353543
 20
15.549982
 30
0.0
 10
67.558594
 20
15.629907
 30
0.0
 10
67.710729
 20
16.141435
 30
0.0
 10
67.924599
 20
17.292374
 30
0.0
 10
68.422900
 20
20.830074
 30
0.0
 10
68.888126
 20
24.312101
 30
0.0
 10
69.065615
 20
25.402955
 30
0.0
 10
69.173656
 20
25.840619
 30
0.0
 10
70.083710
 20
26.188989
 30
0.0
 10
72.049345
 20
26.834462
 30
0.0
 10
73.321549
 20
27.277088
 30
0.0
 10
74.776207
 20
27.848698
 30
0.0
 10
76.233620
 20
28.475429
 30
0.0
 10
77.514643
 20
29.083971
 30
0.0
 10
80.261902
 20
30.477443
 30
0.0
 10
83.912048
 20
27.600100
 30
0.0
 10
86.651588
 20
25.482330
 30
0.0
 10
88.111757
 20
24.432266
 30
0.0
 10
88.304131
 20
24.358953
 30
0.0
 10
88.522964
 20
24.374388
 30
0.0
 10
88.820070
 20
24.522114
 30
0.0
 10
89.248365
 20
24.846226
 30
0.0
 10
90.705778
 20
26.196155
 30
0.0
 10
93.311922
 20
28.771983
 30
0.0
 10
95.315590
 20
30.797700
 30
0.0
 10
96.771902
 20
32.338346
 30
0.0
 10
97.659358
 20
33.371875
 30
0.0
 10
97.884252
 20
33.691579
 30
0.0
 10
97.958669
 20
33.876237
 30
0.0
 10
97.789445
 20
34.272561
 30
0.0
 10
97.330834
 20
35.001268
 30
0.0
 10
96.653391
 20
35.958176
 30
0.0
 10
95.826567
 20
37.039110
 30
0.0
 10
92.781655
 20
40.930689
 30
0.0
 10
91.864983
 20
42.133991
 30
0.0
 10
93.160891
 20
44.691080
 30
0.0
 10
94.075906
 20
46.576237
 30
0.0
 10
94.256706
 20
47.022721
 30
0.0
 10
96.643468
 20
47.062960
 30
0.0
 10
98.879749
 20
47.147297
 30
0.0
 10
100.454571
 20
47.264704
 30
0.0
 10
101.828751
 20
47.420146
 30
0.0
 10
103.404674
 20
47.636224
 30
0.0
 10
104.811927
 20
47.868837
 30
0.0
 10
105.896169
 20
48.089323
 30
0.0
 10
106.504710
 20
48.269570
 30
0.0
 10
106.973242
 20
48.517065
 30
0.0
 10
107.328226
 20
48.819683
 30
0.0
 10
107.468234
 20
49.020877
 30
0.0
 10
107.586194
 20
49.271679
 30
0.0
 10
107.762030
 20
49.967312
 30
0.0
 10
107.871724
 20
51.000841
 30
0.0
 10
107.930703
 20
52.467073
 30
0.0
 10
107.959365
 20
57.075234
 30
0.0
 10
107.959365
 20
64.197487
 30
0.0
 10
107.357989
 20
64.912412
 30
0.0
 10
107.068051
 20
65.220542
 30
0.0
 10
106.737321
 20
65.472999
 30
0.0
 10
106.315091
 20
65.683011
 30
0.0
 10
105.751750
 20
65.864912
 30
0.0
 10
104.997136
 20
66.030828
 30
0.0
 10
104.001642
 20
66.194539
 30
0.0
 10
101.085711
 20
66.567160
 30
0.0
 10
98.280577
 20
66.914976
 30
0.0
 10
97.086094
 20
67.094673
 30
0.0
 10
96.391012
 20
69.141888
 30
0.0
 10
95.600016
 20
71.259105
 30
0.0
 10
94.606176
 20
73.558775
 30
0.0
 10
93.802503
 20
75.325972
 30
0.0
 10
93.468468
 20
76.161062
 30
0.0
 10
94.258360
 20
77.293258
 30
0.0
 10
96.157848
 20
79.773176
 30
0.0
 10
98.099227
 20
82.371054
 30
0.0
 10
98.723203
 20
83.292134
 30
0.0
 10
98.991094
 20
83.786023
 30
0.0
 10
99.077084
 20
84.254004
 30
0.0
 10
99.090865
 20
84.700491
 30
0.0
 10
99.025821
 20
85.137602
 30
0.0
 10
98.878095
 20
85.576921
 30
0.0
 10
98.641624
 20
86.030573
 30
0.0
 10
98.311997
 20
86.509578
 30
0.0
 10
97.884252
 20
87.026617
 30
0.0
 10
97.352881
 20
87.592716
 30
0.0
 10
95.846410
 20
89.125095
 30
0.0
 10
101.109965
 20
95.202243
 30
0.0
 10
107.033877
 20
102.072590
 30
0.0
 10
107.694232
 20
102.866340
 30
0.0
 10
108.484124
 20
102.491514
 30
0.0
 10
108.949350
 20
102.294179
 30
0.0
 10
109.416781
 20
102.140390
 30
0.0
 10
110.349988
 20
101.962347
 30
0.0
 10
111.268311
 20
101.954079
 30
0.0
 10
112.155217
 20
102.110624
 30
0.0
 10
112.994718
 20
102.427022
 30
0.0
 10
113.391593
 20
102.644201
 30
0.0
 10
113.770829
 20
102.899965
 30
0.0
 10
114.129669
 20
103.193762
 30
0.0
 10
114.467015
 20
103.524491
 30
0.0
 10
114.780104
 20
103.892152
 30
0.0
 10
115.067287
 20
104.296193
 30
0.0
 10
115.377622
 20
104.839140
 30
0.0
 10
115.561727
 20
105.373268
 30
0.0
 10
115.649921
 20
106.032521
 30
0.0
 10
115.672521
 20
106.950294
 30
0.0
 10
115.627874
 20
108.156354
 30
0.0
 10
115.557318
 20
108.616067
 30
0.0
 10
115.439908
 20
109.016801
 30
0.0
 10
115.265726
 20
109.386666
 30
0.0
 10
115.025394
 20
109.752122
 30
0.0
 10
114.301650
 20
110.579496
 30
0.0
 10
113.843589
 20
111.000624
 30
0.0
 10
113.349150
 20
111.349544
 30
0.0
 10
112.824944
 20
111.626805
 30
0.0
 10
112.278139
 20
111.833511
 30
0.0
 10
111.713694
 20
111.971314
 30
0.0
 10
111.139327
 20
112.040216
 30
0.0
 10
110.561102
 20
112.042972
 30
0.0
 10
109.986184
 20
111.979032
 30
0.0
 10
109.420086
 20
111.850598
 30
0.0
 10
108.869422
 20
111.658224
 30
0.0
 10
108.341359
 20
111.403011
 30
0.0
 10
107.841958
 20
111.086614
 30
0.0
 10
107.377835
 20
110.709583
 30
0.0
 10
106.955052
 20
110.273020
 30
0.0
 10
106.580778
 20
109.778029
 30
0.0
 10
106.261624
 20
109.225711
 30
0.0
 10
106.058777
 20
108.768754
 30
0.0
 10
105.903334
 20
108.306835
 30
0.0
 10
105.795294
 20
107.842712
 30
0.0
 10
105.735765
 20
107.379691
 30
0.0
 10
105.724188
 20
106.919426
 30
0.0
 10
105.760569
 20
106.465225
 30
0.0
 10
105.846006
 20
106.020394
 30
0.0
 10
105.979952
 20
105.586588
 30
0.0
 10
106.262724
 20
104.735511
 30
0.0
 10
106.402735
 20
104.142404
 30
0.0
 10
106.302413
 20
103.954439
 30
0.0
 10
105.985464
 20
103.591740
 30
0.0
 10
104.709402
 20
102.353159
 30
0.0
 10
102.596043
 20
100.446505
 30
0.0
 10
99.666333
 20
97.891071
 30
0.0
 10
92.891896
 20
92.048189
 30
0.0
 10
90.871143
 20
94.059574
 30
0.0
 10
89.757686
 20
95.140507
 30
0.0
 10
89.009137
 20
95.762829
 30
0.0
 10
88.708725
 20
95.945833
 30
0.0
 10
88.424849
 20
96.065998
 30
0.0
 10
87.804731
 20
96.188919
 30
0.0
 10
87.348324
 20
96.214826
 30
0.0
 10
86.906801
 20
96.193328
 30
0.0
 10
86.521503
 20
96.128836
 30
0.0
 10
86.233216
 20
96.025759
 30
0.0
 10
84.882737
 20
95.055069
 30
0.0
 10
82.373607
 20
93.115893
 30
0.0
 10
79.039306
 20
90.487147
 30
0.0
 10
76.729713
 20
91.607217
 30
0.0
 10
74.428941
 20
92.618697
 30
0.0
 10
72.141397
 20
93.476939
 30
0.0
 10
70.530747
 20
94.080520
 30
0.0
 10
70.039615
 20
94.322504
 30
0.0
 10
69.858265
 20
94.480151
 30
0.0
 10
69.287755
 20
99.156662
 30
0.0
 10
68.953170
 20
101.676267
 30
0.0
 10
68.701264
 20
103.078007
 30
0.0
 10
68.571176
 20
103.498585
 30
0.0
 10
68.421246
 20
103.805060
 30
0.0
 10
68.236037
 20
104.053658
 30
0.0
 10
68.002321
 20
104.298949
 30
0.0
 10
67.282434
 20
105.018285
 30
0.0
 10
59.812364
 20
105.018285
 30
0.0
 10
52.341745
 20
105.018285
 30
0.0
 10
51.603115
 20
104.279657
 30
0.0
 10
51.362236
 20
104.028302
 30
0.0
 10
51.172617
 20
103.779153
 30
0.0
 10
51.019931
 20
103.477087
 30
0.0
 10
50.890394
 20
103.067534
 30
0.0
 10
50.642900
 20
101.706032
 30
0.0
 10
50.318234
 20
99.254778
 30
0.0
 10
49.767017
 20
94.597009
 30
0.0
 10
49.733393
 20
94.495585
 30
0.0
 10
49.634175
 20
94.385893
 30
0.0
 10
49.225173
 20
94.136744
 30
0.0
 10
48.515760
 20
93.837985
 30
0.0
 10
47.483334
 20
93.476939
 30
0.0
 10
45.190829
 20
92.616492
 30
0.0
 10
42.879584
 20
91.600051
 30
0.0
 10
40.555109
 20
90.472816
 30
0.0
 10
37.387275
 20
92.970373
 30
0.0
 10
34.883656
 20
94.928289
 30
0.0
 10
34.078879
 20
95.521948
 30
0.0
 10
33.482465
 20
95.910555
 30
0.0
 10
33.028815
 20
96.132695
 30
0.0
 10
32.650129
 20
96.228055
 30
0.0
 10
32.279162
 20
96.234669
 30
0.0
 10
31.850317
 20
96.192226
 30
0.0
 10
31.221933
 20
96.073715
 30
0.0
 10
30.943015
 20
95.962920
 30
0.0
 10
30.656935
 20
95.798107
 30
0.0
 10
29.970672
 20
95.243033
 30
0.0
 10
28.978486
 20
94.285021
 30
0.0
 10
27.181523
 20
92.498532
 30
0.0
 10
20.460556
 20
98.280780
 30
0.0
 10
17.455881
 20
100.892990
 30
0.0
 10
15.384414
 20
102.758854
 30
0.0
 10
14.199852
 20
103.921366
 30
0.0
 10
13.925347
 20
104.252647
 30
0.0
 10
13.855343
 20
104.424075
 30
0.0
 10
14.350885
 20
105.820303
 30
0.0
 10
14.487036
 20
106.266236
 30
0.0
 10
14.571371
 20
106.720438
 30
0.0
 10
14.603893
 20
107.181805
 30
0.0
 10
14.585152
 20
107.650338
 30
0.0
 10
14.515148
 20
108.124383
 30
0.0
 10
14.393880
 20
108.603940
 30
0.0
 10
14.220799
 20
109.088458
 30
0.0
 10
13.997005
 20
109.576284
 30
0.0
 10
13.627691
 20
110.190889
 30
0.0
 10
13.190026
 20
110.729426
 30
0.0
 10
12.693381
 20
111.189691
 30
0.0
 10
12.147678
 20
111.571132
 30
0.0
 10
11.561185
 20
111.872647
 30
0.0
 10
10.943273
 20
112.092030
 30
0.0
 10
10.303863
 20
112.229283
 30
0.0
 10
9.651224
 20
112.282751
 30
0.0
 10
9.651224
 20
112.282751
 30
0.0
  0
LWPOLYLINE
  5
101
100
AcDbEntity
  8
0
 62
7
100
AcDbPolyline
 90
107
 70
0
 10
40.905129
 20
84.351018
 30
0.0
 10
43.053766
 20
84.284323
 30
0.0
 10
45.202956
 20
84.217073
 30
0.0
 10
45.554080
 20
82.239866
 30
0.0
 10
45.905754
 20
80.263207
 30
0.0
 10
47.359309
 20
79.693251
 30
0.0
 10
48.812863
 20
79.123845
 30
0.0
 10
50.534309
 20
80.313366
 30
0.0
 10
52.255204
 20
81.503441
 30
0.0
 10
53.742933
 20
80.002482
 30
0.0
 10
55.230664
 20
78.500972
 30
0.0
 10
54.032874
 20
76.785589
 30
0.0
 10
52.834530
 20
75.069658
 30
0.0
 10
53.446933
 20
73.683351
 30
0.0
 10
54.102326
 20
72.228143
 30
0.0
 10
54.727406
 20
72.069943
 30
0.0
 10
56.169384
 20
71.787171
 30
0.0
 10
58.192894
 20
71.415650
 30
0.0
 10
58.126197
 20
69.286857
 30
0.0
 10
58.059502
 20
67.157513
 30
0.0
 10
56.306086
 20
66.848282
 30
0.0
 10
54.992539
 20
66.548971
 30
0.0
 10
54.534479
 20
66.394629
 30
0.0
 10
54.296354
 20
66.262891
 30
0.0
 10
53.961765
 20
65.680254
 30
0.0
 10
53.519142
 20
64.666018
 30
0.0
 10
52.998795
 20
63.345859
 30
0.0
 10
53.320703
 20
62.861893
 30
0.0
 10
45.581642
 20
62.861893
 30
0.0
 10
44.604888
 20
65.197942
 30
0.0
 10
45.138463
 20
65.642772
 30
0.0
 10
45.564003
 20
65.959722
 30
0.0
 10
45.837406
 20
66.095872
 30
0.0
 10
45.948751
 20
66.179105
 30
0.0
 10
46.128998
 20
66.399040
 30
0.0
 10
46.596979
 20
67.117273
 30
0.0
 10
46.954168
 20
67.889526
 30
0.0
 10
47.148195
 20
68.688238
 30
0.0
 10
47.184023
 20
69.490254
 30
0.0
 10
47.067167
 20
70.274084
 30
0.0
 10
46.803684
 20
71.017672
 30
0.0
 10
46.399093
 20
71.699526
 30
0.0
 10
45.857799
 20
72.296491
 30
0.0
 10
45.538095
 20
72.556666
 30
0.0
 10
45.186421
 20
72.787626
 30
0.0
 10
44.671585
 20
73.039532
 30
0.0
 10
44.116511
 20
73.220329
 30
0.0
 10
43.537182
 20
73.330573
 30
0.0
 10
42.951240
 20
73.369709
 30
0.0
 10
42.374119
 20
73.338289
 30
0.0
 10
41.822352
 20
73.235764
 30
0.0
 10
41.313031
 20
73.062129
 30
0.0
 10
40.862136
 20
72.817392
 30
0.0
 10
40.428879
 20
72.493276
 30
0.0
 10
40.047989
 20
72.142152
 30
0.0
 10
39.719466
 20
71.766224
 30
0.0
 10
39.444409
 20
71.369899
 30
0.0
 10
39.221719
 20
70.955936
 30
0.0
 10
39.052496
 20
70.527091
 30
0.0
 10
38.936739
 20
70.087222
 30
0.0
 10
38.875003
 20
69.639084
 30
0.0
 10
38.867287
 20
69.185985
 30
0.0
 10
38.913589
 20
68.730681
 30
0.0
 10
39.015014
 20
68.277032
 30
0.0
 10
39.170456
 20
67.827790
 30
0.0
 10
39.381572
 20
67.386818
 30
0.0
 10
39.647256
 20
66.955769
 30
0.0
 10
39.968614
 20
66.539601
 30
0.0
 10
40.346197
 20
66.139969
 30
0.0
 10
41.401776
 20
65.124629
 30
0.0
 10
41.051752
 20
64.270247
 30
0.0
 10
40.480695
 20
62.861893
 30
0.0
 10
32.752655
 20
62.861893
 30
0.0
 10
33.105433
 20
63.378932
 30
0.0
 10
32.475947
 20
64.916270
 30
0.0
 10
31.845906
 20
66.454161
 30
0.0
 10
29.877516
 20
66.805838
 30
0.0
 10
27.908576
 20
67.157513
 30
0.0
 10
27.908576
 20
69.259848
 30
0.0
 10
27.908576
 20
71.362183
 30
0.0
 10
29.852712
 20
71.740316
 30
0.0
 10
31.278707
 20
72.068289
 30
0.0
 10
31.754404
 20
72.214912
 30
0.0
 10
31.978198
 20
72.324603
 30
0.0
 10
32.258766
 20
72.855977
 30
0.0
 10
32.678242
 20
73.843202
 30
0.0
 10
33.196385
 20
75.155095
 30
0.0
 10
32.130335
 20
76.680308
 30
0.0
 10
31.377375
 20
77.853294
 30
0.0
 10
31.148620
 20
78.284344
 30
0.0
 10
31.064283
 20
78.530738
 30
0.0
 10
31.170670
 20
78.762248
 30
0.0
 10
31.459504
 20
79.151407
 30
0.0
 10
32.409800
 20
80.187140
 30
0.0
 10
33.754767
 20
81.518876
 30
0.0
 10
35.562753
 20
80.324943
 30
0.0
 10
37.370739
 20
79.131010
 30
0.0
 10
38.716806
 20
79.709786
 30
0.0
 10
39.199669
 20
79.928068
 30
0.0
 10
39.575047
 20
80.139735
 30
0.0
 10
39.863885
 20
80.384475
 30
0.0
 10
40.088229
 20
80.701422
 30
0.0
 10
40.267925
 20
81.128616
 30
0.0
 10
40.424471
 20
81.706288
 30
0.0
 10
40.754098
 20
83.465769
 30
0.0
 10
40.905129
 20
84.351018
 30
0.0
 10
40.905129
 20
84.351018
 30
0.0
  0
LWPOLYLINE
  5
102
100
AcDbEntity
  8
0
 62
7
100
AcDbPolyline
 90
107
 70
0
 10
74.794947
 20
84.117304
 30
0.0
 10
76.944137
 20
84.050607
 30
0.0
 10
79.092773
 20
83.983359
 30
0.0
 10
79.444448
 20
82.006149
 30
0.0
 10
79.795572
 20
80.029490
 30
0.0
 10
81.249126
 20
79.459534
 30
0.0
 10
82.703234
 20
78.890128
 30
0.0
 10
84.424126
 20
80.079652
 30
0.0
 10
86.145021
 20
81.269727
 30
0.0
 10
87.632753
 20
79.768768
 30
0.0
 10
89.121032
 20
78.267255
 30
0.0
 10
87.922691
 20
76.551875
 30
0.0
 10
86.724901
 20
74.835941
 30
0.0
 10
87.336750
 20
73.449634
 30
0.0
 10
87.992696
 20
71.993876
 30
0.0
 10
88.617773
 20
71.836226
 30
0.0
 10
90.059754
 20
71.553454
 30
0.0
 10
92.082712
 20
71.181934
 30
0.0
 10
92.016017
 20
69.053143
 30
0.0
 10
91.949319
 20
66.923796
 30
0.0
 10
90.196454
 20
66.614565
 30
0.0
 10
88.882907
 20
66.315254
 30
0.0
 10
88.424849
 20
66.160915
 30
0.0
 10
88.186724
 20
66.029174
 30
0.0
 10
87.852136
 20
65.446540
 30
0.0
 10
87.409510
 20
64.432304
 30
0.0
 10
86.889162
 20
63.112145
 30
0.0
 10
87.055628
 20
62.861893
 30
0.0
 10
79.373892
 20
62.861893
 30
0.0
 10
78.494705
 20
64.964228
 30
0.0
 10
79.028280
 20
65.409058
 30
0.0
 10
79.453820
 20
65.726005
 30
0.0
 10
79.727223
 20
65.862158
 30
0.0
 10
79.838568
 20
65.945391
 30
0.0
 10
80.018815
 20
66.165324
 30
0.0
 10
80.486796
 20
66.883559
 30
0.0
 10
80.843985
 20
67.655810
 30
0.0
 10
81.038013
 20
68.454521
 30
0.0
 10
81.073841
 20
69.256540
 30
0.0
 10
80.956984
 20
70.040367
 30
0.0
 10
80.693504
 20
70.783958
 30
0.0
 10
80.288910
 20
71.465810
 30
0.0
 10
79.747617
 20
72.062777
 30
0.0
 10
79.427912
 20
72.322950
 30
0.0
 10
79.076238
 20
72.553909
 30
0.0
 10
78.561403
 20
72.805815
 30
0.0
 10
78.006328
 20
72.986615
 30
0.0
 10
77.427552
 20
73.096857
 30
0.0
 10
76.841058
 20
73.135992
 30
0.0
 10
76.263936
 20
73.104573
 30
0.0
 10
75.712722
 20
73.002047
 30
0.0
 10
75.203398
 20
72.828415
 30
0.0
 10
74.752503
 20
72.583675
 30
0.0
 10
74.319250
 20
72.259560
 30
0.0
 10
73.938360
 20
71.908436
 30
0.0
 10
73.609836
 20
71.532507
 30
0.0
 10
73.334227
 20
71.136185
 30
0.0
 10
73.112087
 20
70.722222
 30
0.0
 10
72.942863
 20
70.293377
 30
0.0
 10
72.827110
 20
69.853505
 30
0.0
 10
72.765374
 20
69.405367
 30
0.0
 10
72.757105
 20
68.952268
 30
0.0
 10
72.803959
 20
68.496965
 30
0.0
 10
72.904831
 20
68.043315
 30
0.0
 10
73.060273
 20
67.594074
 30
0.0
 10
73.271390
 20
67.153101
 30
0.0
 10
73.537074
 20
66.722052
 30
0.0
 10
73.858985
 20
66.305884
 30
0.0
 10
74.236017
 20
65.906255
 30
0.0
 10
75.291593
 20
64.890915
 30
0.0
 10
74.942123
 20
64.036533
 30
0.0
 10
74.465322
 20
62.861893
 30
0.0
 10
66.802326
 20
62.861893
 30
0.0
 10
66.995803
 20
63.145216
 30
0.0
 10
66.365765
 20
64.682556
 30
0.0
 10
65.736277
 20
66.220447
 30
0.0
 10
63.767336
 20
66.572122
 30
0.0
 10
61.798946
 20
66.923796
 30
0.0
 10
61.798946
 20
69.026131
 30
0.0
 10
61.798946
 20
71.128467
 30
0.0
 10
63.742532
 20
71.506602
 30
0.0
 10
65.169075
 20
71.834573
 30
0.0
 10
65.644775
 20
71.981198
 30
0.0
 10
65.868568
 20
72.090890
 30
0.0
 10
66.148586
 20
72.622260
 30
0.0
 10
66.568059
 20
73.609488
 30
0.0
 10
67.086202
 20
74.921378
 30
0.0
 10
66.020153
 20
76.446592
 30
0.0
 10
65.267192
 20
77.619578
 30
0.0
 10
65.038437
 20
78.050630
 30
0.0
 10
64.954101
 20
78.297021
 30
0.0
 10
65.060487
 20
78.528534
 30
0.0
 10
65.349322
 20
78.917690
 30
0.0
 10
66.299618
 20
79.953423
 30
0.0
 10
67.645135
 20
81.285159
 30
0.0
 10
69.453121
 20
80.091226
 30
0.0
 10
71.260556
 20
78.897297
 30
0.0
 10
72.606624
 20
79.476072
 30
0.0
 10
73.089489
 20
79.694351
 30
0.0
 10
73.464864
 20
79.906018
 30
0.0
 10
73.753702
 20
80.150758
 30
0.0
 10
73.978046
 20
80.467708
 30
0.0
 10
74.157743
 20
80.894899
 30
0.0
 10
74.314288
 20
81.472574
 30
0.0
 10
74.643915
 20
83.232052
 30
0.0
 10
74.794947
 20
84.117304
 30
0.0
 10
74.794947
 20
84.117304
 30
0.0
  0
LWPOLYLINE
  5
103
100
AcDbEntity
  8
0
 62
7
100
AcDbPolyline
 90
41
 70
0
 10
39.373854
 20
46.991301
 30
0.0
 10
59.412182
 20
46.966497
 30
0.0
 10
81.358267
 20
46.959881
 30
0.0
 10
82.218164
 20
46.963189
 30
0.0
 10
81.763411
 20
46.329843
 30
0.0
 10
81.175266
 20
45.548770
 30
0.0
 10
80.541920
 20
44.782032
 30
0.0
 10
79.152856
 20
43.300915
 30
0.0
 10
77.623234
 20
41.904686
 30
0.0
 10
75.977305
 20
40.612088
 30
0.0
 10
74.240976
 20
39.441857
 30
0.0
 10
72.440708
 20
38.412186
 30
0.0
 10
70.600752
 20
37.541818
 30
0.0
 10
69.674157
 20
37.172505
 30
0.0
 10
68.747015
 20
36.849490
 30
0.0
 10
67.284641
 20
36.434426
 30
0.0
 10
65.746197
 20
36.104249
 30
0.0
 10
64.156493
 20
35.860612
 30
0.0
 10
62.540330
 20
35.704616
 30
0.0
 10
60.924718
 20
35.639022
 30
0.0
 10
59.333360
 20
35.664380
 30
0.0
 10
57.792161
 20
35.783441
 30
0.0
 10
56.327030
 20
35.997865
 30
0.0
 10
55.090654
 20
36.258037
 30
0.0
 10
53.869162
 20
36.578294
 30
0.0
 10
52.664756
 20
36.956977
 30
0.0
 10
51.480747
 20
37.392438
 30
0.0
 10
50.318234
 20
37.883019
 30
0.0
 10
49.181626
 20
38.427070
 30
0.0
 10
48.072030
 20
39.022934
 30
0.0
 10
46.992753
 20
39.668958
 30
0.0
 10
45.946544
 20
40.363490
 30
0.0
 10
44.935615
 20
41.105424
 30
0.0
 10
43.963272
 20
41.892008
 30
0.0
 10
43.031169
 20
42.722140
 30
0.0
 10
42.142059
 20
43.594711
 30
0.0
 10
41.299250
 20
44.506975
 30
0.0
 10
40.504947
 20
45.458372
 30
0.0
 10
39.761909
 20
46.446700
 30
0.0
 10
39.373854
 20
46.991301
 30
0.0
 10
39.373854
 20
46.991301
 30
0.0
  0
ENDSEC
  0
SECTION
  2
OBJECTS
  0
DICTIONARY
  5
C
330
0
100
AcDbDictionary
  3
ACAD_GROUP
350
D
  3
ACAD_MLINESTYLE
350
17
  0
DICTIONARY
  5
D
330
C
100
AcDbDictionary
  0
DICTIONARY
  5
1A
330
C
100
AcDbDictionary
  0
DICTIONARY
  5
17
330
C
100
AcDbDictionary
  3
STANDARD
350
18
  0
DICTIONARY
  5
19
330
C
100
AcDbDictionary
  0
ENDSEC
  0
EOF
