<?xml version="1.0" encoding="UTF-8" standalone="no"?>
<!-- Created with Inkscape (http://www.inkscape.org/) -->

<svg
   xmlns:dc="http://purl.org/dc/elements/1.1/"
   xmlns:cc="http://creativecommons.org/ns#"
   xmlns:rdf="http://www.w3.org/1999/02/22-rdf-syntax-ns#"
   xmlns:svg="http://www.w3.org/2000/svg"
   xmlns="http://www.w3.org/2000/svg"
   xmlns:sodipodi="http://sodipodi.sourceforge.net/DTD/sodipodi-0.dtd"
   xmlns:inkscape="http://www.inkscape.org/namespaces/inkscape"
   width="297mm"
   height="420mm"
   viewBox="0 0 1052.3621 1488.189"
   id="svg3438"
   version="1.1"
   inkscape:version="0.91 r13725"
   sodipodi:docname="ripolab_A3.svg"
   inkscape:export-filename="/home/akirasan/devs/ripolab/logos/ripolab_A3.png"
   inkscape:export-xdpi="180"
   inkscape:export-ydpi="180">
  <defs
     id="defs3440" />
  <sodipodi:namedview
     id="base"
     pagecolor="#ffffff"
     bordercolor="#666666"
     borderopacity="1.0"
     inkscape:pageopacity="0.0"
     inkscape:pageshadow="2"
     inkscape:zoom="0.31855469"
     inkscape:cx="806.26823"
     inkscape:cy="229.4093"
     inkscape:document-units="mm"
     inkscape:current-layer="layer1"
     showgrid="false"
     units="mm"
     inkscape:window-width="1858"
     inkscape:window-height="1053"
     inkscape:window-x="62"
     inkscape:window-y="27"
     inkscape:window-maximized="1" />
  <metadata
     id="metadata3443">
    <rdf:RDF>
      <cc:Work
         rdf:about="">
        <dc:format>image/svg+xml</dc:format>
        <dc:type
           rdf:resource="http://purl.org/dc/dcmitype/StillImage" />
        <dc:title></dc:title>
      </cc:Work>
    </rdf:RDF>
  </metadata>
  <g
     inkscape:label="Capa 1"
     inkscape:groupmode="layer"
     id="layer1"
     transform="translate(0,435.82682)">
    <g
       id="g4146"
       transform="matrix(5.517979,0,0,5.517979,28.493747,-5006.9323)">
      <text
         sodipodi:linespacing="125%"
         id="text3471"
         y="1040.6379"
         x="0.88669294"
         style="font-style:normal;font-weight:normal;font-size:38.02955627px;line-height:125%;font-family:sans-serif;letter-spacing:0px;word-spacing:0px;fill:#000000;fill-opacity:1;stroke:none;stroke-width:1px;stroke-linecap:butt;stroke-linejoin:miter;stroke-opacity:1"
         xml:space="preserve"><tspan
           style="font-style:normal;font-variant:normal;font-weight:normal;font-stretch:normal;font-size:47.53694534px;font-family:'Share Tech Mono';-inkscape-font-specification:'Share Tech Mono'"
           y="1040.6379"
           x="0.88669294"
           id="tspan3473"
           sodipodi:role="line">RipoLab</tspan></text>
      <text
         transform="matrix(0,-1,1,0,0,0)"
         sodipodi:linespacing="125%"
         id="text3475"
         y="175.91605"
         x="-995.17719"
         style="font-style:normal;font-weight:normal;font-size:31.83673477px;line-height:125%;font-family:sans-serif;letter-spacing:0px;word-spacing:0px;fill:#000000;fill-opacity:1;stroke:none;stroke-width:1px;stroke-linecap:butt;stroke-linejoin:miter;stroke-opacity:1"
         xml:space="preserve"><tspan
           style="font-style:normal;font-variant:normal;font-weight:normal;font-stretch:normal;font-family:'Share Tech Mono';-inkscape-font-specification:'Share Tech Mono'"
           y="175.91605"
           x="-995.17719"
           id="tspan3477"
           sodipodi:role="line">hacklab</tspan></text>
      <path
         inkscape:connector-curvature="0"
         id="path4142"
         transform="translate(-7.6293945e-6,872.36216)"
         d="m 20.984375,6.5410156 c -1.62791,-0.027434 -3.283173,0.6017388 -4.523437,1.9472656 -2.83927,3.0802498 -2.012627,7.6247228 1.751953,9.6269528 1.20081,0.63865 3.932511,0.611306 5.269531,-0.05273 l 1.068359,-0.529297 0.791016,0.949219 c 0.43473,0.52252 3.561989,4.160444 6.949219,8.083984 l 6.158203,7.132813 -2.212891,2.273437 c -2.07987,2.13788 -2.211917,2.348017 -2.210937,3.498047 0.0013,1.48337 0.249283,1.896406 3.876953,6.509766 1.56079,1.98493 2.835937,3.69864 2.835937,3.80664 0,0.1081 -0.612338,1.503716 -1.361328,3.103516 -0.749,1.5998 -1.710789,3.979209 -2.136719,5.287109 -0.42592,1.3078 -0.803543,2.414985 -0.839843,2.458985 -0.03634,0.0445 -2.19023,0.329812 -4.78711,0.632812 -5.78081,0.6746 -6.584697,0.885203 -7.498047,1.970703 l -0.720703,0.855469 0,8.761719 0,8.761719 0.796875,0.851562 c 0.95633,1.0238 1.060406,1.053225 6.197266,1.703125 3.77793,0.4783 7.22141,0.514875 50.15625,0.546875 44.981078,0.0332 46.212768,0.02013 50.769528,-0.542969 2.56856,-0.3174 5.08791,-0.775678 5.59766,-1.017578 1.69211,-0.803 1.74023,-1.100662 1.74023,-10.539062 l 0,-8.525391 -0.71875,-0.855469 c -0.91237,-1.0843 -1.71155,-1.294868 -7.50781,-1.980468 -2.6017,-0.3077 -4.75561,-0.59086 -4.78711,-0.63086 -0.0315,-0.0397 -0.4061,-1.143372 -0.83203,-2.451172 -0.42592,-1.3079 -1.38772,-3.687209 -2.13672,-5.287109 -0.74899,-1.5998 -1.36133,-2.999781 -1.36133,-3.113281 0,-0.1135 1.44832,-2.059939 3.21875,-4.324219 1.77044,-2.26433 3.29593,-4.425354 3.39063,-4.802734 0.38652,-1.54002 -0.0942,-2.657281 -1.96094,-4.556641 l -1.80273,-1.833984 6.30078,-7.273438 c 3.46492,-4.00048 6.65503,-7.702099 7.08984,-8.224609 l 0.79102,-0.949219 0.94531,0.449219 c 2.95809,1.40371 6.13245,0.533284 7.87891,-2.160157 0.61219,-0.944129 0.72461,-1.435304 0.72461,-3.177734 0,-2.31582 -0.19531,-2.83216 -1.64063,-4.3437499 -2.7944,-2.92252 -7.77222,-2.0837162 -9.62305,1.6210939 -0.72322,1.44767 -0.84393,2.993619 -0.33789,4.355469 0.25333,0.68173 0.48106,1.459635 0.50586,1.728515 0.0295,0.32059 -2.74572,2.896352 -8.0625,7.482422 l -8.10742,6.994141 -2.41992,-2.408203 c -2.17527,-2.1652 -2.54436,-2.421958 -3.66992,-2.548828 -0.71864,-0.081 -1.51974,0.0021 -1.88086,0.195312 -0.34592,0.18514 -2.42595,1.751962 -4.6211,3.482422 l -3.99023,3.146484 -2.76367,-1.339844 c -1.520413,-0.73748 -3.99201,-1.745071 -5.49219,-2.238281 -1.50017,-0.49321 -2.729422,-1.033792 -2.732422,-1.201172 -0.0028,-0.16737 -0.310964,-2.686416 -0.683594,-5.597656 -0.65885,-5.14735 -0.701382,-5.316617 -1.539062,-6.154297 l -0.861328,-0.861328 -8.941406,0 -8.941407,0 -0.884765,0.884766 c -0.86428,0.86429 -0.89773,0.998942 -1.53711,6.013672 C 69.300376,24.956526 69.003,27.464674 69,27.708984 c -0.004,0.31252 -0.813412,0.710897 -2.732422,1.341797 -1.50017,0.49321 -3.981359,1.503814 -5.511719,2.246094 l -2.78125,1.349609 -3.792968,-2.990234 c -5.16034,-4.06859 -5.092754,-4.028399 -6.626953,-3.855469 -1.15233,0.12989 -1.510861,0.367863 -3.4375,2.283203 l -2.150391,2.136719 -8.044922,-6.919922 c -5.56466,-4.78718 -8.00235,-7.054815 -7.90625,-7.353515 0.07638,-0.23751 0.34393,-0.990135 0.59375,-1.671875 C 27.125735,12.866271 26.981897,11.3446 26.185547,9.78125 25.124678,7.6985881 23.077402,6.5762882 20.984375,6.5410156 Z m 37.408203,33.4335934 2.572266,0.08008 2.572265,0.08008 0.419922,2.365234 0.421875,2.367188 1.740235,0.68164 1.738281,0.681641 2.060547,-1.423828 2.060547,-1.423829 1.78125,1.796876 1.779296,1.796874 -1.433593,2.052735 -1.433594,2.054687 0.732422,1.658204 c 0.40284,0.912599 0.756256,1.696187 0.785156,1.742187 0.0289,0.0456 1.142719,0.282744 2.474609,0.527344 l 2.421876,0.445312 -0.08008,2.548828 -0.08008,2.546875 -2.097656,0.371094 c -1.15398,0.2037 -2.2371,0.519372 -2.40625,0.701172 -0.16915,0.1818 -0.587217,1.041056 -0.929687,1.910156 l -0.623047,1.580078 0.398437,0.59961 -9.269531,0 -1.177735,-2.816406 0.640626,-0.53125 c 0.35129,-0.292901 0.727017,-0.542969 0.835937,-0.542969 0.10891,-0.0051 0.517053,-0.555256 0.908203,-1.222657 1.40671,-2.400399 0.65832,-5.412309 -1.6875,-6.787109 -1.56158,-0.9153 -3.847491,-0.930256 -5.175781,-0.03516 -2.93195,1.9759 -3.204068,5.504787 -0.617188,7.992187 l 1.263672,1.214844 -0.419922,1.023438 c -0.09917,0.242301 -0.454355,1.121075 -0.691406,1.705078 l -9.255859,0 0.435547,-0.638672 -0.751953,-1.839844 -0.753907,-1.839844 -2.357422,-0.421875 -2.355468,-0.421875 0,-2.515625 0,-2.515625 2.326171,-0.453125 c 1.279721,-0.2488 2.425392,-0.563318 2.544922,-0.699218 0.11952,-0.1358 0.494808,-0.95446 0.835938,-1.81836 l 0.621094,-1.570312 -1.275391,-1.824219 c -0.70181,-1.004 -1.277344,-2.000644 -1.277344,-2.214844 0,-0.21415 0.725598,-1.107905 1.611328,-1.984375 l 1.609375,-1.59375 2.164063,1.429688 2.164062,1.429687 1.611329,-0.693359 c 1.73514,-0.74653 1.829593,-0.919374 2.439453,-4.496094 l 0.179687,-1.058594 z m 40.564453,0.279297 2.572269,0.08008 2.57226,0.08008 0.41992,2.367188 0.42188,2.365234 1.74023,0.681641 1.73829,0.681641 2.06054,-1.423828 2.06055,-1.423829 1.78125,1.796875 1.7793,1.796875 -1.4336,2.052735 -1.43359,2.054687 0.73242,1.658203 c 0.40284,0.9126 0.75626,1.696188 0.78516,1.742188 0.0289,0.0456 1.14272,0.282844 2.47461,0.527344 l 2.42187,0.445312 -0.0801,2.548828 -0.0801,2.546875 -2.09765,0.371094 c -1.15398,0.2037 -2.2371,0.519372 -2.40625,0.701172 -0.16915,0.1818 -0.58722,1.040956 -0.92969,1.910156 l -0.62305,1.580078 0.21289,0.320313 -9.20117,0 -1.06054,-2.535156 0.63867,-0.533204 c 0.35129,-0.2929 0.72897,-0.542968 0.83789,-0.542968 0.10891,-0.0051 0.51705,-0.555157 0.9082,-1.222657 1.40671,-2.4003 0.65832,-5.412409 -1.6875,-6.787109 -1.56158,-0.9153 -3.84749,-0.930356 -5.17578,-0.03516 -2.93195,1.9758 -3.204058,5.504887 -0.617188,7.992187 l 1.263672,1.214844 -0.419922,1.023437 c -0.08289,0.202561 -0.393756,0.971838 -0.578124,1.425782 l -9.177735,0 0.244141,-0.359375 -0.753906,-1.839844 -0.751954,-1.839844 -2.357422,-0.421875 -2.355468,-0.419922 0,-2.517578 0,-2.515625 2.326172,-0.453125 c 1.27973,-0.2489 2.425402,-0.563418 2.544922,-0.699218 0.119529,-0.1358 0.494807,-0.95446 0.835937,-1.81836 l 0.621094,-1.570312 -1.275391,-1.824219 c -0.70181,-1.0039 -1.277344,-2.000744 -1.277344,-2.214844 0,-0.2142 0.725608,-1.107895 1.611328,-1.984375 l 1.609376,-1.591797 2.164062,1.427735 2.164062,1.429687 1.611329,-0.693359 c 1.73514,-0.74653 1.829593,-0.919374 2.439453,-4.496094 l 0.179687,-1.058594 z M 47.716797,89.230469 c -5.11369,0 -6.978516,0.08807 -6.978516,0.326172 0,0.1788 0.699665,1.701665 1.552735,3.384765 l 1.550781,3.060547 -1.097656,1.439453 c -0.60337,0.7924 -2.243342,2.888804 -3.644532,4.658204 -1.40119,1.7694 -2.550734,3.47236 -2.552734,3.78516 -0.0029,0.3702 1.931912,2.49715 5.544922,6.09375 4.5084,4.488 5.651397,5.48736 6.085937,5.32226 0.29419,-0.1118 2.576276,-1.82298 5.072266,-3.80078 l 4.539062,-3.5957 2.595704,1.38672 c 2.74309,1.4651 7.118052,3.19196 9.451172,3.73046 0.76798,0.1773 1.396484,0.43904 1.396484,0.58204 0,0.1429 0.317618,2.86001 0.705078,6.0371 0.54903,4.5021 0.807125,5.85441 1.171875,6.12696 0.71946,0.5379 15.555256,0.49948 16.003906,-0.041 0.17853,-0.21525 0.642823,-3.01621 1.033203,-6.22461 0.39038,-3.2083 0.796541,-5.90804 0.900391,-5.99804 0.10386,-0.0902 1.652179,-0.62556 3.441406,-1.18946 1.78922,-0.5639 4.732436,-1.77606 6.541019,-2.69336 l 3.28906,-1.66797 4.36914,3.44532 c 2.40292,1.8943 4.66342,3.59991 5.02539,3.79101 0.62636,0.3306 0.92701,0.0802 6.22461,-5.19336 3.6244,-3.6079 5.5655,-5.74102 5.5625,-6.11132 -0.002,-0.3128 -1.15154,-2.01576 -2.55273,-3.78516 -1.4012,-1.7694 -3.04117,-3.865804 -3.64454,-4.658204 l -1.0957,-1.439453 1.55078,-3.060547 c 0.85307,-1.6831 1.55078,-3.205965 1.55078,-3.384765 0,-0.238 -1.86202,-0.326172 -6.96875,-0.326172 l -6.9707,0 -1.25391,1.748047 c -3.60638,5.0256 -9.669417,9.441354 -15.580074,11.347654 -4.51814,1.4571 -10.336014,1.85673 -14.865234,1.01953 -7.9324,-1.4661 -15.252595,-6.082556 -19.828125,-12.505856 l -1.146485,-1.609375 -6.978515,0 z"
         style="fill:#000000" />
    </g>
  </g>
</svg>
