<?xml version="1.0" encoding="UTF-8" standalone="no"?>
<!-- Created with Inkscape (http://www.inkscape.org/) -->

<svg
   xmlns:dc="http://purl.org/dc/elements/1.1/"
   xmlns:cc="http://creativecommons.org/ns#"
   xmlns:rdf="http://www.w3.org/1999/02/22-rdf-syntax-ns#"
   xmlns:svg="http://www.w3.org/2000/svg"
   xmlns="http://www.w3.org/2000/svg"
   xmlns:sodipodi="http://sodipodi.sourceforge.net/DTD/sodipodi-0.dtd"
   xmlns:inkscape="http://www.inkscape.org/namespaces/inkscape"
   width="210mm"
   height="297mm"
   viewBox="0 0 793.70074 1122.5197"
   id="svg3438"
   version="1.1"
   inkscape:version="0.92.4 (5da689c313, 2019-01-14)"
   sodipodi:docname="ripolab_180x180.svg"
   inkscape:export-filename="/home/akirasan/Documentos/Github_ripolab/Logos/ripolab_180x180.png"
   inkscape:export-xdpi="90"
   inkscape:export-ydpi="90">
  <defs
     id="defs3440" />
  <sodipodi:namedview
     id="base"
     pagecolor="#ffffff"
     bordercolor="#666666"
     borderopacity="1.0"
     inkscape:pageopacity="0.0"
     inkscape:pageshadow="2"
     inkscape:zoom="0.36058362"
     inkscape:cx="-284.47371"
     inkscape:cy="323.81925"
     inkscape:document-units="mm"
     inkscape:current-layer="layer1"
     showgrid="false"
     units="mm"
     inkscape:window-width="1860"
     inkscape:window-height="1016"
     inkscape:window-x="60"
     inkscape:window-y="27"
     inkscape:window-maximized="1" />
  <metadata
     id="metadata3443">
    <rdf:RDF>
      <cc:Work
         rdf:about="">
        <dc:format>image/svg+xml</dc:format>
        <dc:type
           rdf:resource="http://purl.org/dc/dcmitype/StillImage" />
        <dc:title></dc:title>
      </cc:Work>
    </rdf:RDF>
  </metadata>
  <g
     inkscape:label="Capa 1"
     inkscape:groupmode="layer"
     id="layer1"
     transform="translate(0,70.157525)">
    <text
       xml:space="preserve"
       style="font-style:normal;font-weight:normal;font-size:47.08723831px;line-height:0%;font-family:sans-serif;letter-spacing:0px;word-spacing:0px;fill:#000000;fill-opacity:1;stroke:none;stroke-width:3.92393661px;stroke-linecap:butt;stroke-linejoin:miter;stroke-opacity:1"
       x="46.415115"
       y="806.55383"
       id="text3471"><tspan
         sodipodi:role="line"
         id="tspan3473"
         x="46.415115"
         y="806.55383"
         style="font-style:normal;font-variant:normal;font-weight:normal;font-stretch:normal;font-size:186.5319519px;line-height:1.25;font-family:'Share Tech Mono';-inkscape-font-specification:'Share Tech Mono';stroke-width:3.92393661px">RipoLab</tspan></text>
    <text
       xml:space="preserve"
       style="font-style:normal;font-weight:normal;font-size:53.96480942px;line-height:0%;font-family:sans-serif;letter-spacing:0px;word-spacing:0px;fill:#000000;fill-opacity:1;stroke:none;stroke-width:4.49706745px;stroke-linecap:butt;stroke-linejoin:miter;stroke-opacity:1"
       x="-671.8689"
       y="733.21918"
       id="text3475"
       transform="rotate(-90)"><tspan
         sodipodi:role="line"
         id="tspan3477"
         x="-671.8689"
         y="733.21918"
         style="font-style:normal;font-variant:normal;font-weight:normal;font-stretch:normal;font-size:143.17193604px;line-height:1.25;font-family:'Share Tech Mono';-inkscape-font-specification:'Share Tech Mono';stroke-width:4.49706745px">hacklab</tspan></text>
    <g
       id="g3568"
       transform="matrix(3.9239366,0,0,3.9239366,43.696108,-3273.3549)">
      <path
         style="fill:#000000;stroke-width:0.27975366"
         d="m 17.251548,878.21334 c -1.627909,-0.0274 -3.283175,0.60369 -4.523437,1.94922 -2.8392748,3.0803 -2.012627,7.6228 1.751953,9.625 1.200808,0.6383 3.932514,0.61127 5.269531,-0.0527 l 1.06836,-0.52929 0.791015,0.94922 c 0.434734,0.5225 3.561993,4.16038 6.949219,8.08398 l 6.158203,7.13281 -2.21289,2.27539 c -2.079868,2.1379 -2.211917,2.3461 -2.210938,3.4961 0.0013,1.4834 0.247328,1.89646 3.875,6.50976 1.560791,1.9849 2.837891,3.69854 2.837891,3.80664 0,0.108 -0.612336,1.50567 -1.361328,3.10547 -0.748996,1.5998 -1.710791,3.97736 -2.136719,5.28516 -0.425928,1.3079 -0.803504,2.41498 -0.839844,2.45898 -0.03634,0.0444 -2.190227,0.32971 -4.787109,0.63281 -5.780813,0.6746 -6.586651,0.88531 -7.5,1.97071 l -0.71875,0.85547 v 8.76172 8.76171 l 0.796875,0.85157 c 0.956327,1.0237 1.060406,1.05312 6.197265,1.70312 1.895138,0.23993 3.734245,0.3685 10.488282,0.44141 v 2.92578 c -0.08456,-0.0165 -0.138672,-0.018 -0.138672,0.0156 0,0.0468 0.05287,0.19277 0.138672,0.40234 v 0.043 h 0.01953 c 0.248913,0.60132 0.774789,1.72056 1.392578,2.93946 l 1.552734,3.06054 -1.097656,1.43946 c -0.603367,0.7923 -2.243338,2.8887 -3.644531,4.6582 -1.401194,1.7694 -2.550235,3.47235 -2.552735,3.78515 -0.0029,0.3703 1.931912,2.49715 5.544922,6.09375 4.508396,4.4879 5.651399,5.48737 6.085938,5.32227 0.294197,-0.1118 2.576282,-1.82298 5.072266,-3.80078 l 4.539062,-3.5957 2.595703,1.38671 c 2.743091,1.4651 7.118054,3.19187 9.451172,3.73047 0.76798,0.1772 1.396484,0.43903 1.396484,0.58203 0,0.143 0.317622,2.85991 0.705079,6.03711 0.54903,4.5021 0.80712,5.85436 1.171874,6.12696 0.71946,0.538 15.555257,0.49958 16.003907,-0.041 0.17853,-0.2151 0.642829,-3.01621 1.033203,-6.22461 0.390377,-3.2084 0.794579,-5.90804 0.898437,-5.99805 0.103859,-0.0902 1.654134,-0.62555 3.44336,-1.18945 1.789223,-0.5639 4.732435,-1.77606 6.541015,-2.69336 l 3.287111,-1.66797 4.36914,3.44532 c 2.40292,1.8942 4.66538,3.60001 5.02735,3.79101 0.62636,0.3306 0.92701,0.0801 6.22461,-5.19336 3.6244,-3.608 5.5655,-5.74103 5.5625,-6.11133 -0.002,-0.3128 -1.15155,-2.01575 -2.55274,-3.78515 -1.4012,-1.7695 -3.04116,-3.8659 -3.64453,-4.6582 l -1.09765,-1.43946 1.55273,-3.06054 c 0.61779,-1.2189 1.14366,-2.33814 1.39258,-2.93946 h 0.19531 v -3.33203 c 6.23809,-0.0708 7.7269,-0.2152 9.96875,-0.49219 2.56856,-0.3174 5.08791,-0.77372 5.59766,-1.01562 1.69211,-0.8029 1.74023,-1.10262 1.74023,-10.54102 v -8.52539 l -0.71875,-0.85547 c -0.91237,-1.0843 -1.71155,-1.29497 -7.50781,-1.98047 -2.6017,-0.3077 -4.75561,-0.59085 -4.78711,-0.63085 -0.0315,-0.0396 -0.4061,-1.14142 -0.83203,-2.44922 -0.42592,-1.3079 -1.38772,-3.68731 -2.13672,-5.28711 -0.74899,-1.5998 -1.36133,-3.00174 -1.36133,-3.11524 0,-0.1135 1.44832,-2.05992 3.21875,-4.32422 1.77044,-2.2644 3.29593,-4.42543 3.39063,-4.80273 0.38652,-1.5401 -0.0942,-2.65724 -1.96094,-4.55664 l -1.80274,-1.83399 6.30079,-7.27343 c 3.46492,-4.0005 6.65503,-7.70211 7.08984,-8.22461 l 0.79102,-0.94922 0.94531,0.44922 c 2.95809,1.4037 6.13244,0.53324 7.8789,-2.16016 0.61219,-0.9441 0.72461,-1.43523 0.72461,-3.17773 0,-2.3158 -0.1953,-2.83215 -1.64062,-4.34375 -2.7944,-2.9225 -7.77222,-2.08371 -9.62305,1.62109 -0.72322,1.4477 -0.84393,2.99357 -0.33789,4.35547 0.25333,0.6817 0.48106,1.45962 0.50586,1.72852 0.0295,0.3205 -2.74572,2.89632 -8.0625,7.48242 l -8.10938,6.99414 -2.41796,-2.40821 c -2.17527,-2.1652 -2.54437,-2.42202 -3.66993,-2.54882 -0.71864,-0.081 -1.51974,0.002 -1.88085,0.19531 -0.34592,0.1851 -2.42595,1.75192 -4.6211,3.48242 l -3.99023,3.14649 -2.765633,-1.33985 c -1.520409,-0.73743 -3.990054,-1.74511 -5.490233,-2.23831 -1.50018,-0.4932 -2.731576,-1.03377 -2.734376,-1.20117 -0.0028,-0.1673 -0.309006,-2.68646 -0.68164,-5.59766 -0.658848,-5.1474 -0.701385,-5.31659 -1.539063,-6.15429 l -0.861328,-0.86133 h -8.941406 -8.941406 l -0.884766,0.88476 c -0.864282,0.8643 -0.897727,0.99897 -1.537109,6.01367 -0.359775,2.8218 -0.657056,5.33188 -0.660156,5.57618 -0.004,0.3125 -0.815371,0.70894 -2.734376,1.33984 -1.500177,0.4932 -3.979409,1.50379 -5.509765,2.24609 l -2.78125,1.34961 -3.792969,-2.98828 c -5.160336,-4.0685 -5.092762,-4.03032 -6.626953,-3.85742 -1.152336,0.1299 -1.510858,0.3679 -3.4375,2.2832 l -2.150391,2.13868 -8.044922,-6.92188 c -5.564658,-4.7871 -8.00231,-7.05482 -7.90625,-7.35352 0.07638,-0.2376 0.343932,-0.98822 0.59375,-1.66992 0.516361,-1.4091 0.372519,-2.93279 -0.423828,-4.49609 -1.060873,-2.08266 -3.108145,-3.20495 -5.201172,-3.24024 z m 37.408204,33.4336 2.572265,0.0801 2.572266,0.0801 0.419922,2.36523 0.421875,2.36719 1.738281,0.68164 1.740234,0.68164 2.060547,-1.42383 2.060547,-1.42382 1.78125,1.79687 1.779297,1.79687 -1.433594,2.05274 -1.433594,2.05468 0.732422,1.65821 c 0.402843,0.9126 0.756257,1.69618 0.785157,1.74218 0.0289,0.0455 1.142716,0.28275 2.474609,0.52735 l 2.421875,0.44531 -0.08008,2.54883 -0.08008,2.54687 -2.097657,0.3711 c -1.153983,0.2037 -2.237103,0.51937 -2.40625,0.70117 -0.16915,0.1818 -0.587213,1.04096 -0.929687,1.91016 l -0.623047,1.58007 1.328125,2 1.330078,1.99805 -1.65039,1.66602 c -0.90693,0.9165 -1.751883,1.66601 -1.878907,1.66601 -0.127023,0 -1.064707,-0.55136 -2.083984,-1.22656 l -1.853516,-1.22852 -0.939453,0.52735 -0.939453,0.52734 -0.240234,-0.62695 c -0.132119,-0.3458 -0.887487,-2.17972 -1.679688,-4.07422 l -1.441406,-3.44531 0.638672,-0.53125 c 0.35129,-0.2929 0.728977,-0.54297 0.83789,-0.54297 0.108912,-0.005 0.517055,-0.55526 0.908204,-1.22266 1.406713,-2.4004 0.658312,-5.41241 -1.6875,-6.78711 -1.56158,-0.9153 -3.847498,-0.93035 -5.175782,-0.0352 -2.931956,1.9758 -3.20602,5.50489 -0.61914,7.99219 l 1.263672,1.21484 -0.417969,1.02344 c -0.23026,0.5627 -0.953968,2.34534 -1.607422,3.96094 -0.653451,1.6156 -1.219946,2.97448 -1.259766,3.02148 -0.03982,0.0468 -0.4882,-0.16776 -0.996093,-0.47656 l -0.923828,-0.5625 -1.744141,1.24609 -0.002,0.002 c -0.960274,0.6853 -1.912011,1.23375 -2.115235,1.21875 -0.43392,-0.0312 -3.132582,-2.85036 -3.240234,-3.38476 -0.04054,-0.2012 0.478294,-1.17411 1.152344,-2.16211 l 1.224609,-1.79688 -0.753906,-1.83984 -0.751953,-1.83984 -2.357422,-0.42188 -2.355469,-0.41992 v -2.51762 -2.51563 l 2.326223,-0.45312 c 1.279729,-0.2488 2.423441,-0.56342 2.542969,-0.69922 0.119527,-0.1358 0.496759,-0.95261 0.83789,-1.81641 l 0.621094,-1.57226 -1.275391,-1.82422 c -0.701804,-1.0039 -1.277343,-2.00074 -1.277343,-2.21484 0,-0.2142 0.725606,-1.10593 1.611328,-1.98243 l 1.609375,-1.59375 2.164062,1.42774 2.164063,1.42969 1.611328,-0.69336 c 1.735139,-0.7465 1.829593,-0.9194 2.439453,-4.4961 z m 40.564453,0.2793 2.572265,0.0801 2.57227,0.0801 0.41992,2.36718 0.41992,2.36524 1.74024,0.68164 1.74023,0.68164 2.06055,-1.42383 2.06055,-1.42383 1.77929,1.79688 1.78125,1.79687 -1.43359,2.05274 -1.43359,2.05468 0.73242,1.65821 c 0.40284,0.9126 0.75625,1.69619 0.78515,1.74219 0.0289,0.0456 1.14272,0.28274 2.47461,0.52734 l 2.41993,0.44531 -0.0781,2.54883 -0.0801,2.54883 -2.09961,0.36914 c -1.15398,0.2037 -2.23514,0.51937 -2.40429,0.70117 -0.16915,0.1818 -0.58917,1.04106 -0.93165,1.91016 l -0.62109,1.58203 1.32813,1.99804 1.33007,1.99805 -1.65039,1.66602 c -0.90693,0.9165 -1.75187,1.66797 -1.8789,1.66797 -0.12702,0 -1.06471,-0.55332 -2.08399,-1.22852 l -1.85351,-1.22656 -0.93946,0.52734 -0.93945,0.52735 -0.24023,-0.62891 c -0.13212,-0.3458 -0.88749,-2.17962 -1.67969,-4.07422 l -1.441411,-3.44336 0.638681,-0.5332 c 0.35128,-0.2929 0.72897,-0.54297 0.83789,-0.54297 0.10891,-0.005 0.51705,-0.55526 0.9082,-1.22266 1.40671,-2.4004 0.65832,-5.41231 -1.6875,-6.78711 -1.561583,-0.9153 -3.847499,-0.93025 -5.175786,-0.0352 -2.931956,1.9759 -3.20602,5.50489 -0.619141,7.99219 l 1.263672,1.21485 -0.417969,1.02343 c -0.230257,0.5626 -0.953968,2.34534 -1.607422,3.96094 -0.653452,1.6155 -1.219945,2.97448 -1.259766,3.02148 -0.03982,0.0467 -0.488201,-0.16766 -0.996093,-0.47656 l -0.923828,-0.56054 -1.746094,1.24609 c -0.960274,0.6852 -1.91201,1.23375 -2.115235,1.21875 -0.43392,-0.0311 -3.132582,-2.84851 -3.240234,-3.38281 -0.04054,-0.2013 0.478294,-1.17597 1.152344,-2.16407 l 1.224599,-1.79492 -0.753906,-1.8418 -0.753906,-1.83984 -2.355469,-0.42187 -2.357422,-0.41993 v -2.51562 -2.51758 l 2.328125,-0.45117 c 1.279727,-0.2488 2.423442,-0.56537 2.542969,-0.70117 0.119528,-0.1359 0.496758,-0.95251 0.83789,-1.81641 l 0.621094,-1.57031 -1.277344,-1.82617 c -0.701804,-1.004 -1.27539,-2.00065 -1.27539,-2.21485 0,-0.2141 0.725605,-1.10592 1.611328,-1.98242 l 1.609375,-1.59375 2.164063,1.42969 2.164062,1.42773 1.611328,-0.69336 c 1.735138,-0.7465 1.827639,-0.91744 2.4375,-4.49414 z m -43.712891,47.74804 h 51.572266 l -0.70117,0.97656 c -3.60638,5.0257 -9.66942,9.44341 -15.58008,11.34961 -4.518142,1.4572 -10.336009,1.85468 -14.865235,1.01758 -7.932392,-1.4662 -15.252592,-6.08256 -19.828125,-12.50586 z"
         id="path1382"
         inkscape:connector-curvature="0" />
    </g>
  </g>
</svg>
