<?xml version="1.0" encoding="UTF-8" standalone="no"?>
<svg
   xmlns:dc="http://purl.org/dc/elements/1.1/"
   xmlns:cc="http://creativecommons.org/ns#"
   xmlns:rdf="http://www.w3.org/1999/02/22-rdf-syntax-ns#"
   xmlns:svg="http://www.w3.org/2000/svg"
   xmlns="http://www.w3.org/2000/svg"
   xmlns:sodipodi="http://sodipodi.sourceforge.net/DTD/sodipodi-0.dtd"
   xmlns:inkscape="http://www.inkscape.org/namespaces/inkscape"
   version="1.1"
   id="svg3438"
   viewBox="0 0 394.07153 360.00474"
   height="101.60134mm"
   width="111.21575mm"
   inkscape:version="0.91 r13725"
   sodipodi:docname="ripolab_20x20.svg">
  <sodipodi:namedview
     pagecolor="#ffffff"
     bordercolor="#666666"
     borderopacity="1"
     objecttolerance="10"
     gridtolerance="10"
     guidetolerance="10"
     inkscape:pageopacity="0"
     inkscape:pageshadow="2"
     inkscape:window-width="1858"
     inkscape:window-height="1053"
     id="namedview69386"
     showgrid="false"
     inkscape:zoom="2.2125"
     inkscape:cx="200.16946"
     inkscape:cy="179.15008"
     inkscape:window-x="62"
     inkscape:window-y="27"
     inkscape:window-maximized="1"
     inkscape:current-layer="svg3438"
     units="mm"
     fit-margin-top="0"
     fit-margin-left="0"
     fit-margin-right="0"
     fit-margin-bottom="0" />
  <defs
     id="defs3440" />
  <metadata
     id="metadata3443">
    <rdf:RDF>
      <cc:Work
         rdf:about="">
        <dc:format>image/svg+xml</dc:format>
        <dc:type
           rdf:resource="http://purl.org/dc/dcmitype/StillImage" />
        <dc:title></dc:title>
      </cc:Work>
    </rdf:RDF>
  </metadata>
  <path
     style="fill:#000000"
     d="M 2.6418525,3.7431565e-4 C 1.9501343,-0.01128228 1.2468111,0.25650214 0.71980824,0.8282323 -0.48663332,2.1370679 -0.13521145,4.067687 1.4644039,4.918462 1.9746432,5.1898384 3.1356826,5.1781899 3.7037987,4.8960344 L 4.1576769,4.6706373 4.4935293,5.0743337 c 0.1847244,0.2220246 1.5133171,1.7676219 2.9525905,3.4347838 l 2.6170182,3.0313675 -0.9399953,0.966066 c -0.8837614,0.908411 -0.9398527,0.997167 -0.9394362,1.485828 5.51e-4,0.630305 0.105023,0.806166 1.6464655,2.76644 0.663199,0.843404 1.205763,1.571116 1.205763,1.61703 0,0.04592 -0.260375,0.639527 -0.578632,1.319303 -0.318258,0.679778 -0.726774,1.690682 -0.9077561,2.246402 -0.1809827,0.55572 -0.3414364,1.025951 -0.356879,1.044844 -0.015443,0.01889 -0.9310138,0.139525 -2.0344623,0.26829 -2.4563373,0.286641 -2.7980245,0.376727 -3.1861171,0.83795 l -0.3061375,0.363608 0,3.722697 0,3.722698 0.3386572,0.362205 c 0.4063547,0.435005 0.4505639,0.447383 2.6332775,0.72357 1.6052878,0.203121 3.068548,0.218943 21.3120873,0.232405 19.113011,0.01411 19.636585,0.0085 21.572808,-0.230723 1.091412,-0.13486 2.161569,-0.329229 2.378164,-0.432011 0.718984,-0.341179 0.73983,-0.468005 0.73983,-4.478506 l 0,-3.622335 -0.305856,-0.363608 c -0.387675,-0.460726 -0.727144,-0.550292 -3.190043,-0.841595 -1.105495,-0.130753 -2.02079,-0.251447 -2.034182,-0.26829 -0.01339,-0.01684 -0.172531,-0.485479 -0.353514,-1.041199 -0.180981,-0.55572 -0.589501,-1.566624 -0.907757,-2.246402 -0.318258,-0.679776 -0.578631,-1.275279 -0.578631,-1.323509 0,-0.04823 0.615524,-0.874958 1.367802,-1.837099 0.752279,-0.96214 1.400724,-1.880552 1.440971,-2.04091 0.164236,-0.654369 -0.03998,-1.128997 -0.833183,-1.93606 L 46.4802,11.778217 49.157212,8.6874171 C 50.629501,6.9875655 51.98532,5.4152243 52.170076,5.1931998 l 0.335853,-0.4036965 0.401734,0.1906346 c 1.256929,0.5964516 2.606062,0.2266271 3.348155,-0.9178488 0.260127,-0.4011713 0.307823,-0.6094799 0.307823,-1.3498599 0,-0.9840219 -0.08308,-1.2034944 -0.697219,-1.84578972 -1.187374,-1.24181494 -3.302671,-0.88568953 -4.089109,0.68852662 -0.307308,0.6151362 -0.35828,1.2721701 -0.143257,1.8508361 0.107641,0.2896786 0.204504,0.6202498 0.215025,0.7345031 0.01255,0.1362191 -1.166926,1.2307149 -3.426093,3.1793899 L 44.977551,10.29155 43.949808,9.2685704 c -0.9243,-0.9200157 -1.081293,-1.0290634 -1.559559,-1.0829712 -0.305359,-0.034418 -0.645818,8.815e-4 -0.799261,0.082983 -0.146986,0.078665 -1.03023,0.7446427 -1.962975,1.4799386 l -1.695805,1.3369655 -1.174644,-0.56966 C 36.111525,10.202462 35.061417,9.7744664 34.423973,9.564896 33.786529,9.3553227 33.263935,9.125789 33.262786,9.0546683 33.261638,8.983547 33.130966,7.9132461 32.97263,6.6762238 32.692678,4.4890511 32.674805,4.4168272 32.318865,4.0608875 l -0.36613,-0.36585 -3.799232,0 -3.799512,0 -0.375661,0.375662 c -0.367244,0.367245 -0.381804,0.424803 -0.653485,2.5556229 -0.152873,1.199 -0.279052,2.2651033 -0.280344,2.3689131 -0.0017,0.1327926 -0.346059,0.30158 -1.161469,0.5696605 -0.637442,0.2095704 -1.691173,0.639168 -2.341439,0.954574 L 18.35938,11.092775 16.748238,9.8225326 C 14.555547,8.0937401 14.584072,8.1104389 13.932176,8.1839171 13.442535,8.2391082 13.290233,8.3400601 12.47158,9.1539107 L 11.557655,10.062507 8.1394128,7.1216914 C 5.7749216,5.0875618 4.7392266,4.1241713 4.7800411,3.9972492 4.8124962,3.8963278 4.9259216,3.5768146 5.0320712,3.287136 5.2514796,2.6883853 5.190468,2.0411538 4.8520908,1.376867 4.4013115,0.49192023 3.5312047,0.01536197 2.6418525,3.7431565e-4 Z M 18.537399,14.206282 l 1.092784,0.03392 1.093063,0.0342 0.17858,1.005596 0.17886,1.005317 0.73927,0.289877 0.739268,0.289596 0.875517,-0.604985 0.875236,-0.605264 0.75665,0.763378 0.756651,0.76366 -0.609189,0.872432 -0.609469,0.872714 0.311462,0.705067 c 0.171173,0.387762 0.321044,0.720751 0.333331,0.74011 0.01229,0.01936 0.485354,0.120358 1.051291,0.224276 l 1.029147,0.188952 -0.03392,1.082691 -0.03392,1.082972 -0.891777,0.157273 c -0.490342,0.08656 -0.950263,0.220478 -1.022136,0.297727 -0.07187,0.07725 -0.249765,0.442833 -0.395287,0.812158 l -0.264645,0.671426 0.16372,0.246142 -3.936039,0 -0.496772,-1.1881 0.271375,-0.226239 c 0.149268,-0.124469 0.309198,-0.228262 0.355477,-0.230442 0.04628,-0.0022 0.220112,-0.235876 0.386315,-0.519481 0.597729,-1.01995 0.279363,-2.299763 -0.717402,-2.883905 -0.663534,-0.388857 -1.634901,-0.395492 -2.199305,-0.01514 -1.245824,0.839559 -1.3616,2.339204 -0.262402,3.396095 l 0.53686,0.516395 -0.178019,0.434534 c -0.04164,0.101747 -0.191363,0.472214 -0.290438,0.716282 l -3.930432,0 0.17942,-0.262963 -0.320153,-0.781883 -0.320434,-0.782162 -1.001111,-0.178859 -1.001391,-0.178859 0,-1.069235 0,-1.069235 0.988775,-0.192316 c 0.543772,-0.105734 1.03022,-0.239452 1.081009,-0.297167 0.05079,-0.05771 0.211088,-0.405277 0.356039,-0.772349 l 0.263523,-0.66722 -0.542186,-0.775714 c -0.298204,-0.426588 -0.542186,-0.850117 -0.542186,-0.941117 0,-0.091 0.307968,-0.470009 0.68432,-0.842436 l 0.684042,-0.677313 0.919531,0.607227 0.91953,0.607227 0.684602,-0.294363 c 0.737281,-0.317209 0.777018,-0.390477 1.036154,-1.910269 l 0.07681,-0.450233 z m 17.236155,0.118867 1.093063,0.03392 1.092784,0.0342 0.178861,1.005596 0.178579,1.005316 0.739269,0.289876 0.739549,0.289597 0.875237,-0.604984 0.875237,-0.605265 0.756649,0.763379 0.756932,0.763659 -0.60947,0.872433 -0.60919,0.872712 0.311183,0.705067 c 0.171173,0.387763 0.321338,0.721033 0.333611,0.740392 0.01229,0.01936 0.485355,0.120076 1.051292,0.223994 l 1.028866,0.188953 -0.03392,1.082691 -0.03392,1.082972 -0.891497,0.157273 c -0.490342,0.08656 -0.950265,0.220478 -1.022136,0.297726 -0.07188,0.07725 -0.249765,0.442835 -0.395287,0.81216 l -0.264645,0.671425 0.08467,0.127276 -3.906884,0 -0.447151,-1.069234 0.271375,-0.226238 c 0.149266,-0.12447 0.309199,-0.228262 0.355476,-0.230444 0.04628,-0.0022 0.220112,-0.235875 0.386316,-0.519479 0.59773,-1.01995 0.279362,-2.299763 -0.717403,-2.883906 -0.663535,-0.388857 -1.634619,-0.395489 -2.199024,-0.01514 -1.245824,0.839561 -1.36188,2.339207 -0.262683,3.396097 l 0.536859,0.516395 -0.177738,0.434534 c -0.03473,0.08487 -0.165678,0.408282 -0.242497,0.597414 l -3.897352,0 0.0984,-0.144097 -0.320434,-0.781881 -0.320154,-0.782162 -1.001391,-0.178859 -1.001111,-0.178861 0,-1.069235 0,-1.069235 0.988496,-0.192316 c 0.543772,-0.105732 1.030501,-0.239452 1.081289,-0.297165 0.05079,-0.05772 0.210808,-0.405274 0.355758,-0.77235 l 0.263523,-0.667221 -0.542187,-0.775714 c -0.298205,-0.426587 -0.542186,-0.850116 -0.542186,-0.941117 0,-0.091 0.307968,-0.470009 0.684322,-0.842436 l 0.684321,-0.677313 0.91953,0.607227 0.919251,0.607227 0.684602,-0.294362 c 0.737282,-0.317208 0.777017,-0.390477 1.036154,-1.91027 l 0.07681,-0.450232 z M 14.00114,35.136259 c -2.172868,0 -2.965205,0.03701 -2.965205,0.13821 0,0.07596 0.296611,0.72301 0.659089,1.438168 l 0.659091,1.30052 -0.466214,0.611992 c -0.256377,0.336672 -0.953239,1.227376 -1.548624,1.979234 -0.5953835,0.751857 -1.0833114,1.475708 -1.0843736,1.608617 -0.00127,0.157325 0.8210866,1.060742 2.3562986,2.588984 1.915674,1.906977 2.4007,2.331428 2.585339,2.261261 0.125009,-0.0475 1.094997,-0.774105 2.155571,-1.614506 l 1.92849,-1.527878 1.102877,0.589005 c 1.165574,0.622539 3.02485,1.356513 4.016219,1.585349 0.326324,0.07533 0.593209,0.186514 0.593209,0.247263 0,0.06075 0.134774,1.215143 0.299409,2.565155 0.23329,1.912989 0.343183,2.487197 0.498172,2.603 0.305705,0.228417 6.609405,0.212041 6.800042,-0.01766 0.07586,-0.09141 0.273704,-1.281499 0.43958,-2.644773 0.165876,-1.363275 0.3377,-2.51001 0.38183,-2.548333 0.04413,-0.03832 0.702294,-0.265855 1.462558,-0.505462 0.760262,-0.239607 2.011132,-0.754305 2.779618,-1.144087 l 1.397239,-0.708711 1.856442,1.463399 c 1.02103,0.804903 1.98214,1.529966 2.135947,1.611141 0.266143,0.140466 0.393755,0.03364 2.644771,-2.207153 1.540052,-1.533061 2.3646,-2.438644 2.363308,-2.595993 -9.92e-4,-0.132909 -0.488989,-0.856761 -1.084374,-1.608618 -0.595384,-0.751857 -1.292246,-1.642561 -1.548624,-1.979233 l -0.466214,-0.611993 0.659091,-1.300519 c 0.362479,-0.715158 0.65909,-1.362212 0.65909,-1.438168 0,-0.101195 -0.79137,-0.13821 -2.961282,-0.13821 l -2.96128,0 -0.533217,0.742913 c -1.532393,2.135453 -4.108548,4.01166 -6.620059,4.82165 -1.919816,0.61916 -4.392205,0.788843 -6.316729,0.433131 -3.370569,-0.622986 -6.480721,-2.584867 -8.42492,-5.314214 l -0.486959,-0.68348 -2.965206,0 z"
     id="path3415"
     inkscape:connector-curvature="0" />
</svg>
