<?xml version="1.0" encoding="UTF-8" standalone="no"?>
<svg
   xmlns:dc="http://purl.org/dc/elements/1.1/"
   xmlns:cc="http://creativecommons.org/ns#"
   xmlns:rdf="http://www.w3.org/1999/02/22-rdf-syntax-ns#"
   xmlns:svg="http://www.w3.org/2000/svg"
   xmlns="http://www.w3.org/2000/svg"
   xmlns:sodipodi="http://sodipodi.sourceforge.net/DTD/sodipodi-0.dtd"
   xmlns:inkscape="http://www.inkscape.org/namespaces/inkscape"
   version="1.1"
   id="svg3438"
   viewBox="0 0 888.97543 888.97546"
   height="250.88889mm"
   width="250.88889mm"
   inkscape:version="0.91 r13725"
   sodipodi:docname="ripolab_camiseta.svg">
  <sodipodi:namedview
     pagecolor="#ffffff"
     bordercolor="#666666"
     borderopacity="1"
     objecttolerance="10"
     gridtolerance="10"
     guidetolerance="10"
     inkscape:pageopacity="0"
     inkscape:pageshadow="2"
     inkscape:window-width="1858"
     inkscape:window-height="1053"
     id="namedview69386"
     showgrid="false"
     inkscape:zoom="1.10625"
     inkscape:cx="469.83802"
     inkscape:cy="569.01918"
     inkscape:window-x="62"
     inkscape:window-y="27"
     inkscape:window-maximized="1"
     inkscape:current-layer="layer2"
     units="mm" />
  <defs
     id="defs3440" />
  <metadata
     id="metadata3443">
    <rdf:RDF>
      <cc:Work
         rdf:about="">
        <dc:format>image/svg+xml</dc:format>
        <dc:type
           rdf:resource="http://purl.org/dc/dcmitype/StillImage" />
        <dc:title></dc:title>
      </cc:Work>
    </rdf:RDF>
  </metadata>
  <g
     inkscape:groupmode="layer"
     id="layer4"
     inkscape:label="camiseta"
     style="display:inline"
     transform="translate(0,488.97622)">
    <rect
       style="opacity:1;fill:#000000;fill-opacity:1;stroke:#000000;stroke-width:7.74514341;stroke-linecap:round;stroke-linejoin:bevel;stroke-miterlimit:4;stroke-dasharray:none;stroke-dashoffset:0;stroke-opacity:1"
       id="rect4295"
       width="590.112"
       height="601.41144"
       x="58.344952"
       y="-454.81866" />
  </g>
  <g
     inkscape:groupmode="layer"
     id="layer2"
     inkscape:label="Layer 1"
     style="display:inline"
     transform="translate(0,488.97622)">
    <path
       style="fill:#ffffff;fill-opacity:1;stroke:#ffffff;stroke-width:1.77165353;stroke-miterlimit:4;stroke-dasharray:none;stroke-opacity:1"
       d="m 117.31641,-416.57812 c -25.409044,-0.92954 -43.307003,32.20822 -28.626957,52.91796 7.362928,11.15344 21.591187,16.86016 34.667967,14.72461 7.75554,9.70875 16.8383,18.31863 24.0586,28.46094 -8.94611,10.21533 -9.12535,26.71506 0.0371,36.86523 3.32733,4.59885 7.52757,8.51839 10.56055,13.33594 -2.52397,5.04579 -4.40598,10.69887 -6.63086,15.66992 -14.04701,0.68118 -31.13572,2.76562 -39.29492,15.82618 -6.55675,12.91941 -1.67286,27.94465 -2.79687,41.70898 -0.91883,11.78206 -1.98509,26.7723 8.57617,34.80859 12.33486,9.04018 29.03664,7.36686 42.83593,8.9336 -0.3421,6.00227 3.73179,11.31486 6.10938,16.35547 -7.45544,9.23584 -17.14584,18.37525 -18.91211,30.67187 0.51642,9.208146 8.35891,15.736447 13.86323,22.353579 8.28547,8.107007 16.54176,16.359752 25.29888,23.886657 9.41124,5.806175 21.93865,2.649398 29.10547,-5.257812 4.13181,-3.354701 7.84768,-7.118729 12.37891,-9.966797 7.54513,3.928821 15.45513,7.135683 23.54101,9.767578 1.20721,12.751002 0.83853,28.373074 11.7207,37.306641 14.04528,7.074804 30.12849,2.325215 45.08333,3.765523 9.34995,0.09931 21.80933,-1.288797 25.31706,-11.628805 3.98576,-9.346902 3.53614,-19.765551 5.00782,-29.568359 8.10362,-2.754831 16.07278,-5.931073 23.76172,-9.697266 9.74924,7.887873 20.08823,19.394683 33.81445,18.216797 15.36963,-4.564971 22.93913,-20.186405 35.08566,-29.400776 7.21637,-6.720094 14.28582,-17.5584 9.20926,-27.47422 -3.70403,-8.93516 -11.3886,-15.28944 -16.63086,-23.21289 3.0663,-5.03633 5.66934,-10.63564 5.86133,-16.625 15.71753,-0.4527 34.70138,0.19345 46.25781,-12.4961 9.2878,-12.73928 3.94219,-29.32211 5.53906,-43.78515 0.70617,-12.36035 1.43018,-28.10147 -9.79492,-36.28125 -9.42945,-6.75748 -21.54251,-7.0183 -32.61719,-8.16407 -1.54179,-5.57023 -4.74018,-10.48636 -6.57226,-15.94726 8.7819,-10.4118 20.18126,-23.02406 16.78906,-37.82617 -1.00391,-3.70172 -2.84073,-7.13685 -5.10742,-10.21485 8.55859,-9.75652 16.57135,-20.00254 25.63477,-29.30859 20.92405,3.98378 42.94833,-15.96142 39.32421,-37.38867 -1.26629,-23.46217 -31.95103,-39.10579 -51.30208,-25.19134 -11.39412,7.0476 -18.21404,21.1991 -15.81901,34.49407 -9.71887,8.34293 -18.63046,17.61699 -29.00977,25.18164 -10.20593,-10.15265 -28.1015,-11.48725 -38.96484,-1.64453 -4.75583,3.06149 -8.10583,8.96709 -13.61719,10.31445 -4.94057,-2.3958 -10.11692,-4.2493 -15.23828,-6.21093 -0.93751,-13.73482 -2.05756,-30.5215 -14.67773,-38.94922 -14.41521,-7.30496 -30.81274,-1.09423 -45.98553,-3.26664 -11.40035,-0.81582 -25.9983,-0.65611 -32.61213,10.47171 -6.08812,9.42554 -6.1831,21.0682 -7.26562,31.8418 -5.35233,2.06096 -10.93434,3.69919 -16,6.49414 -10.24786,-8.8702 -22.71881,-20.26792 -37.48828,-16.98828 -4.62204,1.11339 -8.77859,3.65548 -12.39063,6.6875 -9.45026,-8.21562 -19.55811,-15.7223 -28.24414,-24.7832 3.24212,-19.64329 -13.62661,-40.35394 -33.83984,-39.7832 z m 124.28515,263.46874 c 6e-5,0 -6e-5,-1.6e-4 0,-1.8e-4 z"
       id="path4147"
       inkscape:connector-curvature="0"
       sodipodi:nodetypes="ccccccccccccccccccccccccccccccccccccccccccccccccccccccc" />
  </g>
  <g
     inkscape:groupmode="layer"
     id="layer3"
     inkscape:label="Layer 2"
     style="display:inline"
     transform="translate(0,488.97622)">
    <path
       style="fill:#000000"
       d="m 117.85181,-400.27574 c -4.81912,-0.0812 -9.71908,1.78441 -13.39064,5.76759 -8.405136,9.11849 -5.956818,22.56888 5.1875,28.49612 3.55477,1.89064 11.6436,1.80949 15.60158,-0.15625 l 3.16211,-1.57031 2.33986,2.8125 c 1.28694,1.54682 10.54309,12.3148 20.57033,23.92971 l 18.23243,21.11916 -6.54883,6.73047 c -6.15706,6.32878 -6.54783,6.94713 -6.54493,10.35157 0.004,4.39125 0.73168,5.61645 11.47072,19.27343 4.62043,5.87588 8.4004,10.94575 8.4004,11.26563 0,0.31989 -1.81401,4.4555 -4.03125,9.19141 -2.21726,4.73593 -5.06336,11.77876 -6.32423,15.65039 -1.26088,3.87163 -2.37875,7.14767 -2.48633,7.27929 -0.10758,0.13161 -6.48627,0.97205 -14.17385,1.86914 -17.11299,1.99699 -19.49349,2.62461 -22.19728,5.83789 l -2.13282,2.53321 0,25.93554 0,25.93555 2.35938,2.52344 c 2.83103,3.03062 3.13903,3.11685 18.34572,5.04101 11.18384,1.41512 21.37819,1.52535 148.47857,1.61914 133.15784,0.0983 136.80551,0.0594 150.29492,-1.60742 7.60373,-0.93955 15.05937,-2.29369 16.56836,-3.00976 5.00907,-2.37695 5.1543,-3.26053 5.1543,-31.20117 l 0,-25.23633 -2.13086,-2.53321 c -2.70088,-3.20982 -5.06592,-3.83381 -22.22461,-5.86328 -7.70184,-0.91094 -14.07858,-1.7518 -14.17188,-1.86914 -0.0933,-0.11734 -1.202,-3.38227 -2.46289,-7.2539 -1.26087,-3.87163 -4.10697,-10.91446 -6.32422,-15.65039 -2.21726,-4.73591 -4.03125,-8.8847 -4.03125,-9.22071 0,-0.336 4.28828,-6.09572 9.5293,-12.79883 5.24103,-6.7031 9.75866,-13.10156 10.03906,-14.21875 1.14421,-4.55891 -0.27851,-7.86558 -5.80468,-13.48828 l -5.33789,-5.42969 18.65039,-21.53322 c 10.25725,-11.84265 19.70306,-22.79696 20.99023,-24.34378 l 2.33984,-2.8125 2.79883,1.32813 c 8.75686,4.1554 18.15611,1.57888 23.32617,-6.39454 1.81224,-2.79491 2.14454,-4.24617 2.14454,-9.40431 -10e-6,-6.85556 -0.57883,-8.38459 -4.85743,-12.85939 -8.27227,-8.65157 -23.00927,-6.17049 -28.48828,4.79688 -2.14097,4.28558 -2.49609,8.86305 -0.99805,12.89455 0.74992,2.01815 1.42475,4.3212 1.49805,5.11719 0.0874,0.94902 -8.12982,8.57424 -23.86914,22.15041 l -24.00391,20.70315 -7.16015,-7.12696 c -6.43948,-6.40965 -7.53323,-7.16936 -10.86524,-7.54493 -2.1274,-0.23978 -4.49933,0.006 -5.56835,0.57813 -1.02403,0.54805 -7.17748,5.18784 -13.67579,10.31055 l -11.81445,9.31447 -8.18359,-3.96876 c -4.50087,-2.18316 -11.81683,-5.16495 -16.25782,-6.625 -4.44099,-1.46007 -8.08184,-3.05921 -8.08984,-3.5547 -0.008,-0.49548 -0.91837,-7.95214 -2.02148,-16.57032 -1.95039,-15.23776 -2.07491,-15.74094 -4.55469,-18.22073 l -2.55078,-2.54883 -26.46875,0 -26.47071,0 -2.61718,2.61719 c -2.55854,2.55855 -2.65998,2.95955 -4.55274,17.80471 -1.06505,8.35329 -1.94412,15.78069 -1.95312,16.50392 -0.0118,0.92515 -2.41095,2.10107 -8.0918,3.96876 -4.44098,1.46005 -11.78218,4.453 -16.3125,6.65039 l -8.23633,3.99415 -11.22461,-8.84962 c -15.27619,-12.04429 -15.07746,-11.92794 -19.61914,-11.41603 -3.41126,0.38451 -4.47233,1.08782 -10.17579,6.75782 l -6.3672,6.33008 -23.81447,-20.4883 c -16.47312,-14.17152 -23.68867,-20.88335 -23.40432,-21.7676 0.22611,-0.7031 1.01632,-2.92911 1.75586,-4.94727 1.52859,-4.17142 1.10352,-8.6806 -1.25391,-13.3086 -3.14051,-6.16532 -9.20244,-9.48544 -15.39845,-9.58986 z m 110.74227,98.97079 7.61328,0.23633 7.61523,0.23828 1.24414,7.00586 1.2461,7.00391 5.15039,2.01953 5.15039,2.01758 6.09961,-4.21485 6.09765,-4.2168 5.27149,5.31836 5.27148,5.32032 -4.24414,6.07812 -4.24609,6.08008 2.16992,4.91211 c 1.19254,2.70149 2.23667,5.02138 2.32227,5.15625 0.0856,0.13488 3.3814,0.83852 7.32421,1.5625 l 7.16993,1.31641 -0.23633,7.54296 -0.23633,7.54493 -6.21289,1.0957 c -3.41615,0.60307 -6.62036,1.53604 -7.12109,2.07422 -0.50073,0.53819 -1.74008,3.08516 -2.75391,5.6582 l -1.84375,4.67774 1.14062,1.71484 -27.42187,0 -3.46094,-8.27734 1.89063,-1.57618 c 1.03993,-0.86716 2.15414,-1.59027 2.47656,-1.60546 0.32241,-0.0152 1.53349,-1.64332 2.69141,-3.61915 4.1643,-7.10586 1.94628,-16.02215 -4.99805,-20.09179 -4.62275,-2.70912 -11.39014,-2.75534 -15.32227,-0.10547 -8.67949,5.8491 -9.48609,16.29693 -1.82812,23.66015 l 3.74023,3.59766 -1.24023,3.02734 c -0.2901,0.70886 -1.3332,3.28985 -2.02344,4.99024 l -27.38281,0 1.25,-1.83203 -2.23047,-5.44727 -2.23242,-5.44922 -6.97462,-1.24609 -6.97657,-1.24609 0,-7.44922 0,-7.44922 6.88868,-1.33984 c 3.78839,-0.73663 7.17742,-1.66823 7.53126,-2.07032 0.35384,-0.40209 1.47062,-2.82351 2.48047,-5.38086 l 1.83593,-4.64843 -3.77734,-5.4043 c -2.07755,-2.97198 -3.77735,-5.92265 -3.77735,-6.55664 0,-0.634 2.14558,-3.27449 4.76758,-5.86914 l 4.76563,-4.71875 6.40625,4.23047 6.40625,4.23047 4.76953,-2.05079 c 5.13654,-2.20995 5.41338,-2.7204 7.21875,-13.30859 l 0.53516,-3.13672 z m 120.08203,0.82813 7.61523,0.23632 7.61328,0.23829 1.2461,7.00586 1.24414,7.0039 5.15039,2.01953 5.15234,2.01758 6.09766,-4.21484 6.09766,-4.2168 5.27148,5.31836 5.27344,5.32031 -4.2461,6.07813 -4.24414,6.08007 2.16797,4.91211 c 1.19254,2.70149 2.23872,5.02334 2.32422,5.15821 0.0856,0.13488 3.38141,0.83656 7.32422,1.56054 l 7.16797,1.31641 -0.23633,7.54297 -0.23633,7.54492 -6.21094,1.0957 c -3.41615,0.60306 -6.62037,1.53604 -7.12109,2.07422 -0.50075,0.53818 -1.74008,3.08517 -2.75391,5.65821 l -1.84375,4.67773 0.58985,0.88672 -27.21875,0 -3.11524,-7.44922 1.89063,-1.57617 c 1.03992,-0.86716 2.15415,-1.59027 2.47656,-1.60547 0.32241,-0.0152 1.53349,-1.64331 2.69141,-3.61914 4.16431,-7.10586 1.94628,-16.02215 -4.99805,-20.0918 -4.62276,-2.70911 -11.38818,-2.75532 -15.32031,-0.10547 -8.67949,5.84911 -9.48804,16.29695 -1.83008,23.66016 l 3.74023,3.59766 -1.23828,3.02734 c -0.24199,0.59127 -1.15426,2.84445 -1.68945,4.16211 l -27.15234,0 0.68554,-1.00391 -2.23242,-5.44726 -2.23047,-5.44922 -6.97656,-1.24609 -6.97461,-1.2461 0,-7.44922 0,-7.44922 6.88672,-1.33984 c 3.78839,-0.73662 7.17937,-1.66823 7.5332,-2.07031 0.35384,-0.4021 1.46867,-2.82349 2.47852,-5.38086 l 1.83593,-4.64844 -3.77734,-5.4043 c -2.07756,-2.97197 -3.77734,-5.92265 -3.77734,-6.55664 0,-0.634 2.14557,-3.27449 4.76758,-5.86914 l 4.76757,-4.71875 6.40625,4.23047 6.4043,4.23047 4.76953,-2.05078 c 5.13655,-2.20995 5.41338,-2.7204 7.21875,-13.3086 l 0.53516,-3.13671 z m -151.68555,144.98828 c -15.1381,0 -20.65822,0.25785 -20.65822,0.96289 0,0.52918 2.06645,5.03712 4.5918,10.01953 l 4.5918,9.06055 -3.24805,4.26367 c -1.78615,2.34555 -6.64111,8.55097 -10.78907,13.78906 -4.14797,5.23809 -7.5473,10.28107 -7.5547,11.20703 -0.009,1.09606 5.7204,7.390048 16.41604,18.037098 13.34625,13.285646 16.72537,16.242732 18.01173,15.753894 0.87092,-0.33095 7.6287,-5.393086 15.01758,-11.24804 l 13.43554,-10.644518 7.6836,4.103516 c 8.1204,4.337144 21.07373,9.45064 27.98047,11.044908 2.27346,0.52479 4.13281,1.299418 4.13281,1.722648 0,0.42323 0.93895,8.465735 2.08594,17.871085 1.6253,13.327528 2.39091,17.327954 3.4707,18.134742 2.12981,1.591348 46.04686,1.477258 47.375,-0.12304 0.5285,-0.636828 1.90686,-8.92803 3.0625,-18.425772 1.15563,-9.49775 2.35271,-17.486895 2.66016,-17.753885 0.30745,-0.26699 4.89279,-1.852178 10.18945,-3.521486 5.29664,-1.669308 14.01129,-5.255134 19.36523,-7.970692 l 9.73438,-4.937494 12.93359,10.195298 c 7.11338,5.607646 13.80931,10.65906 14.88086,11.2246 1.85419,0.978608 2.74324,0.23439 18.42578,-15.376934 10.72934,-10.68062 16.47385,-16.989698 16.46485,-18.085928 -0.007,-0.92596 -3.40672,-5.96894 -7.55469,-11.20703 -4.14796,-5.23809 -9.00291,-11.44351 -10.78906,-13.78906 l -3.24805,-4.26367 4.5918,-9.06055 c 2.52534,-4.98241 4.59179,-9.49035 4.59179,-10.01953 0,-0.70501 -5.51337,-0.96289 -20.63086,-0.96289 l -20.63085,0 -3.71485,5.17578 c -10.67598,14.87742 -28.62372,27.94871 -46.12109,33.5918 -13.3751,4.31361 -30.59991,5.49577 -44.00782,3.01757 -23.48231,-4.34026 -45.15033,-18.00843 -58.69531,-37.02343 l -3.39258,-4.76172 -20.6582,0 z"
       id="path4152"
       inkscape:connector-curvature="0" />
  </g>
  <g
     inkscape:groupmode="layer"
     id="layer5"
     inkscape:label="Layer 3"
     style="display:inline">
    <path
       style="font-style:normal;font-variant:normal;font-weight:normal;font-stretch:normal;font-size:138.137146px;line-height:125%;font-family:'Share Tech Mono';-inkscape-font-specification:'Share Tech Mono, Normal';text-align:start;letter-spacing:0px;word-spacing:0px;writing-mode:lr-tb;text-anchor:start;fill:#ffffff;fill-opacity:1;stroke:none;stroke-width:1px;stroke-linecap:butt;stroke-linejoin:miter;stroke-opacity:1"
       d="m 194.40234,470.16406 c -5.8579,1.32112 -14.78753,-2.08674 -17.75976,5.28125 -0.54804,6.08177 -2.09881,12.74634 -0.0723,18.60547 0.95703,1.83438 2.55534,3.29945 4.41016,4.19727 -8.2168,0 -16.43359,0 -24.65039,0 1.33725,7.98508 -2.99256,17.56372 2.98437,24.30273 4.65336,4.38329 11.67412,1.67173 17.32032,1.92774 0,19.61263 0,39.22526 0,58.83789 17.30208,0 34.60416,0 51.90625,0 -8.02175,-6.07356 0.30784,-17.13729 -6.20508,-23.83399 -4.82538,-4.62942 -12.17187,-2.07418 -17.95899,-2.29883 0,-19.64518 0,-39.29036 0,-58.93554 -3.71537,0.1209 -5.3679,0.40449 -1.80859,-1.57227 4.51767,-4.37046 2.41173,-11.37136 2.52344,-16.97656 -0.38718,-5.46355 -4.95887,-10.37037 -10.68946,-9.53516 z m 345.45508,0.125 c -7.0522,-0.55617 -12.21909,7.04991 -10.09847,13.53315 -0.37998,33.34533 0.009,66.69291 -0.15153,100.03912 18.45638,-2.92839 38.95027,4.11617 55.99414,-6.03516 10.82154,-7.91319 11.46812,-22.70743 10.42224,-34.88985 0.69371,-13.0921 1.79736,-29.35359 -9.59021,-38.50859 -8.21155,-6.30504 -19.14794,-6.69894 -29.05273,-6.08398 -0.53025,-7.99402 0.65798,-16.16046 -0.12695,-24.06836 -1.38032,-3.87895 -6.10915,-4.377 -9.51758,-3.4082 -2.62816,-0.15496 -5.23762,-0.67413 -7.87891,-0.57813 z m -429.70508,0.16992 c -9.03701,1.55586 -19.159359,-2.00483 -27.542965,2.0625 -4.743353,5.45416 -0.628885,13.05707 -2.125,19.375 0,31.4043 0,62.8086 0,94.2129 7.492343,-6.82666 19.581795,1.73387 26.394535,-6.40626 2.76653,-6.50781 1.29512,-14.46815 1.66412,-21.56237 0.0888,-4.83107 -0.49097,-10.71974 0.21869,-14.98255 3.02444,3.54206 3.0613,9.01442 5.80921,12.98248 4.03131,9.05846 8.06056,18.11783 12.09313,27.17573 10.16472,0 20.32943,0 30.49414,0 -6.24407,-15.93702 -14.66509,-30.92524 -20.64258,-46.97266 11.36781,-9.11251 10.2091,-25.3286 9.86329,-38.37891 -0.60792,-11.77812 -8.33965,-23.951 -20.60743,-25.95507 -5.0859,-1.33794 -10.38197,-1.62422 -15.61914,-1.55079 z m 268.18946,2.16211 c 1.08436,7.73489 -3.14435,17.82212 4.30859,23.43555 4.82388,2.69679 11.35594,0.42053 16.05078,1.0293 0.74866,24.66915 -1.85784,49.63252 1.45508,74.12304 4.31774,11.25785 18.06453,13.79207 28.69922,12.10743 8.15299,0 16.30599,0 24.45898,0 -8.02173,-6.07357 0.30788,-17.13723 -6.20507,-23.83399 -5.68622,-4.7797 -13.83787,-1.85914 -20.5625,-2.33594 -0.43088,-28.84019 0.0166,-57.68387 -0.17969,-86.52539 -16.00847,0 -32.01693,0 -48.02539,0 l 0,1 0,1 z m -260.79688,24.375 c 1.85689,3.66246 -0.53422,8.41573 0.79078,12.47041 0.61742,2.91235 0.60208,8.76102 -3.91187,7.45928 -2.12893,-0.28313 -7.29957,1.7188 -5.92188,-2.20508 0.67895,-5.56737 -1.35142,-13.84836 1,-17.7406 2.67687,0.0437 5.38903,-0.0668 8.04297,0.016 z m 349.51953,0.95118 c -6.40611,-0.19613 -10.48871,6.68687 -9.34375,12.48632 -1.236,6.60772 2.55098,15.76224 10.52926,14.64698 3.45094,-0.0199 10.27408,-0.68983 11.33793,-0.64698 -10.464,0.20029 -21.82461,5.57936 -24.85937,16.33789 -4.31217,11.75965 -3.80228,26.82254 5.13086,36.29297 9.68878,8.06586 23.36506,6.39934 35.02929,6.13477 3.48593,-1.18247 7.14339,-2.39122 10.51953,-0.35156 7.79323,1.43564 15.80788,-0.5612 23.56836,1.45312 -5.09829,-3.75103 -5.34735,-9.92519 -4.38281,-15.57422 0.53009,-4.6067 -2.21314,-10.50904 -7.27539,-10.96094 -0.66515,-13.23638 1.7986,-26.81896 -1.16992,-39.8457 -2.51782,-10.54768 -11.98686,-18.28146 -22.71094,-19.16211 -8.7403,-1.31175 -17.61335,0.17259 -26.37305,-0.81054 z m -221.8457,0.0156 c -4.9863,-0.19891 -12.98535,-0.11547 -13.63086,6.51172 0.40573,35.27418 0.0427,70.55091 0.1875,105.82617 6.69387,-7.91797 18.23682,0.79208 25.26953,-6.20703 4.69788,-5.71978 1.60956,-14.51946 2.61719,-20.67578 12.45093,0.63294 28.16862,-0.95001 34.71875,-13.22266 7.2281,-14.29818 2.57483,-30.75088 3.98047,-45.98437 -0.6784,-12.04906 -9.62763,-23.72839 -22.02539,-25.1543 -10.26696,-2.2564 -20.65902,0.82724 -30.92383,-1.10352 l -0.0977,0 -0.0957,0.01 z m 88.79687,0.14649 c -13.40971,0.0257 -27.85006,10.02501 -27.77437,24.41106 -1.22174,14.18776 -1.14983,28.68874 0.90133,42.74323 3.83469,12.11172 16.96022,18.90134 29.15625,18.08399 12.58566,1.13905 28.3167,-2.17865 33.84179,-14.94532 5.77787,-14.03973 2.06164,-29.53063 3.05469,-44.03906 -0.68436,-12.24686 -9.85688,-24.24143 -22.57031,-25.37305 -5.47874,-0.95731 -11.07343,-0.74255 -16.60938,-0.88085 z m 8.95899,26.23242 c 4.45225,0.0912 1.93591,4.91556 2.32422,7.54101 -0.0678,8.21553 1.19224,16.67172 -0.53711,24.67578 -3.44566,0.90282 -8.91877,1.41274 -11.29492,-1.14062 -0.80551,-6.55577 1.02445,-13.18781 -0.0977,-19.78516 0.0268,-3.40085 -1.30594,-8.62183 1.58789,-10.96679 2.66946,-0.19575 5.35257,-0.0651 8.01758,-0.32422 z m -80.66602,0.0664 c 2.41642,1.16815 8.66577,-1.87983 8.47266,2.57422 -1.4739,9.67784 1.8032,20.667 -1.32227,29.75586 -3.23632,0.98586 -6.63696,0.0736 -9.93164,-0.0176 0.95771,-10.66472 -1.19908,-21.78695 0.52149,-32.16601 0.72601,-0.2299 1.51128,-0.16879 2.25976,-0.14649 z m 296.99219,-0.0176 c 2.83189,1.00406 6.43637,-0.67209 8.95508,0.78516 0.37394,5.87995 -0.21211,12.3161 0.35742,18.35156 -0.21559,4.25933 0.64309,9.6299 -1.3164,13.19727 -3.22764,0.98128 -6.61897,0.11219 -9.90821,0.0156 0.90356,-10.67405 -1.08578,-21.65948 0.43945,-32.13867 0.46447,-0.19102 0.97794,-0.20158 1.47266,-0.21094 z m -69.94726,26.37305 c -0.50962,1.90048 2.54768,6.86135 -0.9375,6.13281 -3.04768,-0.20619 -9.68962,2.51092 -8.64258,-2.93945 -0.51846,-2.67701 1.47749,-3.81975 3.79297,-2.81641 1.92157,0.10759 3.9683,-0.35074 5.78711,-0.37695 z"
       id="text4314"
       inkscape:connector-curvature="0" />
    <path
       style="font-style:normal;font-variant:normal;font-weight:normal;font-stretch:normal;font-size:113.09625244px;line-height:125%;font-family:'Share Tech Mono';-inkscape-font-specification:'Share Tech Mono, Normal';text-align:start;letter-spacing:0px;word-spacing:0px;writing-mode:lr-tb;text-anchor:start;fill:#ffffff;fill-opacity:1;stroke:none;stroke-width:1px;stroke-linecap:butt;stroke-linejoin:miter;stroke-opacity:1"
       d="m 576.375,53.029303 c -11.83229,0.467642 -26.67224,-2.295841 -35.39844,7.910156 -4.82913,6.40897 -6.11797,14.803377 -5.46679,22.632813 -8.39844,0 -16.79688,0 -25.19532,0 7.60317,5.882218 -0.51822,16.890108 6.51172,22.947258 5.42259,2.77347 12.48755,1.0299 18.54669,1.84948 22.66023,0.35715 45.41476,-0.0647 68.01972,-0.1112 4.5026,-2.53165 0.3143,-8.298578 1.625,-12.203116 0.44138,-12.649246 2.50869,-28.503501 -8.14063,-37.853516 -5.76496,-4.506362 -13.43994,-5.2499 -20.50195,-5.171875 z m 3.35352,24.839844 c 3.86011,-0.715254 1.04157,4.098258 1.71484,5.759765 -7.3787,-0.647573 -15.00059,1.004952 -22.2832,-0.552734 -0.24804,-1.592215 -1.03768,-6.40798 2.1289,-4.96875 6.14654,-0.07092 12.29487,-0.130052 18.43946,-0.238281 z m 23.62109,30.925773 c -6.75249,1.84411 -16.58052,-2.30278 -20.73242,5.38672 -1.19952,1.36051 -4.1736,-0.43102 -6.16211,0.6582 -11.7615,0.30935 -26.46624,-2.43109 -35.20508,7.625 -8.74555,10.71422 -4.73766,25.34436 -5.93164,37.92188 4.01455,6.14541 12.83615,4.97855 18.80859,3.33203 2.54777,-0.65312 4.19285,-4.80432 5.16797,-5.39648 4.73321,9.94099 18.64124,11.1869 27.03125,10.65429 -5.69921,3.6339 -6.20978,11.15665 -4.87305,17.13477 -22.53187,0.0437 -45.0638,0.0214 -67.5957,0.0234 0,13.66796 0,27.33593 0,41.0039 6.92793,-1.1675 15.14537,2.26139 21.0957,-2.9375 1.95777,8.7448 -1.19612,17.8414 1.43165,26.44336 0.96987,2.79078 2.88945,5.15906 5.25781,6.89258 -10.44271,0 -20.88542,0 -31.32813,0 7.60325,5.88233 -0.51842,16.89013 6.51172,22.94727 5.43844,2.77539 12.52037,1.02881 18.59552,1.84942 22.9477,0.40546 46.02365,-0.18312 68.89472,-0.008 4.28383,-2.39786 -0.94974,-7.07001 1.04101,-10.54687 1.24762,-6.01349 -1.38924,-14.8101 -8.85937,-14.37305 -3.27017,-0.62463 7.31606,-4.72167 9.29101,-6.66797 -2.05719,-8.19879 2.52037,-18.66237 -5.03125,-25 -4.69392,-1.16174 -10.16869,5.74697 -15.16152,7.67462 -6.71634,4.1677 -13.43268,8.33541 -20.14902,12.50312 -9.12412,-8.4361 -19.64793,-16.62618 -27.9375,-25.20899 1.81925,-3.08422 -0.30667,-7.05635 -0.0566,-9.88672 19.41965,-0.69514 39.25506,2.23433 58.40235,-1.61914 8.9231,-4.19242 10.71771,-15.3679 9.24805,-24.11328 1.29467,-6.1957 0.7424,-15.54692 -6.98633,-16.97656 -1.81077,-0.37296 -4.87359,-0.58353 -5.9961,-0.6543 9.8769,-3.07465 13.69922,-14.11323 13.31446,-23.58594 0.25984,-5.20283 -1.09164,-10.53027 -1.47266,-15.51757 3.23575,-6.1778 -0.22792,-13.44284 2.11523,-19.94922 -0.9095,0.13021 -1.81901,0.26041 -2.72851,0.39062 z m -22.12695,30.76367 c -0.0803,2.04187 1.63546,5.87795 -1.50782,4.6211 1.19546,-1.60139 -1.7623,-5.18288 1.50782,-4.6211 z m 21.58203,149.89258 c -6.78536,1.85533 -16.77979,-2.24423 -20.86133,5.70508 -2.39926,5.75609 0.88419,12.0659 -0.69922,17.95117 -7.2075,-0.10394 -15.6208,1.4361 -22.0957,-0.92383 -0.0927,-6.60649 3.06325,-16.20654 -4.2461,-20.54882 -6.81455,-4.61527 -19.68221,-1.78766 -19.58789,7.82031 0.434,8.05005 -0.66139,16.44195 1.87696,24.19922 3.31742,9.58072 13.4674,15.33898 23.41103,14.31589 11.00267,0.0643 22.88073,1.80635 33.24717,-2.69871 11.23,-6.25778 12.54129,-20.71704 11.40627,-32.11109 -0.74327,-4.26365 1.29923,-11.825 -0.95245,-14.05845 l -0.9739,0.22694 -0.52484,0.12229 z m 0.54687,52.5918 c -6.75481,1.87212 -16.38394,-2.27313 -20.67187,5.26172 -1.02426,1.86931 -4.29242,-0.48796 -6.2793,0.79101 -11.7351,0.28923 -26.43143,-2.41576 -35.15039,7.6211 -8.74512,10.71428 -4.73794,25.34423 -5.93164,37.92187 4.01741,6.14759 12.84241,4.97844 18.81836,3.33008 2.54314,-0.6517 4.18384,-4.82829 5.16211,-5.38477 5.52482,10.24599 19.02789,11.79664 29.39258,10.11133 9.31401,-1.4145 16.0047,-9.93747 16.40429,-19.15429 0.97991,-6.94766 -0.26921,-14.17061 -1.16211,-20.86719 3.29652,-6.18593 -0.21669,-13.49557 2.15235,-20.02344 -0.91146,0.13086 -1.82292,0.26172 -2.73438,0.39258 z m -22.13086,30.77344 c -0.0432,2.02935 1.58284,5.88231 -1.49804,4.5957 1.16494,-1.63531 -1.75051,-5.15776 1.49804,-4.5957 z m 14.87305,29.94921 c -16.91737,2.22154 -35.26695,-3.63392 -51.21289,4.33399 -8.27497,5.86066 -10.20751,16.92202 -9.52148,26.41601 -8.3629,-0.22279 -16.72955,0.063 -25.09376,-0.0937 7.55764,5.79862 -0.26797,16.50023 6.26563,22.70117 4.663,3.25269 11.37884,1.14843 16.8597,2.0711 23.67935,0.4318 47.45313,0.0417 71.07975,-0.11212 4.16749,-2.63872 -1.3673,-7.31996 0.94727,-10.92187 1.24798,-6.21145 -2.10066,-14.79248 -9.65208,-13.86488 -12.20223,-0.32115 -24.4489,1.09164 -36.6155,-0.32653 -0.83608,-2.75195 -0.24913,-6.9571 3.65523,-5.17034 15.11862,0.75043 30.25469,-0.41047 45.37797,0.18401 -6.70359,-6.4233 1.16491,-17.56871 -6.39257,-23.46484 -1.55774,-1.34649 -3.67893,-1.82006 -5.69727,-1.75196 z"
       id="text4318"
       inkscape:connector-curvature="0" />
  </g>
  <g
     inkscape:groupmode="layer"
     id="layer6"
     inkscape:label="Layer 4"
     style="display:inline">
    <text
       sodipodi:linespacing="125%"
       id="text4347"
       y="575.31702"
       x="78.813881"
       style="font-style:normal;font-variant:normal;font-weight:normal;font-stretch:normal;font-size:138.137146px;line-height:125%;font-family:'Share Tech Mono';-inkscape-font-specification:'Share Tech Mono, Normal';text-align:start;letter-spacing:0px;word-spacing:0px;writing-mode:lr-tb;text-anchor:start;display:inline;fill:#000000;fill-opacity:1;stroke:none;stroke-width:1px;stroke-linecap:butt;stroke-linejoin:miter;stroke-opacity:1"
       xml:space="preserve"><tspan
         y="575.31702"
         x="78.813881"
         id="tspan4349"
         sodipodi:role="line">Ripolab</tspan></text>
    <text
       transform="matrix(0,-1,1,0,0,0)"
       sodipodi:linespacing="125%"
       id="text4351"
       y="597.40588"
       x="-459.88336"
       style="font-style:normal;font-variant:normal;font-weight:normal;font-stretch:normal;font-size:108.17501831px;line-height:125%;font-family:'Share Tech Mono';-inkscape-font-specification:'Share Tech Mono, Normal';text-align:start;letter-spacing:0px;word-spacing:0px;writing-mode:lr-tb;text-anchor:start;display:inline;fill:#000000;fill-opacity:1;stroke:none;stroke-width:1px;stroke-linecap:butt;stroke-linejoin:miter;stroke-opacity:1"
       xml:space="preserve"><tspan
         y="597.40588"
         x="-459.88336"
         id="tspan4353"
         sodipodi:role="line">hacklab</tspan></text>
  </g>
</svg>
