<?xml version="1.0" encoding="UTF-8" standalone="no"?>
<svg
   xmlns:dc="http://purl.org/dc/elements/1.1/"
   xmlns:cc="http://creativecommons.org/ns#"
   xmlns:rdf="http://www.w3.org/1999/02/22-rdf-syntax-ns#"
   xmlns:svg="http://www.w3.org/2000/svg"
   xmlns="http://www.w3.org/2000/svg"
   xmlns:sodipodi="http://sodipodi.sourceforge.net/DTD/sodipodi-0.dtd"
   xmlns:inkscape="http://www.inkscape.org/namespaces/inkscape"
   version="1.1"
   id="svg3438"
   viewBox="0 0 399.99998 400"
   height="400"
   width="400"
   inkscape:version="0.91 r13725"
   sodipodi:docname="ripolab_400x400_vectorizado.svg">
  <sodipodi:namedview
     pagecolor="#ffffff"
     bordercolor="#666666"
     borderopacity="1"
     objecttolerance="10"
     gridtolerance="10"
     guidetolerance="10"
     inkscape:pageopacity="0"
     inkscape:pageshadow="2"
     inkscape:window-width="1879"
     inkscape:window-height="1056"
     id="namedview69386"
     showgrid="false"
     inkscape:zoom="2.2125"
     inkscape:cx="128.36158"
     inkscape:cy="200"
     inkscape:window-x="41"
     inkscape:window-y="24"
     inkscape:window-maximized="1"
     inkscape:current-layer="svg3438" />
  <defs
     id="defs3440" />
  <metadata
     id="metadata3443">
    <rdf:RDF>
      <cc:Work
         rdf:about="">
        <dc:format>image/svg+xml</dc:format>
        <dc:type
           rdf:resource="http://purl.org/dc/dcmitype/StillImage" />
        <dc:title />
      </cc:Work>
    </rdf:RDF>
  </metadata>
  <path
     style="fill:#000000"
     d="m 20.496178,10.559962 c -4.81912,-0.08121 -9.719065,1.784409 -13.3906251,5.767578 -8.4051306,9.118486 -5.9568106,22.568856 5.1875001,28.496094 3.55476,1.890644 11.643582,1.80949 15.601562,-0.15625 l 3.16211,-1.570312 2.339843,2.8125 c 1.286941,1.546816 10.543083,12.314789 20.570313,23.929687 L 72.199303,90.9584 65.650475,97.688871 c -6.15705,6.328779 -6.547822,6.947119 -6.544922,10.351559 0.004,4.39125 0.731673,5.61646 11.470703,19.27344 4.62042,5.87588 8.400391,10.94574 8.400391,11.26562 0,0.31989 -1.81401,4.4555 -4.03125,9.19141 -2.21726,4.73593 -5.063349,11.77876 -6.324219,15.65039 -1.26088,3.87163 -2.378748,7.14768 -2.486328,7.2793 -0.10758,0.13161 -6.486258,0.97205 -14.173828,1.86914 -17.11298,1.99699 -19.493476,2.62461 -22.197266,5.83789 l -2.132812,2.5332 0,25.93555 0,25.93554 2.359374,2.52344 c 2.831021,3.03062 3.139024,3.11686 18.345704,5.04102 11.18383,1.41512 21.378175,1.52535 148.478518,1.61914 133.15784,0.0983 136.80551,0.0594 150.29492,-1.60742 7.60373,-0.93955 15.05937,-2.2937 16.56836,-3.00977 5.00907,-2.37695 5.1543,-3.26053 5.1543,-31.20117 l 0,-25.23633 -2.13086,-2.5332 c -2.70088,-3.20982 -5.06592,-3.83381 -22.22461,-5.86328 -7.70184,-0.91094 -14.07857,-1.7518 -14.17187,-1.86914 -0.0933,-0.11734 -1.202,-3.38228 -2.4629,-7.25391 -1.26087,-3.87163 -4.10696,-10.91446 -6.32421,-15.65039 -2.21726,-4.73591 -4.03125,-8.88469 -4.03125,-9.2207 0,-0.336 4.28827,-6.09572 9.52929,-12.79883 5.24103,-6.7031 9.75867,-13.10156 10.03907,-14.21875 1.14421,-4.55891 -0.27852,-7.86558 -5.80469,-13.488279 L 325.9122,92.61465 344.56259,71.081447 c 10.25725,-11.842639 19.70306,-22.796934 20.99023,-24.34375 l 2.33985,-2.8125 2.79882,1.328125 c 8.75686,4.155402 18.15612,1.578881 23.32618,-6.394532 1.81224,-2.794908 2.14453,-4.246167 2.14453,-9.404297 -10e-6,-6.855551 -0.57882,-8.384587 -4.85742,-12.859374 -8.27227,-8.6515632 -23.00928,-6.170483 -28.48829,4.796874 -2.14097,4.285573 -2.49608,8.863042 -0.99804,12.894532 0.74992,2.018153 1.42474,4.321199 1.49804,5.117187 0.0874,0.94902 -8.12982,8.574229 -23.86914,22.150391 l -24.0039,20.703125 -7.16016,-7.126953 c -6.43948,-6.409639 -7.53322,-7.169351 -10.86523,-7.544922 -2.1274,-0.239785 -4.49934,0.006 -5.56836,0.578125 -1.02403,0.548051 -7.17747,5.187835 -13.67578,10.310547 l -11.81446,9.314453 -8.18359,-3.96875 c -4.50087,-2.183156 -11.81682,-5.164946 -16.25781,-6.625 -4.44099,-1.460063 -8.08185,-3.059202 -8.08985,-3.554688 -0.008,-0.495486 -0.91837,-7.952137 -2.02148,-16.570312 -1.95039,-15.237743 -2.07491,-15.740918 -4.55469,-18.220703 l -2.55078,-2.548828 -26.46875,0 -26.4707,0 -2.61719,2.617187 c -2.55854,2.558548 -2.65998,2.959547 -4.55274,17.804688 -1.06505,8.353279 -1.94412,15.780678 -1.95312,16.503906 -0.0118,0.92515 -2.41095,2.101068 -8.0918,3.96875 -4.44098,1.460054 -11.78218,4.452998 -16.3125,6.650391 l -8.23632,3.99414 -11.22461,-8.849609 C 103.49734,66.945376 103.69606,67.061719 99.154376,67.573634 95.743136,67.958138 94.682046,68.661457 88.9786,74.331447 L 82.611412,80.661525 58.796959,60.173243 C 42.323859,46.00173 35.108312,39.289915 35.392662,38.405665 c 0.22611,-0.703106 1.01632,-2.929112 1.75586,-4.947265 1.52859,-4.171418 1.103523,-8.680595 -1.253907,-13.308594 -3.14051,-6.165308 -9.202437,-9.485427 -15.398437,-9.589844 z m 110.742192,98.970698 7.61328,0.23633 7.61523,0.23828 1.24415,7.00586 1.24609,7.00391 5.15039,2.01953 5.15039,2.01758 6.09961,-4.21485 6.09766,-4.21679 5.27148,5.31836 5.27149,5.32031 -4.24415,6.07812 -4.24609,6.08008 2.16992,4.91211 c 1.19254,2.70149 2.23667,5.02138 2.32227,5.15625 0.0856,0.13488 3.38141,0.83852 7.32422,1.5625 l 7.16992,1.31641 -0.23633,7.54297 -0.23633,7.54492 -6.21289,1.0957 c -3.41615,0.60307 -6.62036,1.53604 -7.12109,2.07422 -0.50073,0.53819 -1.74008,3.08516 -2.75391,5.6582 l -1.84375,4.67774 1.14063,1.71484 -27.42188,0 -3.46094,-8.27734 1.89063,-1.57617 c 1.03993,-0.86716 2.15414,-1.59028 2.47656,-1.60547 0.32241,-0.0152 1.53349,-1.64331 2.69141,-3.61914 4.1643,-7.10586 1.94628,-16.02216 -4.99805,-20.0918 -4.62275,-2.70912 -11.39013,-2.75534 -15.32226,-0.10547 -8.67949,5.8491 -9.4861,16.29694 -1.82813,23.66016 l 3.74024,3.59765 -1.24024,3.02735 c -0.2901,0.70886 -1.3332,3.28984 -2.02344,4.99023 l -27.38281,0 1.25,-1.83203 -2.23047,-5.44726 -2.232424,-5.44922 -6.974609,-1.2461 -6.976563,-1.24609 0,-7.44922 0,-7.44922 6.888672,-1.33984 c 3.78838,-0.73663 7.17741,-1.66822 7.53125,-2.07031 0.35384,-0.40209 1.470624,-2.82351 2.480474,-5.38086 l 1.83594,-4.64844 -3.77735,-5.4043 c -2.077544,-2.97198 -3.777344,-5.92265 -3.777344,-6.55664 0,-0.634 2.14559,-3.27449 4.767584,-5.86914 l 4.76562,-4.71875 6.40625,4.23047 6.40625,4.23047 4.76953,-2.05078 c 5.13654,-2.20995 5.41338,-2.72041 7.21875,-13.3086 l 0.53516,-3.13672 z m 120.08203,0.82813 7.61524,0.23633 7.61328,0.23828 1.24609,7.00586 1.24414,7.0039 5.15039,2.01954 5.15234,2.01757 6.09766,-4.21484 6.09766,-4.2168 5.27148,5.31836 5.27344,5.32031 -4.24609,6.07813 -4.24415,6.08008 2.16797,4.91211 c 1.19254,2.70149 2.23872,5.02333 2.32422,5.1582 0.0856,0.13488 3.38141,0.83657 7.32422,1.56055 l 7.16797,1.3164 -0.23633,7.54297 -0.23633,7.54492 -6.21093,1.09571 c -3.41615,0.60306 -6.62038,1.53604 -7.1211,2.07422 -0.50075,0.53818 -1.74007,3.08516 -2.7539,5.6582 l -1.84375,4.67773 0.58984,0.88672 -27.21875,0 -3.11523,-7.44922 1.89062,-1.57617 c 1.03992,-0.86716 2.15415,-1.59027 2.47656,-1.60547 0.32241,-0.0152 1.53349,-1.64331 2.69141,-3.61914 4.16431,-7.10586 1.94628,-16.02214 -4.99805,-20.09179 -4.62276,-2.70911 -11.38818,-2.75532 -15.32031,-0.10547 -8.67949,5.84911 -9.48804,16.29694 -1.83008,23.66015 l 3.74024,3.59766 -1.23829,3.02734 c -0.24198,0.59127 -1.15426,2.84445 -1.68945,4.16211 l -27.15234,0 0.68555,-1.0039 -2.23243,-5.44727 -2.23047,-5.44922 -6.97656,-1.24609 -6.97461,-1.2461 0,-7.44921 0,-7.44922 6.88672,-1.33985 c 3.78839,-0.73662 7.17937,-1.66823 7.5332,-2.07031 0.35384,-0.4021 1.46867,-2.82349 2.47852,-5.38086 l 1.83594,-4.64844 -3.77735,-5.40429 c -2.07756,-2.97197 -3.77734,-5.92265 -3.77734,-6.55664 0,-0.634 2.14557,-3.27449 4.76758,-5.86914 l 4.76758,-4.71875 6.40625,4.23046 6.40429,4.23047 4.76953,-2.05078 c 5.13655,-2.20995 5.41338,-2.72039 7.21875,-13.30859 l 0.53516,-3.13672 z M 99.634846,255.34707 c -15.138076,0 -20.658199,0.25785 -20.658199,0.96289 0,0.52918 2.066456,5.03712 4.591797,10.01953 l 4.591796,9.06055 -3.248046,4.26367 c -1.786151,2.34555 -6.641103,8.55097 -10.789063,13.78906 -4.14796,5.23809 -7.547288,10.28108 -7.554687,11.20703 -0.009,1.09607 5.720395,7.39005 16.416015,18.03711 13.346237,13.28566 16.725357,16.24275 18.011721,15.75391 0.87092,-0.33095 7.6287,-5.39309 15.01758,-11.24805 l 13.43555,-10.64453 7.68359,4.10352 c 8.1204,4.33715 21.07373,9.45065 27.98047,11.04492 2.27346,0.52479 4.13281,1.29943 4.13281,1.72266 0,0.42323 0.93895,8.46573 2.08594,17.87109 1.6253,13.32754 2.39091,17.32798 3.4707,18.13477 2.12981,1.59135 46.04686,1.47725 47.375,-0.12305 0.5285,-0.63683 1.90686,-8.92803 3.0625,-18.42578 1.15563,-9.49776 2.35271,-17.48692 2.66016,-17.75391 0.30745,-0.26699 4.89279,-1.85217 10.18945,-3.52148 5.29664,-1.66931 14.0113,-5.25515 19.36524,-7.97071 l 9.73437,-4.9375 12.9336,10.19532 c 7.11338,5.60765 13.8093,10.65907 14.88085,11.22461 1.85419,0.97861 2.74325,0.23438 18.42579,-15.37696 10.72934,-10.68063 16.47384,-16.9897 16.46484,-18.08594 -0.007,-0.92595 -3.40672,-5.96894 -7.55469,-11.20703 -4.14796,-5.23809 -9.00291,-11.44351 -10.78906,-13.78906 l -3.24805,-4.26367 4.5918,-9.06055 c 2.52534,-4.98241 4.5918,-9.49035 4.5918,-10.01953 0,-0.70501 -5.51337,-0.96289 -20.63086,-0.96289 l -20.63086,0 -3.71485,5.17578 c -10.67598,14.87742 -28.62372,27.94871 -46.12109,33.5918 -13.3751,4.31361 -30.5999,5.49578 -44.00781,3.01758 -23.48231,-4.34026 -45.15033,-18.00844 -58.69531,-37.02344 l -3.39258,-4.76172 -20.658214,0 z"
     id="path3415"
     inkscape:connector-curvature="0" />
</svg>
