<?xml version="1.0" encoding="UTF-8" standalone="no"?>
<svg
   xmlns:dc="http://purl.org/dc/elements/1.1/"
   xmlns:cc="http://creativecommons.org/ns#"
   xmlns:rdf="http://www.w3.org/1999/02/22-rdf-syntax-ns#"
   xmlns:svg="http://www.w3.org/2000/svg"
   xmlns="http://www.w3.org/2000/svg"
   xmlns:sodipodi="http://sodipodi.sourceforge.net/DTD/sodipodi-0.dtd"
   xmlns:inkscape="http://www.inkscape.org/namespaces/inkscape"
   version="1.1"
   id="svg3438"
   viewBox="0 0 655.51112 655.51114"
   height="185mm"
   width="185mm"
   inkscape:version="0.91 r13725"
   sodipodi:docname="ripolab_camiseta_v2.svg">
  <sodipodi:namedview
     pagecolor="#ffffff"
     bordercolor="#666666"
     borderopacity="1"
     objecttolerance="10"
     gridtolerance="10"
     guidetolerance="10"
     inkscape:pageopacity="0"
     inkscape:pageshadow="2"
     inkscape:window-width="1858"
     inkscape:window-height="1053"
     id="namedview69386"
     showgrid="false"
     inkscape:zoom="0.70710678"
     inkscape:cx="274.74242"
     inkscape:cy="495.32459"
     inkscape:window-x="62"
     inkscape:window-y="27"
     inkscape:window-maximized="1"
     inkscape:current-layer="layer4"
     units="mm"
     fit-margin-top="0"
     fit-margin-left="0"
     fit-margin-right="0"
     fit-margin-bottom="0"
     inkscape:document-units="mm"
     borderlayer="false"
     inkscape:snap-text-baseline="true" />
  <defs
     id="defs3440">
    <filter
       style="color-interpolation-filters:sRGB"
       inkscape:label="Invert"
       id="filter4786">
      <feColorMatrix
         type="hueRotate"
         values="180"
         result="color1"
         id="feColorMatrix4788" />
      <feColorMatrix
         values="-1 0 0 0 1 0 -1 0 0 1 0 0 -1 0 1 -0.21 -0.72 -0.07 2 0 "
         result="color2"
         id="feColorMatrix4790" />
    </filter>
    <filter
       style="color-interpolation-filters:sRGB"
       inkscape:label="Invert"
       id="filter4786-2">
      <feColorMatrix
         type="hueRotate"
         values="180"
         result="color1"
         id="feColorMatrix4788-1" />
      <feColorMatrix
         values="-1 0 0 0 1 0 -1 0 0 1 0 0 -1 0 1 -0.21 -0.72 -0.07 2 0 "
         result="color2"
         id="feColorMatrix4790-6" />
    </filter>
    <filter
       style="color-interpolation-filters:sRGB"
       inkscape:label="Invert"
       id="filter4786-20">
      <feColorMatrix
         type="hueRotate"
         values="180"
         result="color1"
         id="feColorMatrix4788-2" />
      <feColorMatrix
         values="-1 0 0 0 1 0 -1 0 0 1 0 0 -1 0 1 -0.21 -0.72 -0.07 2 0 "
         result="color2"
         id="feColorMatrix4790-2" />
    </filter>
  </defs>
  <metadata
     id="metadata3443">
    <rdf:RDF>
      <cc:Work
         rdf:about="">
        <dc:format>image/svg+xml</dc:format>
        <dc:type
           rdf:resource="http://purl.org/dc/dcmitype/StillImage" />
        <dc:title></dc:title>
      </cc:Work>
    </rdf:RDF>
  </metadata>
  <g
     inkscape:groupmode="layer"
     id="layer4"
     inkscape:label="camiseta"
     style="display:inline"
     transform="translate(-4.2263186,487.95683)">
    <rect
       style="opacity:1;fill:#000000;fill-opacity:1;stroke:none;stroke-width:0.14047045;stroke-linecap:round;stroke-linejoin:bevel;stroke-miterlimit:4;stroke-dasharray:none;stroke-dashoffset:0;stroke-opacity:1"
       id="rect4159"
       width="950.60913"
       height="755.66498"
       x="-125.67923"
       y="-524.69037" />
    <path
       style="fill:#000000;filter:url(#filter4786-20)"
       d="m 58.267238,-456.8846 c -19.09687,0.29793 -31.948586,25.76169 -19.845669,40.95308 6.363983,9.62892 19.583669,13.01148 30.267557,9.49804 10.413089,12.83121 21.802677,24.83676 32.124964,37.7441 -7.01509,5.84668 -13.315984,15.91768 -8.398389,24.99021 3.931596,9.27419 12.199389,15.56628 17.144479,24.11716 -3.89589,7.68728 -7.05279,15.72773 -9.826187,23.88083 -12.222687,2.03479 -28.04267,0.12282 -37.36326,10.48436 -6.338093,9.30501 -1.692798,20.8976 -3.029297,31.24021 0.3395,10.59871 -1.221898,21.74151 1.279299,32.01169 7.567092,11.37116 23.022275,10.42194 34.980463,11.45896 5.841692,0.56805 14.147382,0.20148 18.410182,1.08789 -5.5979,4.99386 -2.4713,13.27836 1.414,18.25975 2.60899,3.07059 4.04859,7.71297 0.0606,10.40428 -6.5301,8.21214 -14.22009,15.98075 -17.806685,26.06833 6.291595,14.3321 20.301275,22.82424 30.089865,34.30661 4.8347,5.546 13.61439,9.97592 20.11318,4.32812 7.51759,-5.37918 14.36829,-11.6925 21.82038,-16.94529 3.86939,0.57696 7.29919,3.99521 11.26559,5.15429 6.71709,3.02157 13.63458,5.61196 20.70897,7.66796 1.883,11.91308 0.5365,25.3587 7.3496,35.849569 9.06209,6.041863 20.39907,1.935267 30.45696,3.494136 9.07849,-0.14886 19.11718,0.562349 27.41407,-2.759757 6.4111,-9.60798 4.731,-21.814558 6.914,-32.439428 -0.6877,-4.00749 2.46629,-5.67617 5.82029,-5.90624 9.07709,-3.18112 17.98528,-6.88426 26.51177,-11.34569 9.65349,6.86807 17.92808,17.13853 29.71867,20.17186 11.43719,-2.222 16.84638,-13.98627 25.45117,-20.55858 6.0552,-6.22436 14.04139,-12.30455 16.20509,-20.96873 -2.7543,-12.50959 -14.48829,-20.26847 -20.30468,-30.84566 3.58539,-6.56372 10.47859,-14.76959 5.94139,-22.61912 -5.03009,-2.85631 1.6016,-1.63809 4.25,-1.98828 13.81438,-0.98786 28.79217,0.57874 41.41005,-6.24413 9.87409,-6.07548 7.35529,-19.56291 7.36919,-29.24411 -0.2212,-12.7717 2.2987,-26.12951 -1.83009,-38.49606 -7.6997,-10.78878 -22.49588,-9.24519 -34.00977,-11.33592 -2.01079,0.0141 -5.78659,0.22307 -5.07809,-2.85351 -2.6007,-7.45945 -6.1425,-14.60062 -8.95899,-21.93748 6.69359,-10.12566 18.55098,-18.93603 18.68558,-32.09176 -0.6847,-5.87104 -4.4524,-10.79207 -8.48639,-14.86717 11.18409,-12.68437 22.07017,-25.97238 33.41216,-38.29293 15.61628,5.88853 35.56506,-7.24736 34.14636,-24.4531 1.2643,-16.78494 -17.52488,-30.84681 -33.30266,-24.89451 -13.29529,3.9955 -21.95818,19.76508 -16.74408,32.92575 -11.75479,10.80963 -24.09458,21.56933 -36.46876,32.01755 -2.8864,3.74474 -5.1628,-2.84462 -8.12689,-4.22461 -6.3183,-5.95504 -16.55669,-8.17627 -23.86718,-2.67773 -7.68619,4.27089 -13.54798,11.59674 -20.94138,15.87303 -7.29749,-4.40444 -15.93878,-7.06199 -23.87307,-10.21678 -2.0749,-12.35633 -0.071,-27.68819 -10.12689,-37.08004 -9.29059,-6.21338 -20.83428,-1.42796 -31.10937,-2.81836 -11.00358,0.42895 -22.78487,-1.70257 -33.32416,1.70312 -10.57379,8.25131 -9.17069,23.2639 -10.80279,35.10543 0.6992,5.67633 -6.47349,4.30478 -9.53319,6.61327 -5.22399,2.0446 -10.42349,4.17379 -15.44328,6.68555 -9.90139,-7.09996 -18.68888,-18.81622 -31.91017,-19.08982 -6.79759,0.67364 -12.01799,5.64147 -16.65428,10.1953 -12.29979,-10.99944 -25.769473,-21.12859 -37.259661,-32.76755 5.177395,-15.33696 -6.833792,-34.08202 -23.371075,-34.30856 -0.980199,0.0104 -1.957097,-0.0297 -2.937496,-0.0195 l -0.002,0 z m 1.894498,8.05859 c 6.196093,0.10442 12.257986,3.42452 15.398483,9.58983 2.357498,4.62799 2.782497,9.13717 1.253899,13.30858 -0.739499,2.01815 -1.527799,4.24416 -1.753898,4.94726 -0.2844,0.88425 6.931192,7.59607 23.404275,21.76756 l 23.814375,20.48825 6.36719,-6.33007 c 5.7034,-5.66997 6.7626,-6.3733 10.17389,-6.7578 4.5417,-0.51192 4.3448,-0.62826 19.62098,11.41601 l 11.22469,8.8496 8.23629,-3.99414 c 4.53029,-2.19739 11.87149,-5.19033 16.31248,-6.65039 5.6808,-1.86768 8.07779,-3.04359 8.08979,-3.96874 0.009,-0.72323 0.89,-8.15062 1.9551,-16.50389 1.8927,-14.84513 1.9923,-15.24613 4.5508,-17.80467 l 2.61909,-2.61719 26.47068,0 26.46877,0 2.55079,2.54883 c 2.4797,2.47978 2.6024,2.98296 4.5527,18.22068 1.1032,8.61817 2.0115,16.07481 2.0215,16.5703 0.008,0.49548 3.65079,2.09462 8.09179,3.55468 4.44089,1.46006 11.75689,4.44184 16.25778,6.62499 l 8.18159,3.96876 11.81639,-9.31445 c 6.49829,-5.12271 12.64989,-9.76248 13.67389,-10.31053 1.06909,-0.57213 3.44089,-0.81792 5.56829,-0.57813 3.332,0.37557 4.42569,1.13528 10.86529,7.54491 l 7.16209,7.12694 24.00187,-20.7031 c 15.73939,-13.57614 23.95808,-21.20135 23.87108,-22.15036 -0.0733,-0.79599 -0.7501,-3.09904 -1.5,-5.11719 -1.498,-4.03147 -1.141,-8.60894 1,-12.89451 5.47899,-10.96734 20.21408,-13.44843 28.48627,-4.79687 4.27859,4.47478 4.85749,6.00381 4.85749,12.85936 0,5.15812 -0.3324,6.60937 -2.14459,9.40429 -5.17,7.9734 -14.56739,10.54992 -23.32418,6.39452 l -2.8008,-1.32813 -2.33789,2.8125 c -1.2872,1.54683 -10.73299,12.5011 -20.99018,24.34372 l -18.65228,21.53319 5.33979,5.42967 c 5.5262,5.6227 6.9489,8.92938 5.8047,13.48828 -0.2804,1.11719 -4.8,7.51563 -10.04099,14.21874 -5.241,6.70309 -9.52929,12.4628 -9.52929,12.7988 0,0.33601 1.8159,4.4848 4.03319,9.2207 2.2172,4.73593 5.0633,11.77874 6.3242,15.65037 1.2609,3.87162 2.36989,7.13656 2.46289,7.2539 0.0933,0.11734 6.4681,0.9582 14.16989,1.86914 17.15868,2.02947 19.52378,2.65345 22.22458,5.86328 l 2.13279,2.5332 0,25.2363 c 0,27.94061 -0.1452,28.82419 -5.15429,31.20114 -1.509,0.71607 -8.96459,2.07021 -16.56828,3.00975 -13.48939,1.66683 -17.13709,1.70573 -150.29474,1.60743 -127.10027,-0.0938 -137.296456,-0.20402 -148.480344,-1.61914 -15.206584,-1.92416 -15.512784,-2.0104 -18.343781,-5.04101 l -2.359297,-2.52344 0,-25.93551 0,-25.93552 2.132798,-2.5332 c 2.703797,-3.21329 5.082394,-3.8409 22.195276,-5.83789 7.687592,-0.89709 14.066288,-1.73753 14.173788,-1.86914 0.1076,-0.13162 1.2274,-3.40767 2.48829,-7.27929 1.2608,-3.87163 4.1069,-10.91444 6.3242,-15.65037 2.21719,-4.7359 4.02929,-8.87151 4.02929,-9.1914 0,-0.31988 -3.77989,-5.38974 -8.40039,-11.26561 -10.738987,-13.65697 -11.468686,-14.88218 -11.468686,-19.27342 -0.0029,-3.40444 0.3878,-4.02278 6.544896,-10.35154 l 6.54879,-6.73047 -18.23238,-21.11911 c -10.02719,-11.6149 -19.28538,-22.38286 -20.572278,-23.92967 l -2.337898,-2.8125 -3.163996,1.57031 c -3.957896,1.96574 -12.046787,2.04689 -15.601584,0.15625 -11.144258,-5.92723 -13.592555,-19.37759 -5.187474,-28.49606 3.671576,-3.98317 8.571471,-5.84877 13.390566,-5.76757 z m 110.744084,98.97059 -0.5371,3.13672 c -1.8053,10.58818 -2.0803,11.09863 -7.21679,13.30859 l -4.7696,2.05077 -6.40819,-4.23046 -6.4042,-4.23047 -4.76569,4.71875 c -2.622,2.59464 -4.7676,5.23513 -4.7676,5.86913 0,0.63399 1.6979,3.58466 3.7754,6.55663 l 3.7793,5.4043 -1.8379,4.64842 c -1.0098,2.55735 -2.1247,4.97877 -2.4785,5.38086 -0.3539,0.40209 -3.7448,1.33369 -7.53319,2.07031 l -6.88669,1.33984 0,7.44922 0,7.44921 6.97459,1.24609 6.97459,1.24608 2.2324,5.44922 2.2305,5.44726 -1.25,1.83203 27.38477,0 c 0.6902,-1.70038 1.7314,-4.28136 2.0215,-4.99022 l 1.2422,-3.02735 -3.7422,-3.59765 c -7.65789,-7.36322 -6.84949,-17.81103 1.83,-23.66013 3.93209,-2.64987 10.69769,-2.60365 15.32038,0.10547 6.94429,4.06963 9.16229,12.98592 4.998,20.09178 -1.1579,1.97583 -2.369,3.60393 -2.6914,3.61913 -0.3224,0.0152 -1.4347,0.7383 -2.4746,1.60546 l -1.8926,1.57618 3.4629,8.27733 27.41987,0 -1.1406,-1.71484 1.8457,-4.67773 c 1.0138,-2.57304 2.2531,-5.12001 2.7539,-5.6582 0.5007,-0.53818 3.70299,-1.47114 7.11909,-2.07421 l 6.21289,-1.0957 0.2383,-7.54491 0.2363,-7.54297 -7.16989,-1.3164 c -3.9428,-0.72398 -7.23819,-1.42762 -7.32419,-1.5625 -0.0856,-0.13487 -1.1298,-2.45476 -2.3223,-5.15625 l -2.1699,-4.9121 4.2461,-6.08008 4.24219,-6.07811 -5.27149,-5.3203 -5.2715,-5.31836 -6.09569,4.21679 -6.09959,4.21484 -5.1523,-2.01758 -5.15039,-2.01952 -1.2461,-7.00391 -1.2422,-7.00585 -7.61519,-0.23828 -7.61329,-0.23633 z m 120.08187,0.82813 -0.5371,3.13672 c -1.8053,10.58819 -2.0803,11.09863 -7.21679,13.30857 l -4.7695,2.05078 -6.40429,-4.23046 -6.40819,-4.23047 -4.7656,4.71875 c -2.622,2.59465 -4.76759,5.23513 -4.76759,5.86913 0,0.634 1.69789,3.58467 3.77539,6.55664 l 3.7793,5.40429 -1.8379,4.64843 c -1.0098,2.55737 -2.1246,4.97876 -2.4785,5.38086 -0.3538,0.40208 -3.74479,1.33368 -7.53319,2.0703 l -6.88679,1.33984 0,7.44921 0,7.44922 6.97459,1.2461 6.97859,1.24608 2.2285,5.44922 2.2344,5.44725 -0.6875,1.00391 27.15227,0 c 0.5352,-1.31766 1.4494,-3.57083 1.6914,-4.1621 l 1.2383,-3.02734 -3.7422,-3.59766 c -7.65789,-7.36321 -6.84939,-17.81103 1.8301,-23.66012 3.93209,-2.64986 10.69749,-2.60365 15.32028,0.10546 6.94429,4.06965 9.16229,12.98592 4.998,20.09178 -1.1579,1.97582 -2.369,3.60393 -2.6914,3.61913 -0.3224,0.0152 -1.4347,0.73831 -2.4746,1.60547 l -1.8906,1.57617 3.1152,7.44921 27.21677,0 -0.5879,-0.88672 1.8418,-4.67772 c 1.0138,-2.57305 2.2532,-5.12004 2.7539,-5.65821 0.5007,-0.53818 3.70499,-1.47115 7.12109,-2.0742 l 6.21099,-1.09571 0.2382,-7.54492 0.2364,-7.54296 -7.16989,-1.3164 c -3.9428,-0.72399 -7.23829,-1.42566 -7.32429,-1.56054 -0.0855,-0.13487 -1.1317,-2.45671 -2.3242,-5.1582 l -2.168,-4.9121 4.2461,-6.08008 4.24609,-6.07812 -5.27539,-5.3203 -5.26949,-5.31836 -6.0996,4.2168 -6.09769,4.21483 -5.1523,-2.01758 -5.15039,-2.01952 -1.2422,-7.0039 -1.2461,-7.00585 -7.61519,-0.23828 -7.61329,-0.23633 z m -151.68734,144.98813 20.66018,0 3.3926,4.76171 c 13.54488,19.01498 35.21096,32.68315 58.69323,37.02339 13.40789,2.47821 30.63467,1.29603 44.00976,-3.01756 17.49728,-5.6431 35.44316,-18.71435 46.11905,-33.59177 l 3.71679,-5.17577 20.62888,0 c 15.11748,0 20.63088,0.25788 20.63088,0.96289 0,0.52918 -2.0664,5.03711 -4.5918,10.01951 l -4.58989,9.06055 3.24609,4.26366 c 1.7861,2.34555 6.6412,8.55096 10.78909,13.78905 4.148,5.23808 7.54469,10.28106 7.55469,11.20701 0.009,1.09623 -5.73549,7.40531 -16.46488,18.08592 -15.68248,15.61133 -16.57148,16.35555 -18.42568,15.37694 -1.0715,-0.56554 -7.76749,-5.61695 -14.88088,-11.2246 l -12.93359,-10.1953 -9.73239,4.9375 c -5.35399,2.71554 -14.07048,6.30138 -19.36718,7.9707 -5.29659,1.66931 -9.88209,3.25448 -10.18949,3.52147 -0.3075,0.26699 -1.50439,8.25613 -2.66009,17.75389 -1.1556,9.497744 -2.534,17.788935 -3.0625,18.425765 -1.3281,1.600298 -45.24515,1.714388 -47.37495,0.12304 -1.0798,-0.80679 -1.8454,-4.807225 -3.4707,-18.134745 -1.14699,-9.40535 -2.08399,-17.44785 -2.08399,-17.87108 0,-0.42322 -1.8594,-1.19786 -4.1328,-1.72265 -6.90679,-1.59426 -19.86198,-6.70777 -27.98237,-11.0449 l -7.68359,-4.10352 -13.43559,10.64452 c -7.38889,5.85496 -14.14658,10.91709 -15.01758,11.24804 -1.2863,0.48884 -4.6654,-2.46825 -18.01168,-15.7539 -10.69559,-10.64704 -16.42598,-16.94103 -16.41598,-18.03709 0.007,-0.92595 3.40679,-5.96893 7.55469,-11.20701 4.14799,-5.23809 9.00479,-11.4435 10.79099,-13.78905 l 3.24609,-4.26366 -4.59179,-9.06055 c -2.5253,-4.9824 -4.5918,-9.49033 -4.5918,-10.01951 0,-0.70504 5.5201,-0.96289 20.65818,-0.96289 z"
       id="path4881"
       inkscape:connector-curvature="0"
       transform="matrix(1.2549626,0,0,1.2549626,-21.108004,110.07691)" />
  </g>
  <g
     inkscape:groupmode="layer"
     id="layer2"
     inkscape:label="Layer 1"
     style="display:inline"
     transform="translate(-4.2263186,487.95683)" />
  <g
     inkscape:groupmode="layer"
     id="layer1"
     inkscape:label="Layer 5"
     style="display:inline"
     transform="translate(-81.112394,-32.318944)">
    <path
       sodipodi:type="inkscape:offset"
       inkscape:radius="4.5197716"
       inkscape:original="M 120.97461 520.75781 L 120.97461 634.47266 L 135.10742 634.47266 L 135.10742 587.36133 L 151.02734 587.36133 L 171.98242 634.47266 L 187.41602 634.47266 L 164.83594 584.59961 C 174.58277 581.56726 179.45508 573.933 179.45508 561.69531 L 179.45508 546.09961 C 179.45508 537.32746 177.07371 530.93867 172.30859 526.93164 C 167.65178 522.81631 160.71901 520.75781 151.51367 520.75781 L 120.97461 520.75781 z M 233.23633 520.75781 L 233.23633 535.37891 L 248.66797 535.37891 L 248.66797 520.75781 L 233.23633 520.75781 z M 471.25195 520.75781 L 471.25195 532.94141 L 495.13086 532.94141 L 495.13086 618.22656 C 495.13086 623.85806 496.48395 627.97311 499.19141 630.57227 C 502.00716 633.17142 505.25732 634.47266 508.93945 634.47266 L 536.23047 634.47266 L 536.23047 622.28906 L 514.625 622.28906 C 512.56734 622.28906 511.10467 621.90848 510.23828 621.15039 C 509.3719 620.3923 508.93945 619.14683 508.93945 617.41406 L 508.93945 520.75781 L 471.25195 520.75781 z M 649.15039 520.75781 L 649.15039 634.47266 L 680.99023 634.47266 C 690.41217 634.47266 697.34298 632.41416 701.7832 628.29883 C 706.33172 624.1835 708.60742 617.57751 708.60742 608.48047 L 708.60742 579.24023 C 708.60742 570.0349 706.38749 563.4289 701.94727 559.42188 C 697.50704 555.30655 690.52047 553.24805 680.99023 553.24805 L 675.14258 553.24805 C 670.26916 553.24805 666.20793 554.33013 662.95898 556.49609 L 662.95898 520.75781 L 649.15039 520.75781 z M 135.10742 532.94141 L 153.46484 532.94141 C 157.58017 532.94141 160.55737 533.86207 162.39844 535.70312 C 164.3478 537.54419 165.32227 540.52334 165.32227 544.63867 L 165.32227 563.32031 C 165.32227 567.43564 164.3478 570.46665 162.39844 572.41602 C 160.55737 574.25708 157.58017 575.17773 153.46484 575.17773 L 135.10742 575.17773 L 135.10742 532.94141 z M 210.16797 553.24805 L 210.16797 565.43164 L 234.04688 565.43164 L 234.04688 634.47266 L 271.89844 634.47266 L 271.89844 622.28906 L 247.85547 622.28906 L 247.85547 553.24805 L 210.16797 553.24805 z M 298.875 553.24805 L 298.875 662.08789 L 312.68164 662.08789 L 312.68164 634.47266 L 330.71484 634.47266 C 340.13678 634.47266 347.06759 632.41416 351.50781 628.29883 C 356.05633 624.1835 358.33008 617.57751 358.33008 608.48047 L 358.33008 579.24023 C 358.33008 570.0349 356.11014 563.4289 351.66992 559.42188 C 347.2297 555.30655 340.24508 553.24805 330.71484 553.24805 L 324.86523 553.24805 C 319.55863 553.24805 315.22833 554.54733 311.87109 557.14648 L 311.87109 553.24805 L 298.875 553.24805 z M 413.41016 553.24805 C 403.98822 553.24805 397.00166 555.30654 392.45312 559.42188 C 388.0129 563.53719 385.79297 570.14319 385.79297 579.24023 L 385.79297 608.48047 C 385.79297 617.57751 388.01291 624.1835 392.45312 628.29883 C 397.00165 632.41416 403.98822 634.47266 413.41016 634.47266 L 418.77148 634.47266 C 428.19342 634.47266 435.12423 632.41416 439.56445 628.29883 C 444.11297 624.1835 446.38672 617.57751 446.38672 608.48047 L 446.38672 579.24023 C 446.38672 570.14319 444.11297 563.53719 439.56445 559.42188 C 435.12423 555.30655 428.19342 553.24805 418.77148 553.24805 L 413.41016 553.24805 z M 564.83008 553.24805 L 564.83008 565.43164 L 590.00977 565.43164 C 594.0168 565.43164 597.04976 566.35229 599.10742 568.19336 C 601.16509 570.03443 602.19336 572.63299 602.19336 575.99023 L 602.19336 584.11328 L 582.05078 584.11328 C 566.23926 584.11328 558.33203 592.50676 558.33203 609.29297 L 558.33203 612.54102 C 558.33203 620.55507 560.17333 626.24042 563.85547 629.59766 C 567.6459 632.8466 573.65802 634.47266 581.88867 634.47266 L 596.3457 634.47266 C 600.46103 634.47266 603.76305 632.8466 606.25391 629.59766 C 607.44519 631.11383 608.85404 632.30548 610.47852 633.17188 C 612.21129 634.03826 613.78158 634.47266 615.18945 634.47266 L 624.12305 634.47266 L 624.12305 623.09961 C 621.199 623.09961 619.08864 622.72098 617.78906 621.96289 C 616.59778 621.09651 616.00195 619.85103 616.00195 618.22656 L 616.00195 579.24023 C 616.00195 570.14319 613.72821 563.53719 609.17969 559.42188 C 604.73947 555.30655 597.8067 553.24805 588.38477 553.24805 L 564.83008 553.24805 z M 323.24219 565.43164 L 332.33789 565.43164 C 336.34492 565.43164 339.37788 566.35229 341.43555 568.19336 C 343.49321 570.03443 344.52148 572.63299 344.52148 575.99023 L 344.52148 611.72852 C 344.52148 615.08576 343.49321 617.68628 341.43555 619.52734 C 339.37788 621.36841 336.34492 622.28906 332.33789 622.28906 L 312.68164 622.28906 L 312.68164 574.36719 C 312.68164 572.20123 313.54848 570.19654 315.28125 568.35547 C 317.01402 566.4061 319.66835 565.43164 323.24219 565.43164 z M 411.78516 565.43164 L 420.39453 565.43164 C 424.40156 565.43164 427.43452 566.35229 429.49219 568.19336 C 431.54985 570.03443 432.57813 572.63299 432.57812 575.99023 L 432.57812 611.72852 C 432.57812 615.08576 431.54985 617.68628 429.49219 619.52734 C 427.43452 621.36841 424.40156 622.28906 420.39453 622.28906 L 411.78516 622.28906 C 407.77813 622.28906 404.74516 621.36841 402.6875 619.52734 C 400.62984 617.68628 399.60156 615.08576 399.60156 611.72852 L 399.60156 575.99023 C 399.60156 572.63299 400.62984 570.03443 402.6875 568.19336 C 404.74516 566.35229 407.77813 565.43164 411.78516 565.43164 z M 673.51758 565.43164 L 682.61523 565.43164 C 686.62226 565.43164 689.65523 566.35229 691.71289 568.19336 C 693.77055 570.03443 694.79883 572.63299 694.79883 575.99023 L 694.79883 611.72852 C 694.79883 615.08576 693.77055 617.68628 691.71289 619.52734 C 689.65523 621.36841 686.62226 622.28906 682.61523 622.28906 L 662.95898 622.28906 L 662.95898 574.36719 C 662.95898 572.20123 663.82582 570.19654 665.55859 568.35547 C 667.29136 566.4061 669.94374 565.43164 673.51758 565.43164 z M 581.88867 596.29688 L 602.19336 596.29688 L 602.19336 614.16602 C 602.19336 616.54857 601.76092 618.4975 600.89453 620.01367 C 600.02815 621.52985 597.96965 622.28906 594.7207 622.28906 L 580.26367 622.28906 C 577.44792 622.28906 575.38942 621.63747 574.08984 620.33789 C 572.79027 619.03831 572.14062 616.98177 572.14062 614.16602 L 572.14062 606.04297 C 572.14062 603.22722 573.06128 600.89966 574.90234 599.05859 C 576.74341 597.21753 579.07292 596.29687 581.88867 596.29688 z "
       style="font-style:normal;font-variant:normal;font-weight:normal;font-stretch:normal;font-size:162.44714355px;line-height:125%;font-family:'Share Tech Mono';-inkscape-font-specification:'Share Tech Mono, Normal';text-align:start;letter-spacing:0px;word-spacing:0px;writing-mode:lr-tb;text-anchor:start;fill:#ffffff;fill-opacity:1;stroke:none;stroke-width:1px;stroke-linecap:butt;stroke-linejoin:miter;stroke-opacity:1"
       id="path4199"
       d="m 120.97461,516.23828 a 4.5202236,4.5202236 0 0 0 -4.51953,4.51953 l 0,113.71485 a 4.5202236,4.5202236 0 0 0 4.51953,4.51953 l 14.13281,0 a 4.5202236,4.5202236 0 0 0 4.51953,-4.51953 l 0,-42.5918 8.46485,0 19.76172,44.42773 a 4.5202236,4.5202236 0 0 0 4.1289,2.6836 l 15.4336,0 a 4.5202236,4.5202236 0 0 0 4.11718,-6.38281 l -20.68164,-45.67969 c 3.59063,-1.90266 6.61417,-4.53679 8.75977,-7.89844 3.02568,-4.74054 4.36328,-10.61726 4.36328,-17.33594 l 0,-15.5957 c 0,-9.56909 -2.74149,-17.53539 -8.72266,-22.58984 -5.76168,-5.06589 -13.88481,-7.27149 -23.73828,-7.27149 l -30.53906,0 z m 112.26172,0 a 4.5202236,4.5202236 0 0 0 -4.51953,4.51953 l 0,14.6211 a 4.5202236,4.5202236 0 0 0 4.51953,4.51953 l 15.43164,0 a 4.5202236,4.5202236 0 0 0 4.51953,-4.51953 l 0,-14.6211 a 4.5202236,4.5202236 0 0 0 -4.51953,-4.51953 l -15.43164,0 z m 238.01562,0 a 4.5202236,4.5202236 0 0 0 -4.51953,4.51953 l 0,12.1836 a 4.5202236,4.5202236 0 0 0 4.51953,4.51953 l 19.35938,0 0,80.76562 c 0,6.35548 1.5652,11.87681 5.44922,15.60547 a 4.5202236,4.5202236 0 0 0 0.0645,0.0605 c 3.53705,3.26496 8.06749,5.09961 12.81445,5.09961 l 27.29102,0 a 4.5202236,4.5202236 0 0 0 4.51953,-4.51953 l 0,-12.1836 a 4.5202236,4.5202236 0 0 0 -4.51953,-4.51953 l -21.60547,0 c -0.59992,0 -0.89575,-0.0747 -1.1543,-0.13086 -0.006,-0.099 -0.0117,-0.0607 -0.0117,-0.22461 l 0,-96.65625 a 4.5202236,4.5202236 0 0 0 -4.51953,-4.51953 l -37.6875,0 z m 177.89844,0 a 4.5202236,4.5202236 0 0 0 -4.51953,4.51953 l 0,113.71485 a 4.5202236,4.5202236 0 0 0 4.51953,4.51953 l 31.83984,0 c 10.06982,0 18.2373,-2.17837 23.84571,-7.36524 5.76064,-5.22723 8.29101,-13.30862 8.29101,-23.14648 l 0,-29.24024 c 0,-9.91943 -2.4301,-17.99115 -8.13281,-23.15234 -5.62216,-5.19566 -13.83695,-7.35937 -24.00391,-7.35937 l -5.84765,0 c -2.6934,0 -5.2584,0.31212 -7.66406,0.93359 l 0,-28.9043 a 4.5202236,4.5202236 0 0 0 -4.51954,-4.51953 l -13.80859,0 z m -509.52344,21.22266 13.83789,0 c 3.44124,0 5.08722,0.78644 5.73828,1.4375 a 4.5202236,4.5202236 0 0 0 0.0918,0.0898 c 0.72651,0.68615 1.50781,2.24855 1.50781,5.65039 l 0,18.68164 c 0,3.40184 -0.77413,5.07491 -1.59961,5.90039 -0.65106,0.65106 -2.29703,1.4375 -5.73828,1.4375 l -13.83789,0 0,-33.19726 z m 70.54102,11.26758 a 4.5202236,4.5202236 0 0 0 -4.51953,4.51953 l 0,12.18359 a 4.5202236,4.5202236 0 0 0 4.51953,4.51953 l 19.35937,0 0,64.52149 a 4.5202236,4.5202236 0 0 0 4.51954,4.51953 l 37.85156,0 a 4.5202236,4.5202236 0 0 0 4.51953,-4.51953 l 0,-12.1836 a 4.5202236,4.5202236 0 0 0 -4.51953,-4.51953 l -19.52344,0 0,-64.52148 a 4.5202236,4.5202236 0 0 0 -4.51953,-4.51953 l -37.6875,0 z m 88.70703,0 a 4.5202236,4.5202236 0 0 0 -4.51953,4.51953 l 0,108.83984 a 4.5202236,4.5202236 0 0 0 4.51953,4.51953 l 13.80664,0 a 4.5202236,4.5202236 0 0 0 4.51953,-4.51953 l 0,-23.0957 13.51367,0 c 10.06982,0 18.23729,-2.17837 23.84571,-7.36524 5.7611,-5.22766 8.28906,-13.30927 8.28906,-23.14648 l 0,-29.24024 c 0,-9.91943 -2.4301,-17.99115 -8.13281,-23.15234 -5.62167,-5.19522 -13.835,-7.35937 -24.00196,-7.35937 l -5.84961,0 c -3.42447,0 -6.62295,0.55652 -9.55859,1.58593 a 4.5202236,4.5202236 0 0 0 -3.43555,-1.58593 l -12.99609,0 z m 114.53516,0 c -10.08026,0 -18.29028,2.1847 -23.99024,7.34179 a 4.5202236,4.5202236 0 0 0 -0.0391,0.0371 c -5.658,5.24398 -8.10742,13.30047 -8.10742,23.13281 l 0,29.24024 c 0,9.83234 2.44945,17.88882 8.10742,23.13281 a 4.5202236,4.5202236 0 0 0 0.0391,0.0371 c 5.69995,5.15709 13.90998,7.3418 23.99024,7.3418 l 5.36132,0 c 10.06982,0 18.2373,-2.17837 23.84571,-7.36524 5.7611,-5.22766 8.28906,-13.30927 8.28906,-23.14648 l 0,-29.24024 c 0,-9.83721 -2.52794,-17.91883 -8.28906,-23.14648 -5.60841,-5.18687 -13.77589,-7.36523 -23.84571,-7.36523 l -5.36132,0 z m 151.41992,0 a 4.5202236,4.5202236 0 0 0 -4.51953,4.51953 l 0,12.18359 a 4.5202236,4.5202236 0 0 0 4.51953,4.51953 l 25.17969,0 c 3.31472,0 5.11308,0.74263 6.08398,1.61133 1.04032,0.93081 1.58008,1.99338 1.58008,4.42773 l 0,3.60352 -15.62305,0 c -8.70553,0 -16.09373,2.42357 -21.07812,7.71484 -4.98439,5.29128 -7.16016,12.88159 -7.16016,21.98438 l 0,3.24805 c 0,8.70635 1.99294,15.83301 6.99805,20.39648 a 4.5202236,4.5202236 0 0 0 0.10351,0.0918 c 5.01768,4.30086 12.14867,5.96289 20.97461,5.96289 l 14.45703,0 c 3.61936,0 7.03487,-1.21124 9.89258,-3.26758 0.68552,0.50754 1.35977,1.03367 2.11328,1.43555 a 4.5202236,4.5202236 0 0 0 0.10547,0.0547 c 2.16919,1.08459 4.39483,1.77735 6.73242,1.77735 l 8.9336,0 a 4.5202236,4.5202236 0 0 0 4.51953,-4.51953 l 0,-11.37305 a 4.5202236,4.5202236 0 0 0 -4.51953,-4.51953 c -2.24962,0 -3.29045,-0.36287 -3.60157,-0.46289 l 0,-38.87696 c 0,-9.83721 -2.52794,-17.91883 -8.28906,-23.14648 -5.6089,-5.18732 -13.77785,-7.36523 -23.84765,-7.36523 l -23.55469,0 z m -241.58789,21.22265 9.0957,0 c 3.31473,0 5.11307,0.74262 6.08399,1.61133 1.04031,0.93081 1.58007,1.99338 1.58007,4.42773 l 0,35.73829 c 0,2.43435 -0.54096,3.49995 -1.58007,4.42968 -0.97092,0.86871 -2.76926,1.61133 -6.08399,1.61133 l -15.13672,0 0,-43.40234 c 0,-0.96006 0.24499,-1.71757 1.3711,-2.91407 a 4.5202236,4.5202236 0 0 0 0.0879,-0.0957 c 0.70698,-0.79536 1.82978,-1.40625 4.58203,-1.40625 z m 88.54297,0 8.60937,0 c 3.31473,0 5.11307,0.74262 6.08399,1.61133 1.04032,0.93082 1.58008,1.9934 1.58007,4.42773 l 0,35.73829 c 0,2.43435 -0.54096,3.49995 -1.58007,4.42968 -0.97092,0.86871 -2.76926,1.61133 -6.08399,1.61133 l -8.60937,0 c -3.31473,0 -5.1131,-0.74263 -6.08399,-1.61133 -1.03912,-0.92973 -1.58008,-1.99534 -1.58008,-4.42968 l 0,-35.73829 c 0,-2.43434 0.53976,-3.49691 1.58008,-4.42773 0.97089,-0.86869 2.76926,-1.61133 6.08399,-1.61133 z m 261.73242,0 9.09765,0 c 3.31473,0 5.1131,0.74264 6.08399,1.61133 1.04032,0.93082 1.58008,1.99339 1.58008,4.42773 l 0,35.73829 c 0,2.43434 -0.54096,3.49995 -1.58008,4.42968 -0.97089,0.8687 -2.76926,1.61133 -6.08399,1.61133 l -15.13671,0 0,-43.40234 c 0,-0.96006 0.24498,-1.71757 1.37109,-2.91407 a 4.5202236,4.5202236 0 0 0 0.0879,-0.0957 c 0.7081,-0.79661 1.82783,-1.40625 4.58008,-1.40625 z m -91.62891,30.86524 15.78516,0 0,13.34961 c 0,1.83564 -0.34311,2.97543 -0.70313,3.60546 0.34123,-0.59714 0.29484,-0.002 -2.25,-0.002 l -14.45703,0 c -2.11847,0 -2.83224,-0.48068 -2.97851,-0.62695 -0.1463,-0.14629 -0.625,-0.85602 -0.625,-2.97656 l 0,-8.12305 c 0,-1.83054 0.41052,-2.76208 1.4375,-3.78906 1.02585,-1.02585 1.96048,-1.43751 3.79101,-1.4375 z"
       transform="matrix(1.0257549,0,0,1.0257549,-12.038825,-10.84072)" />
    <path
       sodipodi:type="inkscape:offset"
       inkscape:radius="4.6092744"
       inkscape:original="M -475.55469 630.63477 L -475.55469 710.65625 L -465.83789 710.65625 L -465.83789 668.01562 C -465.76168 666.56761 -465.11392 665.23501 -463.89453 664.01562 C -462.67515 662.72003 -460.84697 662.07227 -458.4082 662.07227 L -450.86328 662.07227 C -448.57694 662.07227 -446.78583 662.7571 -445.49023 664.12891 C -444.11843 665.4245 -443.43164 667.21561 -443.43164 669.50195 L -443.43164 710.65625 L -433.71484 710.65625 L -433.71484 671.78906 C -433.71484 665.38729 -435.23865 660.73784 -438.28711 657.8418 C -441.25936 654.94576 -445.83272 653.49805 -452.00586 653.49805 L -457.26367 653.49805 C -460.69319 653.49805 -463.55154 654.26093 -465.83789 655.78516 L -465.83789 630.63477 L -475.55469 630.63477 z M -289.6543 630.63477 L -289.6543 710.65625 L -279.9375 710.65625 L -279.9375 686.19336 L -276.96484 682.76367 L -260.16016 710.65625 L -248.15625 710.65625 L -269.64844 676.01953 L -249.75781 653.49805 L -261.98828 653.49805 L -279.9375 673.84766 L -279.9375 630.63477 L -289.6543 630.63477 z M -231.00195 630.63477 L -231.00195 639.20898 L -214.19727 639.20898 L -214.19727 699.22461 C -214.19727 703.18761 -213.24513 706.08499 -211.33984 707.91406 C -209.35834 709.74314 -207.07166 710.65625 -204.48047 710.65625 L -185.27539 710.65625 L -185.27539 702.08398 L -200.47852 702.08398 C -201.92653 702.08398 -202.95671 701.81668 -203.56641 701.2832 C -204.1761 700.74972 -204.48047 699.87368 -204.48047 698.6543 L -204.48047 630.63477 L -231.00195 630.63477 z M -105.81055 630.63477 L -105.81055 710.65625 L -83.404297 710.65625 C -76.773893 710.65625 -71.896157 709.20854 -68.771484 706.3125 C -65.5706 703.41646 -63.970703 698.767 -63.970703 692.36523 L -63.970703 671.78906 C -63.970703 665.31108 -65.531577 660.66162 -68.65625 657.8418 C -71.780923 654.94576 -76.697682 653.49805 -83.404297 653.49805 L -87.519531 653.49805 C -90.94905 653.49805 -93.807404 654.26093 -96.09375 655.78516 L -96.09375 630.63477 L -105.81055 630.63477 z M -411.64453 653.49805 L -411.64453 662.07227 L -393.92578 662.07227 C -391.10595 662.07227 -388.97146 662.72003 -387.52344 664.01562 C -386.07542 665.31122 -385.35156 667.1394 -385.35156 669.50195 L -385.35156 675.21875 L -399.52734 675.21875 C -410.65423 675.21875 -416.2168 681.12471 -416.2168 692.9375 L -416.2168 695.22461 C -416.2168 700.86426 -414.92127 704.864 -412.33008 707.22656 C -409.66267 709.51291 -405.4327 710.65625 -399.64062 710.65625 L -389.4668 710.65625 C -386.57076 710.65625 -384.24701 709.51291 -382.49414 707.22656 C -381.65581 708.29352 -380.66466 709.1325 -379.52148 709.74219 C -378.3021 710.35188 -377.19778 710.65625 -376.20703 710.65625 L -369.91797 710.65625 L -369.91797 702.6543 C -371.97568 702.6543 -373.46241 702.387 -374.37695 701.85352 C -375.21528 701.24382 -375.63477 700.36778 -375.63477 699.22461 L -375.63477 671.78906 C -375.63477 665.38729 -377.23466 660.73784 -380.43555 657.8418 C -383.56022 654.94576 -388.43796 653.49805 -395.06836 653.49805 L -411.64453 653.49805 z M -329.09961 653.49805 C -335.73001 653.49805 -340.64677 654.94576 -343.84766 657.8418 C -346.97233 660.73784 -348.53516 665.38729 -348.53516 671.78906 L -348.53516 692.36523 C -348.53516 698.84322 -346.97233 703.5317 -343.84766 706.42773 C -340.72298 709.24756 -335.80622 710.65625 -329.09961 710.65625 L -314.35352 710.65625 L -314.35352 702.08398 L -330.24414 702.08398 C -333.06397 702.08398 -335.19651 701.43622 -336.64453 700.14062 C -338.09255 698.84503 -338.81836 697.0149 -338.81836 694.65234 L -338.81836 669.50195 C -338.81836 667.1394 -338.09255 665.31122 -336.64453 664.01562 C -335.19651 662.72003 -333.06397 662.07227 -330.24414 662.07227 L -314.35352 662.07227 L -314.35352 653.49805 L -329.09961 653.49805 z M -165.14844 653.49805 L -165.14844 662.07227 L -147.42969 662.07227 C -144.60986 662.07227 -142.47536 662.72003 -141.02734 664.01562 C -139.57932 665.31122 -138.85547 667.1394 -138.85547 669.50195 L -138.85547 675.21875 L -153.03125 675.21875 C -164.15813 675.21875 -169.7207 681.12471 -169.7207 692.9375 L -169.7207 695.22461 C -169.7207 700.86426 -168.42518 704.864 -165.83398 707.22656 C -163.16658 709.51291 -158.93661 710.65625 -153.14453 710.65625 L -142.9707 710.65625 C -140.07466 710.65625 -137.75091 709.51291 -135.99805 707.22656 C -135.15972 708.29352 -134.16856 709.1325 -133.02539 709.74219 C -131.80601 710.35188 -130.69973 710.65625 -129.70898 710.65625 L -123.42188 710.65625 L -123.42188 702.6543 C -125.47959 702.6543 -126.96632 702.387 -127.88086 701.85352 C -128.71919 701.24382 -129.13867 700.36778 -129.13867 699.22461 L -129.13867 671.78906 C -129.13867 665.38729 -130.73857 660.73784 -133.93945 657.8418 C -137.06413 654.94576 -141.94186 653.49805 -148.57227 653.49805 L -165.14844 653.49805 z M -88.662109 662.07227 L -82.261719 662.07227 C -79.441892 662.07227 -77.307394 662.72003 -75.859375 664.01562 C -74.411356 665.31122 -73.6875 667.1394 -73.6875 669.50195 L -73.6875 694.65234 C -73.6875 697.0149 -74.411356 698.84503 -75.859375 700.14062 C -77.307394 701.43622 -79.441892 702.08398 -82.261719 702.08398 L -96.09375 702.08398 L -96.09375 668.35938 C -96.09375 666.83514 -95.483056 665.4245 -94.263672 664.12891 C -93.044287 662.7571 -91.17709 662.07227 -88.662109 662.07227 z M -399.64062 683.79297 L -385.35156 683.79297 L -385.35156 696.36719 C -385.35156 698.04384 -385.65593 699.41546 -386.26562 700.48242 C -386.87532 701.54938 -388.32498 702.08398 -390.61133 702.08398 L -400.78516 702.08398 C -402.76666 702.08398 -404.21437 701.62548 -405.12891 700.71094 C -406.04344 699.7964 -406.5 698.34869 -406.5 696.36719 L -406.5 690.65039 C -406.5 688.66889 -405.85224 687.03192 -404.55664 685.73633 C -403.26104 684.44073 -401.62212 683.79297 -399.64062 683.79297 z M -153.14453 683.79297 L -138.85547 683.79297 L -138.85547 696.36719 C -138.85547 698.04384 -139.15984 699.41546 -139.76953 700.48242 C -140.37922 701.54938 -141.82694 702.08398 -144.11328 702.08398 L -154.28711 702.08398 C -156.26861 702.08398 -157.71827 701.62548 -158.63281 700.71094 C -159.54735 699.7964 -160.00391 698.34869 -160.00391 696.36719 L -160.00391 690.65039 C -160.00391 688.66889 -159.35614 687.03192 -158.06055 685.73633 C -156.76495 684.44073 -155.12603 683.79297 -153.14453 683.79297 z "
       style="font-style:normal;font-variant:normal;font-weight:normal;font-stretch:normal;font-size:114.31730652px;line-height:125%;font-family:'Share Tech Mono';-inkscape-font-specification:'Share Tech Mono, Normal';text-align:start;letter-spacing:0px;word-spacing:0px;writing-mode:lr-tb;text-anchor:start;fill:#ffffff;fill-opacity:1;stroke:none;stroke-width:1px;stroke-linecap:butt;stroke-linejoin:miter;stroke-opacity:1"
       id="path4201"
       d="m -475.55469,626.02539 a 4.6097353,4.6097353 0 0 0 -4.60937,4.60938 l 0,80.02148 a 4.6097353,4.6097353 0 0 0 4.60937,4.60937 l 9.7168,0 a 4.6097353,4.6097353 0 0 0 4.60937,-4.60937 l 0,-42.4082 c 0.0113,-0.22352 -0.009,-0.36946 0.59375,-0.97266 a 4.6097353,4.6097353 0 0 0 0.0977,-0.10156 c 0.16904,-0.17961 0.50631,-0.49219 2.12891,-0.49219 l 7.54492,0 c 1.36592,0 1.65613,0.22449 2.02148,0.61133 a 4.6097353,4.6097353 0 0 0 0.1875,0.1875 c 0.38842,0.36684 0.61328,0.65819 0.61328,2.02148 l 0,41.1543 a 4.6097353,4.6097353 0 0 0 4.60938,4.60937 l 9.7168,0 a 4.6097353,4.6097353 0 0 0 4.60937,-4.60937 l 0,-38.86719 c 0,-7.12189 -1.72672,-13.20315 -5.99023,-17.26758 -4.11405,-3.99311 -10.0293,-5.63281 -16.91016,-5.63281 l -5.25781,0 c -1.37779,0 -2.66219,0.27331 -3.96485,0.49414 l 0,-18.74804 a 4.6097353,4.6097353 0 0 0 -4.60937,-4.60938 l -9.7168,0 z m 185.90039,0 a 4.6097353,4.6097353 0 0 0 -4.60937,4.60938 l 0,80.02148 a 4.6097353,4.6097353 0 0 0 4.60937,4.60937 l 9.7168,0 a 4.6097353,4.6097353 0 0 0 4.60938,-4.60937 l 0,-16.24609 11.2207,18.625 a 4.6097353,4.6097353 0 0 0 3.94726,2.23046 l 12.00391,0 a 4.6097353,4.6097353 0 0 0 3.91602,-7.03906 l -19.6836,-31.72461 17.6211,-19.95312 a 4.6097353,4.6097353 0 0 0 -3.45508,-7.66016 l -12.23047,0 a 4.6097353,4.6097353 0 0 0 -3.45703,1.56055 l -9.88281,11.20508 0,-31.01953 a 4.6097353,4.6097353 0 0 0 -4.60938,-4.60938 l -9.7168,0 z m 58.65235,0 a 4.6097353,4.6097353 0 0 0 -4.60938,4.60938 l 0,8.57421 a 4.6097353,4.6097353 0 0 0 4.60938,4.60938 l 12.19531,0 0,55.40625 c 0,4.70127 1.16926,9.0318 4.27539,12.01367 a 4.6097353,4.6097353 0 0 0 0.0644,0.0625 c 2.71839,2.50928 6.3123,3.96484 9.98633,3.96484 l 19.20508,0 a 4.6097353,4.6097353 0 0 0 4.60937,-4.60937 l 0,-8.57227 a 4.6097353,4.6097353 0 0 0 -4.60937,-4.60937 l -14.5957,0 0,-66.83984 a 4.6097353,4.6097353 0 0 0 -4.60938,-4.60938 l -26.52148,0 z m 125.1914,0 a 4.6097353,4.6097353 0 0 0 -4.60937,4.60938 l 0,80.02148 a 4.6097353,4.6097353 0 0 0 4.60937,4.60937 l 22.406253,0 c 7.288511,0 13.424408,-1.56912 17.740235,-5.55468 4.440737,-4.03037 6.302734,-10.18605 6.302734,-17.34571 l 0,-20.57617 c 0,-7.20653 -1.774716,-13.35048 -6.1875,-17.34765 -4.329862,-3.99794 -10.498924,-5.55274 -17.855469,-5.55274 l -4.115234,0 c -1.377787,0 -2.662188,0.27331 -3.964844,0.49414 l 0,-18.74804 a 4.6097353,4.6097353 0 0 0 -4.609375,-4.60938 l -9.7168,0 z m -305.83398,22.86328 a 4.6097353,4.6097353 0 0 0 -4.60938,4.60938 l 0,8.57422 a 4.6097353,4.6097353 0 0 0 4.60938,4.60937 l 17.71875,0 c 2.11395,0 2.9886,0.46575 3.32812,0.76953 0.41115,0.36787 0.63672,0.62972 0.63672,2.05078 l 0,1.10743 -9.5664,0 c -6.37896,0 -12.03993,1.80933 -15.87305,5.8789 -3.83312,4.06958 -5.42578,9.81933 -5.42578,16.44922 l 0,2.28711 c 0,6.34554 1.45073,11.81594 5.39062,15.4082 a 4.6097353,4.6097353 0 0 0 0.10547,0.0937 c 3.91905,3.35919 9.2908,4.53906 15.68946,4.53906 l 10.17382,0 c 2.45462,0 4.83534,-0.77474 6.92188,-2.0371 0.29079,0.18508 0.54909,0.41771 0.85351,0.58007 a 4.6097353,4.6097353 0 0 0 0.10938,0.0566 c 1.66619,0.8331 3.44023,1.4004 5.375,1.40039 l 6.28906,0 a 4.6097353,4.6097353 0 0 0 4.60938,-4.60937 l 0,-8.00195 a 4.6097353,4.6097353 0 0 0 -4.60938,-4.60938 c -0.85964,0 -0.73827,-0.0183 -1.10742,-0.0898 l 0,-26.16602 c 0,-7.15965 -1.862,-13.31533 -6.30273,-17.3457 -4.31583,-3.98557 -10.45173,-5.55469 -17.74024,-5.55469 l -16.57617,0 z m 82.54492,0 c -7.30134,0 -13.46432,1.57636 -17.83984,5.53516 a 4.6097353,4.6097353 0 0 0 -0.041,0.0371 c -4.36659,4.04709 -6.16406,10.17619 -6.16406,17.32812 l 0,20.57617 c 0,7.21933 1.78232,13.38224 6.16406,17.44336 a 4.6097353,4.6097353 0 0 0 0.0449,0.041 c 4.34325,3.91951 10.48389,5.41601 17.83594,5.41601 l 14.74609,0 a 4.6097353,4.6097353 0 0 0 4.60938,-4.60937 l 0,-8.57227 a 4.6097353,4.6097353 0 0 0 -4.60938,-4.60937 l -15.89062,0 c -2.11395,0 -2.98511,-0.46437 -3.32617,-0.76953 -0.41095,-0.36769 -0.63867,-0.6342 -0.63867,-2.05274 l 0,-25.15039 c 0,-1.41852 0.22599,-1.68154 0.63867,-2.05078 0.34106,-0.30516 1.21222,-0.76953 3.32617,-0.76953 l 15.89062,0 a 4.6097353,4.6097353 0 0 0 4.60938,-4.60937 l 0,-8.57422 a 4.6097353,4.6097353 0 0 0 -4.60938,-4.60938 l -14.74609,0 z m 163.95117,0 a 4.6097353,4.6097353 0 0 0 -4.60937,4.60938 l 0,8.57422 a 4.6097353,4.6097353 0 0 0 4.60937,4.60937 l 17.71875,0 c 2.11395,0 2.98861,0.46575 3.32813,0.76953 0.41113,0.36786 0.63672,0.62971 0.63672,2.05078 l 0,1.10743 -9.56641,0 c -6.37895,0 -12.03993,1.80933 -15.87305,5.8789 -3.83311,4.06958 -5.42578,9.81933 -5.42578,16.44922 l 0,2.28711 c 0,6.34553 1.45071,11.81593 5.39063,15.4082 a 4.6097353,4.6097353 0 0 0 0.10547,0.0937 c 3.91904,3.3592 9.2908,4.53906 15.68945,4.53906 l 10.17383,0 c 2.45461,0 4.83534,-0.77474 6.92187,-2.0371 0.29079,0.18507 0.5491,0.41772 0.85352,0.58007 a 4.6097353,4.6097353 0 0 0 0.10937,0.0566 c 1.66796,0.83398 3.44219,1.40039 5.37696,1.40039 l 6.2871,0 a 4.6097353,4.6097353 0 0 0 4.60938,-4.60937 l 0,-8.00195 a 4.6097353,4.6097353 0 0 0 -4.60938,-4.60938 c -0.85963,0 -0.73827,-0.0183 -1.10742,-0.0898 l 0,-26.16602 c 0,-7.15965 -1.862,-13.31533 -6.30273,-17.3457 -4.31583,-3.98556 -10.45172,-5.55469 -17.74024,-5.55469 l -16.57617,0 z m 76.486331,17.79297 6.40039,0 c 2.113944,0 2.988605,0.46575 3.328125,0.76953 0.41114,0.36786 0.636719,0.62972 0.636719,2.05078 l 0,25.15039 c 0,1.42108 -0.227307,1.68642 -0.636719,2.05274 -0.339518,0.30378 -1.214181,0.76953 -3.328125,0.76953 l -9.222656,0 0,-29.11523 c 0,-0.29309 -0.02324,-0.43332 0.578125,-1.07227 a 4.6097353,4.6097353 0 0 0 0.08789,-0.0957 c 0.173196,-0.19485 0.478006,-0.50977 2.15625,-0.50977 z m -310.978511,21.7207 9.67968,0 0,7.96485 c 0,0.66338 -0.10109,0.78366 -0.18164,1.08398 -0.15664,0.0171 -0.0991,0.0234 -0.46875,0.0234 l -10.17383,0 c -1.27047,0 -1.34456,-0.28402 -1.08398,-0.0234 0.26288,0.26289 -0.0215,0.1895 -0.0215,-1.08398 l 0,-5.7168 c 0,-0.97697 0.12765,-1.18821 0.59374,-1.6543 0.46447,-0.46447 0.67928,-0.59375 1.65626,-0.59375 z m 246.49609,0 9.67969,0 0,7.96485 c 0,0.66455 -0.10094,0.78565 -0.18164,1.08593 -0.15639,0.0168 -0.098,0.0215 -0.4668,0.0215 l -10.17383,0 c -1.27047,0 -1.34883,-0.28633 -1.08594,-0.0234 0.26289,0.26289 -0.0215,0.1895 -0.0215,-1.08398 l 0,-5.7168 c 0,-0.97696 0.12765,-1.1882 0.59375,-1.6543 0.46447,-0.46447 0.67928,-0.59375 1.65625,-0.59375 z"
       transform="matrix(0,-1.0622968,1.0622968,0,-41.846894,-6.432511)" />
  </g>
  <g
     inkscape:groupmode="layer"
     id="layer3"
     inkscape:label="Layer 2"
     style="display:inline"
     transform="translate(-4.2263186,487.95683)" />
  <g
     inkscape:groupmode="layer"
     id="layer6"
     inkscape:label="Layer 4"
     style="display:inline"
     transform="translate(-4.2263186,-1.0193947)">
    <path
       style="color:#000000;font-style:normal;font-variant:normal;font-weight:normal;font-stretch:normal;font-size:medium;line-height:normal;font-family:sans-serif;text-indent:0;text-align:start;text-decoration:none;text-decoration-line:none;text-decoration-style:solid;text-decoration-color:#000000;letter-spacing:normal;word-spacing:normal;text-transform:none;direction:ltr;block-progression:tb;writing-mode:lr-tb;baseline-shift:baseline;text-anchor:start;white-space:normal;clip-rule:nonzero;display:inline;overflow:visible;visibility:visible;opacity:1;isolation:auto;mix-blend-mode:normal;color-interpolation:sRGB;color-interpolation-filters:linearRGB;solid-color:#000000;solid-opacity:1;fill:#ffffff;fill-opacity:1;fill-rule:nonzero;stroke:#000000;stroke-width:1.46686947;stroke-linecap:round;stroke-linejoin:bevel;stroke-miterlimit:4;stroke-dasharray:none;stroke-dashoffset:0;stroke-opacity:1;color-rendering:auto;image-rendering:auto;shape-rendering:auto;text-rendering:auto;enable-background:accumulate"
       d="m -0.02906335,-1.1996155 -9.30211775,8.9774048 0,646.7296007 9.30211775,8.9774 670.12175335,0 9.30212,-8.9774 0,-646.7296007 -9.30212,-8.9774048 -670.12175335,0 z m 9.30211445,17.9548095 651.5175389,0 0,628.774776 -651.5175389,0 0,-628.774776 z"
       id="path4150"
       inkscape:connector-curvature="0" />
  </g>
</svg>
